<?xml version="1.0" standalone="no"?>
<!DOCTYPE svg PUBLIC "-//W3C//DTD SVG 1.1//EN" "http://www.w3.org/Graphics/SVG/1.1/DTD/svg11.dtd" >
<svg>
<metadata>
Created by FontForge 20090914 at Tue Jul 28 10:17:53 2020
 By www-data
Copyright 2016 The Muli Project Authors (contact@sansoxygen.com)
</metadata>
<defs>
<font id="Muli-Light" horiz-adv-x="0" >
  <font-face 
    font-family="Muli Light"
    font-weight="300"
    font-stretch="normal"
    units-per-em="1000"
    panose-1="0 0 4 0 0 0 0 0 0 0"
    ascent="800"
    descent="-200"
    x-height="501"
    cap-height="712"
    bbox="-322 -273 1276 1086"
    underline-thickness="50"
    underline-position="-50"
    unicode-range="U+000D-U+FB02"
  />
<missing-glyph horiz-adv-x="476" 
d="M390 736v-952h-301v952h301zM317 672h-157v-31h62v-35h-63v-32h158v32h-63v35h63v31zM254 549h-95v-99h158v33h-63v66zM222 517v-34h-32v34h32zM317 425h-158v-32h63v-35h-63v-31h95v66h63v32zM317 368h-31v-63h-127v-33h158v96zM317 251h-95v-53h32v22h32v-45h-96v76
h-31v-107h158v107zM317 87h-158v-108h158v108zM286 55v-44h-96v44h96zM317 -43h-158v-31h67l-67 -45v-31h158v31h-97l67 45h30v31z" />
    <glyph glyph-name="fi" unicode="fi" horiz-adv-x="548" 
d="M168 501h298v-501h-61v452h-237v-452h-61v452h-99v49h99v75c0 58 13.5 99.667 40.5 125s73.833 38 140.5 38h29v-50h-25c-36 0 -62.5 -3.16699 -79.5 -9.5s-28.667 -18.5 -35 -36.5s-9.5 -45.667 -9.5 -83v-59zM394 713h83v-80h-83v80z" />
    <glyph glyph-name="fl" unicode="fl" horiz-adv-x="552" 
d="M190 662c-15.333 -15.333 -23 -42.667 -23 -82v-79h129v-49h-129v-452h-61v452h-98v49h98v90c0 50 12.333 87.333 37 112s58.667 37 102 37c20 0 40.667 -2.66699 62 -8v-55c-18 5.33301 -35 8 -51 8c-28.667 0 -50.667 -7.66699 -66 -23zM407 -0.000976562v736h60v-736
h-60z" />
    <glyph glyph-name=".notdef" horiz-adv-x="476" 
d="M390 736v-952h-301v952h301zM317 672h-157v-31h62v-35h-63v-32h158v32h-63v35h63v31zM254 549h-95v-99h158v33h-63v66zM222 517v-34h-32v34h32zM317 425h-158v-32h63v-35h-63v-31h95v66h63v32zM317 368h-31v-63h-127v-33h158v96zM317 251h-95v-53h32v22h32v-45h-96v76
h-31v-107h158v107zM317 87h-158v-108h158v108zM286 55v-44h-96v44h96zM317 -43h-158v-31h67l-67 -45v-31h158v31h-97l67 45h30v31z" />
    <glyph glyph-name="NULL" 
 />
    <glyph glyph-name="NULL" 
 />
    <glyph glyph-name="nonmarkingreturn" unicode="&#xd;" horiz-adv-x="255" 
 />
    <glyph glyph-name="space" unicode=" " horiz-adv-x="255" 
 />
    <glyph glyph-name="exclam" unicode="!" horiz-adv-x="222" 
d="M92 175l-20 537h77l-19 -537h-38zM69 87h85v-87h-85v87z" />
    <glyph glyph-name="quotedbl" unicode="&#x22;" horiz-adv-x="410" 
d="M86 438l-17 274h74l-16 -274h-41zM284 438l-17 274h74l-16 -274h-41z" />
    <glyph glyph-name="numbersign" unicode="#" horiz-adv-x="606" 
d="M576 482h-108l-47 -244h134v-50h-144l-36 -188h-54l37 188h-175l-37 -188h-53l36 188h-99v50h109l47 244h-135v50h145l35 180h54l-35 -180h175l35 180h53l-35 -180h98v-50zM367 238l48 244h-175l-48 -244h175z" />
    <glyph glyph-name="dollar" unicode="$" horiz-adv-x="600" 
d="M489 56c-38 -35.333 -88.333 -56.0049 -151 -62.0049v-110h-56v109c-46 2 -88.833 11 -128.5 27s-74.5 38.667 -104.5 68l26 49c34 -29.333 67.5 -51.166 100.5 -65.499s68.833 -22.5 107.5 -24.5v276c-46 12 -84 24.5 -114 37.5s-55 32.167 -75 57.5s-30 59 -30 101
c0 36.667 9.16699 69.667 27.5 99s44 52.833 77 70.5s70.833 27.834 113.5 30.501v109h56v-109c39.333 -3.33301 76.5 -13 111.5 -29s65.5 -37 91.5 -63l-26 -49c-50.667 50.667 -110 79.334 -178 86.001v-294c44.667 -11.333 81.167 -23.166 109.5 -35.499
s52 -30.166 71 -53.499s28.5 -54.333 28.5 -93c0 -52.667 -19 -96.667 -57 -132zM167 431.995c26.667 -19.333 65.334 -35.667 116.001 -49v281c-48.667 -3.33301 -86.834 -17.833 -114.501 -43.5s-41.5 -59.5 -41.5 -101.5c0 -38.667 13.333 -67.667 40 -87zM445 92.9941
c25.333 24 38 56 38 96c0 34 -12.5 59.5 -37.5 76.5s-61.167 31.833 -108.5 44.5v-261c46.667 5.33301 82.667 20 108 44z" />
    <glyph glyph-name="percent" unicode="%" horiz-adv-x="932" 
d="M105 339c-29.333 36.667 -44 91 -44 163s14.667 126.167 44 162.5s70.333 54.5 123 54.5c53.333 0 94.833 -18.167 124.5 -54.5s44.5 -90.5 44.5 -162.5s-15 -126.333 -45 -163s-71.333 -55 -124 -55s-93.667 18.333 -123 55zM293 0h-64l411 712h64zM310.5 373
c17.667 27.333 26.499 70.333 26.499 129c0 58 -8.83301 100.833 -26.5 128.5s-45.167 41.5 -82.5 41.5c-36 0 -63 -13.833 -81 -41.5s-27 -70.5 -27 -128.5c0 -58.667 8.83301 -101.667 26.5 -129s44.834 -41 81.501 -41c37.333 0 64.833 13.667 82.5 41zM580.499 48
c-29.667 36.667 -44.4961 91 -44.4961 163c0 72.667 14.667 127 44 163s70.666 54 123.999 54s94.666 -18 123.999 -54s44 -90.333 44 -163c0 -72 -14.833 -126.333 -44.5 -163s-70.834 -55 -123.501 -55s-93.834 18.333 -123.501 55zM785.503 82
c17.667 27.333 26.5 70.333 26.5 129c0 58 -8.83301 100.667 -26.5 128s-44.834 41 -81.501 41s-63.834 -13.667 -81.501 -41s-26.5 -70 -26.5 -128c0 -58.667 8.83301 -101.667 26.5 -129s44.834 -41 81.501 -41s63.834 13.667 81.501 41z" />
    <glyph glyph-name="ampersand" unicode="&#x26;" horiz-adv-x="663" 
d="M667 34l-35.999 -41.999c-54.667 28 -100 61 -136 99c-28 -32 -60 -56.333 -96 -73s-75.667 -25 -119 -25s-81.833 7.5 -115.5 22.5s-59.667 36.333 -78 64s-27.5 59.5 -27.5 95.5c0 42.667 13.167 81.334 39.5 116.001s69.833 70.667 130.5 108
c-32.667 39.333 -55.167 71 -67.5 95s-18.5 49 -18.5 75c0 45.333 15.167 81.666 45.5 108.999s70.5 41 120.5 41c46.667 0 83.667 -12.333 111 -37s41 -58.334 41 -101.001c0 -34.667 -10.667 -65.5 -32 -92.5s-60.333 -59.5 -117 -97.5l179 -210
c32.667 61.333 50 138.666 52 231.999h58c-2.66699 -110 -27 -202 -73 -276c35.333 -39.333 81.666 -73.666 138.999 -102.999zM220.001 510.001c10 -18.667 29.333 -45.333 58 -80c48 31.333 80.833 57.5 98.5 78.5s26.5 43.833 26.5 68.5c0 27.333 -8.5 49.333 -25.5 66
s-39.833 25 -68.5 25c-31.333 0 -56.5 -9.16699 -75.5 -27.5s-28.5 -42.166 -28.5 -71.499c0 -20.667 5 -40.334 15 -59.001zM460.001 131.002l-196.001 229c-53.333 -34 -90.666 -64.667 -111.999 -92s-32 -58 -32 -92c0 -40 14.667 -71.833 44 -95.5s69 -35.5 119 -35.5
c71.333 0 130.333 28.667 177 86z" />
    <glyph glyph-name="quotesingle" unicode="'" horiz-adv-x="212" 
d="M86 438l-17 274h74l-16 -274h-41z" />
    <glyph glyph-name="parenleft" unicode="(" horiz-adv-x="300" 
d="M132 39c-17.333 73.333 -26.001 149 -26.001 227c0 76.667 8.66699 151.667 26 225s44.333 147 81 221h54c-35.333 -81.333 -60.5 -158 -75.5 -230s-22.5 -144 -22.5 -216s7.5 -144.333 22.5 -217s40.167 -149.667 75.5 -231h-53c-37.333 74 -64.666 147.667 -81.999 221
z" />
    <glyph glyph-name="parenright" unicode=")" horiz-adv-x="300" 
d="M34 -182c34.667 81.333 59.499 158.5 74.499 231.5s22.5 145.167 22.5 216.5c0 72 -7.5 144 -22.5 216s-40.167 148.667 -75.5 230h54c36.667 -74 63.667 -147.667 81 -221s26 -148.333 26 -225c0 -78 -8.66699 -153.667 -26 -227s-44.666 -147 -81.999 -221h-52z" />
    <glyph glyph-name="asterisk" unicode="*" horiz-adv-x="453" 
d="M134 369l-41 30l99 128l-156 47l16 48l153 -54l-5 162h50l-4 -162l154 54l15 -48l-155 -47l99 -128l-41 -30l-92 135z" />
    <glyph glyph-name="plus" unicode="+" horiz-adv-x="600" 
d="M546 312v-51h-221v-221h-50v221h-221v51h221v221h50v-221h221z" />
    <glyph glyph-name="comma" unicode="," horiz-adv-x="222" 
d="M154 87l-0.000976562 -64c0 -25.333 -4 -48.666 -12 -69.999s-21.333 -41.333 -40 -60l-32 25c22.667 25.333 35.334 52.666 38.001 81.999h-39v87h85z" />
    <glyph glyph-name="hyphen" unicode="-" horiz-adv-x="424" 
d="M75 242v53h274v-53h-274z" />
    <glyph glyph-name="period" unicode="." horiz-adv-x="222" 
d="M69 87h85v-87h-85v87z" />
    <glyph glyph-name="slash" unicode="/" horiz-adv-x="272" 
d="M38 -54h-60l255 802h61z" />
    <glyph glyph-name="zero" unicode="0" horiz-adv-x="600" 
d="M117.5 84.5c-41.667 61.667 -62.5 152.166 -62.5 271.499s20.667 209.833 62 271.5s102.333 92.5 183 92.5s141.667 -30.667 183 -92s62 -151.666 62 -270.999s-20.833 -210 -62.5 -272s-102.5 -93 -182.5 -93s-140.833 30.833 -182.5 92.5zM436.5 122.499
c29.667 50.333 44.5 128.5 44.5 234.5s-14.667 183.833 -44 233.5s-75 74.5 -137 74.5c-61.333 0 -106.833 -25 -136.5 -75s-44.5 -127.667 -44.5 -233s14.833 -183.333 44.5 -234s75.167 -76 136.5 -76s106.833 25.167 136.5 75.5z" />
    <glyph glyph-name="one" unicode="1" horiz-adv-x="600" 
d="M355 54h157v-54h-377v54h158v576l-147 -95v63l174 114h35v-658z" />
    <glyph glyph-name="two" unicode="2" horiz-adv-x="600" 
d="M537 54v-53.999h-449v46l253 283c36 41.333 62 77.833 78 109.5s24 63.167 24 94.5c0 42.667 -12.167 75.5 -36.5 98.5s-59.166 34.5 -104.499 34.5c-70 0 -138.333 -28.667 -205 -86l-26 49c28 27.333 63 49.333 105 66s84 25 126 25
c63.333 0 113.166 -16.5 149.499 -49.5s54.5 -77.833 54.5 -134.5c0 -40.667 -9.5 -80.334 -28.5 -119.001s-49.833 -81.667 -92.5 -129l-214 -234h366z" />
    <glyph glyph-name="three" unicode="3" horiz-adv-x="600" 
d="M488 303.5c22 -29.667 32.9971 -66.833 32.9971 -111.5c0 -61.333 -20.167 -109.833 -60.5 -145.5s-95.166 -53.5 -164.499 -53.5c-45.333 0 -88.666 8 -129.999 24s-76.666 38.333 -105.999 67l26 49c32.667 -28.667 66.167 -50.167 100.5 -64.5
s70.833 -21.5 109.5 -21.5c52 0 92.167 12.5 120.5 37.5s42.5 60.833 42.5 107.5c0 94.667 -58.667 142 -176 142h-76v55h61c56 0 99.167 12.833 129.5 38.5s45.5 62.5 45.5 110.5c0 40.667 -12.333 72.167 -37 94.5s-59.334 33.5 -104.001 33.5
c-70 0 -138.333 -28.667 -205 -86l-26 49c28.667 28.667 63.5 51 104.5 67s83.5 24 127.5 24c62 0 111.333 -16.167 148 -48.5s55 -75.833 55 -130.5c0 -41.333 -10.167 -77.5 -30.5 -108.5s-48.166 -53.167 -83.499 -66.5c42 -12 74 -32.833 96 -62.5z" />
    <glyph glyph-name="four" unicode="4" horiz-adv-x="600" 
d="M562 215v-53h-110v-162h-62v162h-337v47l348 503h51v-497h110zM122 215h268v387z" />
    <glyph glyph-name="five" unicode="5" horiz-adv-x="600" 
d="M444 414c33.333 -18.667 59 -45 77 -79s27 -73 27 -117s-9.5 -83 -28.5 -117s-46.167 -60.5 -81.5 -79.5s-76.333 -28.5 -123 -28.5c-42 0 -83.833 8.16699 -125.5 24.5s-76.834 38.5 -105.501 66.5l26 49c66.667 -57.333 135.334 -86 206.001 -86
c52 0 93.167 15.5 123.5 46.5s45.5 72.5 45.5 124.5c0 50 -15 90.833 -45 122.5s-69.333 47.5 -118 47.5c-37.333 0 -70 -7.5 -98 -22.5s-52.333 -38.167 -73 -69.5h-48v416h418v-53h-356v-284c19.333 21.333 42.833 37.833 70.5 49.5s57.834 17.5 90.501 17.5
c45.333 0 84.666 -9.33301 117.999 -28z" />
    <glyph glyph-name="six" unicode="6" horiz-adv-x="600" 
d="M441 414.5c34 -19 60.3301 -45.501 78.9971 -79.501s28 -73 28 -117c0 -43.333 -9.66699 -82.166 -29 -116.499s-46.166 -61.166 -80.499 -80.499s-73.166 -29 -116.499 -29c-84 0 -148.833 29.667 -194.5 89s-68.5 144.333 -68.5 255
c0 121.333 23.5 215.666 70.5 282.999s112.833 101 197.5 101c40 0 79.167 -7.83301 117.5 -23.5s72.5 -38.167 102.5 -67.5l-26 -49c-34 29.333 -66.667 51 -98 65s-63.333 21 -96 21c-64.667 0 -115.167 -29 -151.5 -87s-54.5 -139 -54.5 -243v-27
c14.667 41.333 40.334 74 77.001 98s78.667 36 126 36c44 0 83 -9.5 117 -28.5zM439.497 92.999c30.333 31.333 45.501 73 45.501 125c0 50.667 -15.333 91.667 -46 123s-70.667 47 -120 47c-33.333 0 -63.166 -7.16699 -89.499 -21.5s-46.833 -34.5 -61.5 -60.5
s-22 -55.333 -22 -88c0 -51.333 16.167 -92.833 48.5 -124.5s74.166 -47.5 125.499 -47.5c49.333 0 89.166 15.667 119.499 47z" />
    <glyph glyph-name="seven" unicode="7" horiz-adv-x="600" 
d="M71 712h458v-46l-338 -666h-67l336 658h-389v54z" />
    <glyph glyph-name="eight" unicode="8" horiz-adv-x="600" 
d="M511 300c26 -31.333 39 -69 39 -113c0 -60 -22.333 -107.333 -67 -142s-105.667 -52 -183 -52s-138.333 17.333 -183 52s-67 82 -67 142c0 43.333 13.333 80.833 40 112.5s63 53.5 109 65.5c-42.667 12.667 -75.5 33.667 -98.5 63s-34.5 64 -34.5 104
c0 37.333 9.66699 70.333 29 99s46.833 50.667 82.5 66s76.5 23 122.5 23s86.833 -7.66699 122.5 -23s63.167 -37.333 82.5 -66s29 -61.667 29 -99c0 -40 -11.5 -74.667 -34.5 -104s-55.833 -50.333 -98.5 -63c47.333 -12 84 -33.667 110 -65zM175 430
c30.667 -25.333 72.332 -40.666 124.999 -45.999c52.667 5.33301 94.334 20.666 125.001 45.999s46 58.333 46 99c0 42.667 -15 76.167 -45 100.5s-72 36.5 -126 36.5s-96 -12.167 -126 -36.5s-45 -57.833 -45 -100.5c0 -40.667 15.333 -73.667 46 -99zM438.998 83.5
c32 24.333 48 59.833 48 106.5c0 42.667 -17.167 76.667 -51.5 102s-79.5 40.666 -135.5 45.999c-56 -5.33301 -101.167 -20.666 -135.5 -45.999s-51.5 -59.333 -51.5 -102c0 -46.667 16 -82.167 48 -106.5s78.333 -36.5 139 -36.5s107 12.167 139 36.5z" />
    <glyph glyph-name="nine" unicode="9" horiz-adv-x="600" 
d="M473.5 631c45.667 -59.333 68.5029 -144.332 68.5029 -254.999c0 -121.333 -23.5 -215.666 -70.5 -282.999s-112.833 -101 -197.5 -101c-40 0 -79.167 7.83301 -117.5 23.5s-72.5 38.167 -102.5 67.5l26 49c34.667 -30 67.5 -51.833 98.5 -65.5s62.833 -20.5 95.5 -20.5
c64.667 0 115.167 29 151.5 87s54.5 139 54.5 243v28c-14.667 -42 -40.334 -75 -77.001 -99s-78.667 -36 -126 -36c-44 0 -83 9.5 -117 28.5s-60.333 45.5 -79 79.5s-28 73 -28 117c0 43.333 9.66699 82.166 29 116.499s46.166 61.166 80.499 80.499s73.166 29 116.499 29
c84 0 148.833 -29.667 194.5 -89zM371.503 345.501c26.333 14.333 46.832 34.5 61.499 60.5s22 55.333 22 88c0 51.333 -16.167 92.833 -48.5 124.5s-74.166 47.5 -125.499 47.5c-49.333 0 -89.166 -15.667 -119.499 -47s-45.5 -73 -45.5 -125
c0 -50.667 15.333 -91.667 46 -123s70.667 -47 120 -47c33.333 0 63.166 7.16699 89.499 21.5z" />
    <glyph glyph-name="colon" unicode=":" horiz-adv-x="222" 
d="M69 490h85v-86h-85v86zM69 87h85v-87h-85v87z" />
    <glyph glyph-name="semicolon" unicode=";" horiz-adv-x="222" 
d="M69 490h85v-86h-85v86zM69 87h84.999v-64c0 -25.333 -4 -48.666 -12 -69.999s-21.333 -41.333 -40 -60l-32 25c22.667 25.333 35.334 52.666 38.001 81.999h-39v87z" />
    <glyph glyph-name="less" unicode="&#x3c;" horiz-adv-x="600" 
d="M546 540v-56l-429 -197l429 -198v-56l-492 229v50z" />
    <glyph glyph-name="equal" unicode="=" horiz-adv-x="600" 
d="M546 413v-51h-492v51h492zM546 211v-51h-492v51h492z" />
    <glyph glyph-name="greater" unicode="&#x3e;" horiz-adv-x="600" 
d="M54 540l492 -228v-50l-492 -229v56l429 198l-429 197v56z" />
    <glyph glyph-name="question" unicode="?" horiz-adv-x="440" 
d="M155.5 710c24.333 6 47.833 9.00195 70.5 9.00195c56 0 101 -14 135 -42s51 -65 51 -111c0 -35.333 -7.5 -66.333 -22.5 -93s-37.833 -58.334 -68.5 -95.001c-30 -35.333 -53 -66.666 -69 -93.999s-25.667 -59.333 -29 -96l-1 -13h-37v17c0 44 7.83301 81.667 23.5 113
s38.167 65.666 67.5 102.999c24.667 32 42.834 59 54.501 81s17.5 46.667 17.5 74c0 31.333 -11 56.166 -33 74.499s-52 27.5 -90 27.5c-44.667 0 -90.667 -13.667 -138 -41v60c21.333 11.333 44.166 20 68.499 26zM161 0.00195312v87h85v-87h-85z" />
    <glyph glyph-name="at" unicode="@" horiz-adv-x="931" 
d="M252 -97.5c-64 35.667 -113.332 85.8369 -147.999 150.504s-52 139.667 -52 225c0 87.333 18.5 164.166 55.5 230.499s87.667 117.666 152 153.999s136.5 54.5 216.5 54.5c86 0 159.5 -18 220.5 -54s106.833 -82.167 137.5 -138.5s46 -115.166 46 -176.499
c0 -68 -10.167 -123 -30.5 -165s-45.666 -72.167 -75.999 -90.5s-62.166 -27.5 -95.499 -27.5c-36.667 0 -64.667 7.83301 -84 23.5s-29.666 38.167 -30.999 67.5h-2c-16.667 -28 -38.334 -50.167 -65.001 -66.5s-56.667 -24.5 -90 -24.5
c-42.667 0 -77.667 15.167 -105 45.5s-41 73.166 -41 128.499c0 45.333 8.83301 88.333 26.5 129s42.667 73.334 75 98.001s69.833 37 112.5 37c33.333 0 62.166 -8.16699 86.499 -24.5s39.5 -36.833 45.5 -61.5h1l12 73h54l-49 -283c-2 -12.667 -3 -24.334 -3 -35.001
c0 -22.667 5.5 -38.667 16.5 -48s27.833 -14 50.5 -14c20.667 0 41.667 7.83301 63 23.5s39.166 41.167 53.499 76.5s21.5 81.333 21.5 138c0 52 -12.833 102.333 -38.5 151s-65 88.667 -118 120s-117.5 47 -193.5 47c-70 0 -133.167 -15.833 -189.5 -47.5
s-100.666 -76.834 -132.999 -135.501s-48.5 -127 -48.5 -205c0 -76.667 14.833 -143.334 44.5 -200.001s72.5 -100.5 128.5 -131.5s122.333 -46.5 199 -46.5c58 0 108.833 8.83301 152.5 26.5s77.167 42.167 100.5 73.5h72c-28.667 -47.333 -71.334 -84.333 -128.001 -111
s-122.334 -40 -197.001 -40c-86 0 -161 17.833 -225 53.5zM509.501 142.003c26.333 21.333 46.334 49.168 60.001 83.501s20.5 70.166 20.5 107.499c0 40 -10 70.667 -30 92s-47 32 -81 32s-63.667 -10.333 -89 -31s-44.666 -47.5 -57.999 -80.5s-20 -67.167 -20 -102.5
c0 -42.667 10.167 -75.5 30.5 -98.5s45.166 -34.5 74.499 -34.5c35.333 0 66.166 10.667 92.499 32z" />
    <glyph glyph-name="A" unicode="A" horiz-adv-x="727" 
d="M637 0l-81 190h-384l-82 -190h-64l310 712h56l309 -712h-64zM195 244h337l-168 393z" />
    <glyph glyph-name="B" unicode="B" horiz-adv-x="676" 
d="M577 304.5c22.667 -29.667 34 -66.833 34 -111.5c0 -62 -20.333 -109.667 -61 -143s-98.334 -50 -173.001 -50h-285v712h275c72.667 0 128.667 -16.167 168 -48.5s59 -78.5 59 -138.5c0 -38.667 -9.83301 -71.667 -29.5 -99s-47.167 -47.666 -82.5 -60.999
c40.667 -10.667 72.334 -30.834 95.001 -60.501zM153 389.001h205.001c57.333 0 100.666 11.667 129.999 35s44 57.333 44 102c0 88.667 -58 133 -174 133h-205v-270zM505.501 87.001c28.333 22.667 42.5 57.333 42.5 104c0 95.333 -58.333 143 -175 143h-220v-281h220
c60 0 104.167 11.333 132.5 34z" />
    <glyph glyph-name="C" unicode="C" horiz-adv-x="684" 
d="M216 35.5c-48.667 29 -86 70.999 -112 125.999s-39 120.167 -39 195.5c0 74.667 13 139.334 39 194.001s63.333 96.5 112 125.5s106 43.5 172 43.5c49.333 0 94.5 -7.83301 135.5 -23.5s76.5 -38.834 106.5 -69.501l-26 -49c-34 30.667 -68 52.834 -102 66.501
s-72 20.5 -114 20.5c-82 0 -145.667 -26.833 -191 -80.5s-68 -129.5 -68 -227.5c0 -98.667 22.5 -175 67.5 -229s108.833 -81 191.5 -81c42 0 80 6.83301 114 20.5s68 35.834 102 66.501l26 -49c-30 -30.667 -65.5 -53.834 -106.5 -69.501s-86.167 -23.5 -135.5 -23.5
c-66 0 -123.333 14.5 -172 43.5z" />
    <glyph glyph-name="D" unicode="D" horiz-adv-x="739" 
d="M92 712h229.002c113.333 0 200.666 -30.667 261.999 -92s92 -149 92 -263s-30.833 -202 -92.5 -264s-148.834 -93 -261.501 -93h-229v712zM318.002 54c96.667 0 169.333 25.5 218 76.5s73 126.5 73 226.5c0 200.667 -97 301 -291 301h-164v-604h164z" />
    <glyph glyph-name="E" unicode="E" horiz-adv-x="585" 
d="M92 0v712h439v-53h-378v-270h358v-55h-358v-281h378v-53h-439z" />
    <glyph glyph-name="F" unicode="F" horiz-adv-x="558" 
d="M92 0v712h429v-53h-367v-270h347v-55h-347v-334h-62z" />
    <glyph glyph-name="G" unicode="G" horiz-adv-x="726" 
d="M642 365l0.00292969 -325.002c-26 -14 -61.667 -25.5 -107 -34.5s-91 -13.5 -137 -13.5c-69.333 0 -129 14.5 -179 43.5s-88.167 70.833 -114.5 125.5s-39.5 120 -39.5 196c0 75.333 13.167 140.333 39.5 195s64.166 96.334 113.499 125.001s107.666 43 174.999 43
c100.667 0 181.334 -31 242.001 -93l-26 -49c-34 30.667 -68.167 52.834 -102.5 66.501s-72.5 20.5 -114.5 20.5c-84 0 -148.833 -26.667 -194.5 -80s-68.5 -129.333 -68.5 -228c0 -100.667 23.167 -177.667 69.5 -231s113.166 -80 200.499 -80
c67.333 0 129.666 11 186.999 33v233h-188v53h244z" />
    <glyph glyph-name="H" unicode="H" horiz-adv-x="762" 
d="M608 712h62v-712h-62v334h-454v-334h-62v712h62v-323h454v323z" />
    <glyph glyph-name="I" unicode="I" horiz-adv-x="246" 
d="M92 0v712h62v-712h-62z" />
    <glyph glyph-name="J" unicode="J" horiz-adv-x="314" 
d="M-7 -123c30 -5.33301 53.668 -8 71.001 -8c35.333 0 60.166 10 74.499 30s21.5 54.667 21.5 104v709h62v-711c0 -66 -11.5 -113.667 -34.5 -143s-60.833 -44 -113.5 -44c-22 0 -49 2.66699 -81 8v55z" />
    <glyph glyph-name="K" unicode="K" horiz-adv-x="619" 
d="M621 0h-84l-383 341v-341h-62v712h62v-330l364 330h82l-384 -348z" />
    <glyph glyph-name="L" unicode="L" horiz-adv-x="538" 
d="M92 0v712h62v-658h368v-54h-430z" />
    <glyph glyph-name="M" unicode="M" horiz-adv-x="848" 
d="M704 712h52v-712h-58v570l-250 -570h-46l-252 565l1 -565h-58v712h51l282 -638z" />
    <glyph glyph-name="N" unicode="N" horiz-adv-x="742" 
d="M592 712h58v-712h-48l-452 607v-607h-58v712h49l451 -607v607z" />
    <glyph glyph-name="O" unicode="O" horiz-adv-x="765" 
d="M213.5 36c-47.667 29.333 -84.3311 71.3301 -109.998 125.997s-38.5 119.334 -38.5 194.001s12.667 139.334 38 194.001s61.833 96.667 109.5 126s104.167 44 169.5 44s122 -14.667 170 -44s84.667 -71.166 110 -125.499s38 -118.833 38 -193.5
s-12.833 -139.5 -38.5 -194.5s-62.334 -97.167 -110.001 -126.5s-104.167 -44 -169.5 -44c-64.667 0 -120.834 14.667 -168.501 44zM568.503 127.997c44.333 54 66.5 130.333 66.5 229s-22 174.667 -66 228s-106.333 80 -187 80c-80 0 -142.167 -26.833 -186.5 -80.5
s-66.5 -129.5 -66.5 -227.5s22.167 -174.167 66.5 -228.5s106.5 -81.5 186.5 -81.5s142.167 27 186.5 81z" />
    <glyph glyph-name="P" unicode="P" horiz-adv-x="644" 
d="M92 712l274 0.000976562c71.333 0 127.333 -17.333 168 -52s61 -82.334 61 -143.001c0 -61.333 -20.5 -109.5 -61.5 -144.5s-96.833 -52.5 -167.5 -52.5h-212v-320h-62v712zM362 374.001c56 0 98.333 12.333 127 37s43 60 43 106c0 45.333 -14.333 80.333 -43 105
s-71 37 -127 37h-208v-285h208z" />
    <glyph glyph-name="Q" unicode="Q" horiz-adv-x="765" 
d="M617 -146l-42.9971 -45.002c-26 20.667 -52.833 47.667 -80.5 81s-51.834 68 -72.501 104c-17.333 -1.33301 -30.333 -2 -39 -2c-64.667 0 -120.834 14.667 -168.501 44s-84.334 71.333 -110.001 126s-38.5 119.334 -38.5 194.001s12.667 139.334 38 194.001
s61.833 96.667 109.5 126s104.167 44 169.5 44s122 -14.667 170 -44s84.667 -71.166 110 -125.499s38 -118.833 38 -193.5c0 -90.667 -18.5 -166.334 -55.5 -227.001s-89.167 -101.667 -156.5 -123c31.333 -56 74.333 -107 129 -153zM195.503 128.498
c44.333 -54.333 106.5 -81.5 186.5 -81.5s142.167 27 186.5 81s66.5 130.333 66.5 229s-22 174.667 -66 228s-106.333 80 -187 80c-80 0 -142.167 -26.833 -186.5 -80.5s-66.5 -129.5 -66.5 -227.5s22.167 -174.167 66.5 -228.5z" />
    <glyph glyph-name="R" unicode="R" horiz-adv-x="688" 
d="M640 0l-64.002 0.000976562l-89 237c-11.333 32 -27 53.5 -47 64.5s-49 16.5 -87 16.5h-199v-318h-62v712h275c74 0 131.333 -16.833 172 -50.5s61 -81.834 61 -144.501c0 -46 -12.167 -84.667 -36.5 -116s-59.166 -53.333 -104.499 -66
c20.667 -3.33301 38.334 -12 53.001 -26s27 -34.667 37 -62zM362.998 372.001c116.667 0 175 48.667 175 146c0 94 -58.333 141 -175 141h-210v-287h210z" />
    <glyph glyph-name="S" unicode="S" horiz-adv-x="613" 
d="M164.5 14.5c-43 15 -81.166 38.499 -114.499 70.499l26 49c35.333 -31.333 71.166 -53.666 107.499 -66.999s79.5 -20 129.5 -20c60 0 106.667 12.333 140 37s50 59.334 50 104.001c0 26 -8.16699 47.167 -24.5 63.5s-37 29.166 -62 38.499s-58.167 18.666 -99.5 27.999
c-54.667 12 -99.167 24.5 -133.5 37.5s-63.166 32.5 -86.499 58.5s-35 60.667 -35 104c0 40 10.333 75.333 31 106s50.167 54.334 88.5 71.001s82.833 25 133.5 25c48.667 0 93.667 -7.83301 135 -23.5s77 -38.834 107 -69.501l-26 -49c-33.333 30 -67.333 52 -102 66
s-72.667 21 -114 21c-60 0 -106.833 -13 -140.5 -39s-50.5 -61.667 -50.5 -107c0 -39.333 14.667 -68.666 44 -87.999s72.333 -35.666 129 -48.999l29 -7c53.333 -12.667 95.666 -25 126.999 -37s58 -30 80 -54s33 -56 33 -96c0 -38.667 -10.333 -72.834 -31 -102.501
s-50.167 -52.667 -88.5 -69s-82.833 -24.5 -133.5 -24.5c-56 0 -105.5 7.5 -148.5 22.5z" />
    <glyph glyph-name="T" unicode="T" horiz-adv-x="596" 
d="M267 0v658h-255v54h572v-54h-255v-658h-62z" />
    <glyph glyph-name="U" unicode="U" horiz-adv-x="726" 
d="M157.5 63.5c-47 47.667 -70.5 117.834 -70.5 210.501v438h62v-445c0 -146.667 71.667 -220 215 -220c70 0 123.167 18.5 159.5 55.5s54.5 91.833 54.5 164.5v445h61v-438c0 -92.667 -23.333 -162.834 -70 -210.501s-115 -71.5 -205 -71.5
c-90.667 0 -159.5 23.833 -206.5 71.5z" />
    <glyph glyph-name="V" unicode="V" horiz-adv-x="687" 
d="M616 712h64l-308 -712h-57l-308 712h65l272 -632z" />
    <glyph glyph-name="W" unicode="W" horiz-adv-x="1107" 
d="M1008 712h62l-248 -712h-54l-214 613l-215 -613h-53l-248 712h62l214 -626l216 626l49 -1l215 -623z" />
    <glyph glyph-name="X" unicode="X" horiz-adv-x="644" 
d="M358 365l270 -365h-73l-233 317l-231 -317h-75l271 366l-256 346h73l219 -300l219 300h72z" />
    <glyph glyph-name="Y" unicode="Y" horiz-adv-x="597" 
d="M604 712l-275 -419v-293h-62v295l-275 417h72l235 -363l235 363h70z" />
    <glyph glyph-name="Z" unicode="Z" horiz-adv-x="590" 
d="M116 53h436v-53h-508v45l426 614h-426v53h498v-45z" />
    <glyph glyph-name="bracketleft" unicode="[" horiz-adv-x="300" 
d="M112 -182v894h182v-50h-121v-793h121v-51h-182z" />
    <glyph glyph-name="backslash" unicode="\" horiz-adv-x="272" 
d="M233 -54l-255 802h60l256 -802h-61z" />
    <glyph glyph-name="bracketright" unicode="]" horiz-adv-x="300" 
d="M188 -182h-182v51h121v793h-121v50h182v-894z" />
    <glyph glyph-name="asciicircum" unicode="^" horiz-adv-x="600" 
d="M553 141h-55l-198 427l-198 -427h-54l227 493h50z" />
    <glyph glyph-name="underscore" unicode="_" horiz-adv-x="505" 
d="M6 -43v43h493v-43h-493z" />
    <glyph glyph-name="grave" unicode="`" horiz-adv-x="300" 
d="M128 556l-132 203h78l101 -203h-47z" />
    <glyph glyph-name="a" unicode="a" horiz-adv-x="591" 
d="M508 501v-501.002h-61v96c-14.667 -33.333 -36.834 -58.833 -66.501 -76.5s-65.167 -26.5 -106.5 -26.5c-44.667 0 -83.834 10.5 -117.501 31.5s-59.667 51 -78 90s-27.5 84.5 -27.5 136.5s9.33301 97.833 28 137.5s44.834 70.334 78.501 92.001s72.5 32.5 116.5 32.5
c40.667 0 75.834 -8.66699 105.501 -26s52.167 -42.666 67.5 -75.999v90h61zM404 100.998c28.667 36 43.002 86.668 43.002 152.001c0 66 -14.333 117 -43 153s-69.334 54 -122.001 54s-93.667 -18.5 -123 -55.5s-44 -88.167 -44 -153.5
c0 -64.667 14.667 -114.834 44 -150.501s70.666 -53.5 123.999 -53.5c52 0 92.333 18 121 54z" />
    <glyph glyph-name="b" unicode="b" horiz-adv-x="591" 
d="M434 481c34 -21.333 60.1689 -51.332 78.502 -89.999s27.5 -84 27.5 -136s-9.33301 -97.833 -28 -137.5s-44.834 -70.334 -78.501 -92.001s-72.5 -32.5 -116.5 -32.5c-41.333 0 -76.833 9 -106.5 27s-51.834 44 -66.501 78v-98h-61v736h60v-329
c14.667 34.667 37 61 67 79s65.667 27 107 27c44 0 83 -10.667 117 -32zM432.002 102.001c29.333 36.667 44.001 87.667 44.001 153c0 64.667 -14.667 115 -44 151s-70.333 54 -123 54s-93.334 -18 -122.001 -54s-43 -87 -43 -153s14.333 -116.833 43 -152.5
s69.667 -53.5 123 -53.5c52 0 92.667 18.333 122 55z" />
    <glyph glyph-name="c" unicode="c" horiz-adv-x="490" 
d="M162 25c-35.333 21.333 -62.667 51.499 -82 90.499s-29 84.167 -29 135.5c0 52 9.66699 97.833 29 137.5s47 70.334 83 92.001s77.667 32.5 125 32.5c34 0 66.5 -5.83301 97.5 -17.5s56.5 -27.834 76.5 -48.501l-24 -48c-26 21.333 -50.833 36.833 -74.5 46.5
s-48.167 14.5 -73.5 14.5c-54 0 -96.667 -18.5 -128 -55.5s-47 -88.167 -47 -153.5c0 -64 15.5 -114 46.5 -150s73.833 -54 128.5 -54c25.333 0 49.833 4.83301 73.5 14.5s48.5 24.834 74.5 45.501l24 -47c-21.333 -20.667 -47.833 -37 -79.5 -49s-63.834 -18 -96.501 -18
c-47.333 0 -88.666 10.667 -123.999 32z" />
    <glyph glyph-name="d" unicode="d" horiz-adv-x="591" 
d="M508 736v-736.002h-61v96c-14.667 -33.333 -36.834 -58.833 -66.501 -76.5s-65.167 -26.5 -106.5 -26.5c-44 0 -82.833 10.833 -116.5 32.5s-59.834 52.334 -78.501 92.001s-28 85.5 -28 137.5s9.16699 97.5 27.5 136.5s44.333 69 78 90s72.834 31.5 117.501 31.5
c40.667 0 75.834 -8.66699 105.501 -26s52.167 -42.666 67.5 -75.999v325h61zM404 100.998c28.667 36 42.998 86.668 42.998 152.001s-14.333 116.166 -43 152.499s-69 54.5 -121 54.5c-53.333 0 -94.666 -18 -123.999 -54s-44 -86.333 -44 -151
c0 -65.333 14.667 -116.333 44 -153s70.333 -55 123 -55s93.334 18 122.001 54z" />
    <glyph glyph-name="e" unicode="e" horiz-adv-x="543" 
d="M115 258v-3.00098c0 -67.333 15.5 -118.833 46.5 -154.5s76.167 -53.5 135.5 -53.5c60 0 115 20.667 165 62l24 -48c-22 -20.667 -50 -37.167 -84 -49.5s-69 -18.5 -105 -18.5c-76 0 -136 23 -180 69s-66 109.333 -66 190c0 51.333 9.83301 96.833 29.5 136.5
s47.167 70.334 82.5 92.001s76 32.5 122 32.5c66 0 117.5 -21.333 154.5 -64s55.5 -102 55.5 -178v-13h-380zM173 421.499c-28.667 -27.667 -46.667 -66.5 -54 -116.5h318c-4 51.333 -19 90.5 -45 117.5s-61.667 40.5 -107 40.5c-46 0 -83.333 -13.833 -112 -41.5z" />
    <glyph glyph-name="f" unicode="f" horiz-adv-x="324" 
d="M190 662c-15.333 -15.333 -23 -42.667 -23 -82v-79h129v-49h-129v-452h-61v452h-98v49h98v90c0 50 12.333 87.333 37 112s58.667 37 102 37c20 0 40.667 -2.66699 62 -8v-55c-18 5.33301 -35 8 -51 8c-28.667 0 -50.667 -7.66699 -66 -23z" />
    <glyph glyph-name="g" unicode="g" horiz-adv-x="595" 
d="M512 501l0.000976562 -503.003c0 -72.667 -18 -127.667 -54 -165s-89 -56 -159 -56c-74.667 0 -139.667 18 -195 54l12 53c32.667 -19.333 62.667 -33 90 -41s58.666 -12 93.999 -12c50 0 87.833 13.667 113.5 41s38.5 67.333 38.5 120v129
c-15.333 -34 -38 -60.167 -68 -78.5s-66 -27.5 -108 -27.5c-44 0 -83 10.5 -117 31.5s-60.5 50.333 -79.5 88s-28.5 80.834 -28.5 129.501c0 49.333 9.5 92.833 28.5 130.5s45.5 66.834 79.5 87.501s73 31 117 31c42 0 77.833 -8.66699 107.5 -26
s52.167 -42.666 67.5 -75.999v90h61zM406.501 121.997c29.667 34.667 44.5 82 44.5 142c0 60.667 -14.833 108.5 -44.5 143.5s-70.5 52.5 -122.5 52.5c-52.667 0 -94 -17.5 -124 -52.5s-45 -82.833 -45 -143.5s15 -108.167 45 -142.5s71.333 -51.5 124 -51.5
c52 0 92.833 17.333 122.5 52z" />
    <glyph glyph-name="h" unicode="h" horiz-adv-x="578" 
d="M497 319l-0.000976562 -319.001h-61v315c0 50 -10.167 86.667 -30.5 110s-52.166 35 -95.499 35c-50 0 -90.333 -15.333 -121 -46s-46 -72 -46 -124v-290h-60v736h60v-322c16 32.667 39 57.334 69 74.001s64.667 25 104 25c120.667 0 181 -64.667 181 -194z" />
    <glyph glyph-name="i" unicode="i" horiz-adv-x="228" 
d="M83 0v501h60v-501h-60zM74 708h81v-78h-81v78z" />
    <glyph glyph-name="j" unicode="j" horiz-adv-x="228" 
d="M-3 -164c27.333 0 48.5 7.66797 63.5 23.001s22.5 42.666 22.5 81.999v560h60v-571c0 -50 -12 -87.333 -36 -112s-57 -37 -99 -37c-18.667 0 -38.667 2.66699 -60 8v55c18 -5.33301 34.333 -8 49 -8zM74 708.001h81v-78h-81v78z" />
    <glyph glyph-name="k" unicode="k" horiz-adv-x="498" 
d="M502 0h-83l-276 244v-244h-60v736h60v-468l252 233h79l-262 -241z" />
    <glyph glyph-name="l" unicode="l" horiz-adv-x="228" 
d="M83 0v736h60v-736h-60z" />
    <glyph glyph-name="m" unicode="m" horiz-adv-x="869" 
d="M789 319l-0.00390625 -318.997h-61v315c0 50.667 -9 87.5 -27 110.5s-46.667 34.5 -86 34.5c-46 0 -82.167 -15.333 -108.5 -46s-39.5 -72.334 -39.5 -125.001v-289h-61v315c0 50.667 -9.16699 87.5 -27.5 110.5s-47.166 34.5 -86.499 34.5
c-45.333 0 -81.5 -15.333 -108.5 -46s-40.5 -72.334 -40.5 -125.001v-289h-60v362c0 52 -2.66699 98.333 -8 139h58l8 -90c14 33.333 34.833 58.666 62.5 75.999s59.834 26 96.501 26c80.667 0 132.334 -32.667 155.001 -98c14 30.667 35.833 54.667 65.5 72
s63.834 26 102.501 26c110.667 0 166 -64.667 166 -194z" />
    <glyph glyph-name="n" unicode="n" horiz-adv-x="578" 
d="M497 319l-0.000976562 -319h-61v315c0 50 -10.167 86.667 -30.5 110s-52.166 35 -95.499 35c-50 0 -90.333 -15.333 -121 -46s-46 -72 -46 -124v-290h-60v362c0 52 -2.66699 98.333 -8 139h58l8 -92c15.333 34 38.333 59.833 69 77.5s66 26.5 106 26.5
c120.667 0 181 -64.667 181 -194z" />
    <glyph glyph-name="o" unicode="o" horiz-adv-x="562" 
d="M160.5 25c-35 21.333 -62 51.666 -81 90.999s-28.5 85 -28.5 137s9.5 97.667 28.5 137s46 69.666 81 90.999s75.5 32 121.5 32c45.333 0 85.333 -10.667 120 -32s61.5 -51.666 80.5 -90.999s28.5 -85 28.5 -137s-9.5 -97.667 -28.5 -137s-45.833 -69.666 -80.5 -90.999
s-74.667 -32 -120 -32c-46 0 -86.5 10.667 -121.5 32zM404.5 100.5c29 35.667 43.5 86.5 43.5 152.5c0 65.333 -14.667 116.166 -44 152.499s-70 54.5 -122 54.5c-52.667 0 -93.667 -18.167 -123 -54.5s-44 -87.166 -44 -152.499c0 -66.667 14.333 -117.667 43 -153
s69.667 -53 123 -53s94.5 17.833 123.5 53.5z" />
    <glyph glyph-name="p" unicode="p" horiz-adv-x="591" 
d="M433.5 480.5c33.667 -21.667 59.834 -52.333 78.501 -92s28 -85.5 28 -137.5s-9.16699 -97.333 -27.5 -136s-44.5 -68.667 -78.5 -90s-73 -32 -117 -32c-42 0 -77.833 9.16699 -107.5 27.5s-51.834 44.833 -66.501 79.5v-316h-60v578c0 52 -2.66699 98.333 -8 139h58
l8 -98c14.667 35.333 37.167 62.5 67.5 81.5s66.5 28.5 108.5 28.5c44 0 82.833 -10.833 116.5 -32.5zM432 100.501c29.333 35.667 43.999 85.833 43.999 150.5c0 65.333 -14.667 116.5 -44 153.5s-70 55.5 -122 55.5c-53.333 0 -94.333 -18 -123 -54s-43 -87 -43 -153
c0 -65.333 14.333 -116 43 -152s69.334 -54 122.001 -54s93.667 17.833 123 53.5z" />
    <glyph glyph-name="q" unicode="q" horiz-adv-x="591" 
d="M515 501c-4.66699 -42.667 -6.99902 -89 -6.99902 -139v-578h-61v312c-14.667 -33.333 -36.834 -58.833 -66.501 -76.5s-65.167 -26.5 -106.5 -26.5c-44.667 0 -83.834 10.5 -117.501 31.5s-59.667 51 -78 90s-27.5 84.5 -27.5 136.5s9.33301 97.833 28 137.5
s44.834 70.334 78.501 92.001s72.5 32.5 116.5 32.5c42.667 0 79 -9.33301 109 -28s52.333 -45.334 67 -80.001l9 96h56zM404.001 101c28.667 36 43.002 86.668 43.002 152.001c0 66 -14.333 117 -43 153s-69.334 54 -122.001 54s-93.667 -18.5 -123 -55.5
s-44 -88.167 -44 -153.5c0 -64.667 14.667 -114.834 44 -150.501s70.666 -53.5 123.999 -53.5c52 0 92.333 18 121 54z" />
    <glyph glyph-name="r" unicode="r" horiz-adv-x="349" 
d="M343 509l-3.00098 -55c-12.667 2.66699 -28 4 -46 4c-50.667 0 -88.5 -16.167 -113.5 -48.5s-37.5 -70.833 -37.5 -115.5v-294h-60v362c0 52 -2.66699 98.333 -8 139h58l8 -93c12.667 34 33.167 60 61.5 78s60.5 27 96.5 27c16.667 0 31.334 -1.33301 44.001 -4z" />
    <glyph glyph-name="s" unicode="s" horiz-adv-x="494" 
d="M53 60l22 46.999c26.667 -22 53.5 -37.667 80.5 -47s58.167 -14 93.5 -14c41.333 0 72.833 7.16699 94.5 21.5s32.5 35.166 32.5 62.499c0 22.667 -7.16699 40.5 -21.5 53.5s-37.833 23.5 -70.5 31.5l-85 19c-40 9.33301 -71.5 26 -94.5 50s-34.5 52 -34.5 84
c0 44 16.833 79.167 50.5 105.5s78.5 39.5 134.5 39.5c35.333 0 68.166 -5.66699 98.499 -17s55.5 -27.666 75.5 -48.999l-23 -47c-46 40 -96.333 60 -151 60c-38.667 0 -68.667 -7.66699 -90 -23s-32 -36.666 -32 -63.999c0 -22.667 6.83301 -41 20.5 -55
s34.834 -24.333 63.501 -31l86 -21c90 -20 135 -64.333 135 -133c0 -42 -17.333 -75.833 -52 -101.5s-81.334 -38.5 -140.001 -38.5c-81.333 0 -145.666 22.333 -192.999 67z" />
    <glyph glyph-name="t" unicode="t" horiz-adv-x="337" 
d="M168 452v-298c0 -40 7.66699 -67.667 23 -83s38 -23 68 -23c18.667 0 36.667 3 54 9v-55c-21.333 -5.33301 -43 -8 -65 -8c-44 0 -78.5 12.333 -103.5 37s-37.5 61.667 -37.5 111v310h-99v49h99v133l61 23v-156h148v-49h-148z" />
    <glyph glyph-name="u" unicode="u" horiz-adv-x="569" 
d="M486 501l0.000976562 -501.001h-59v91c-16 -32 -38.667 -56.333 -68 -73s-63 -25 -101 -25c-58.667 0 -103 16.333 -133 49s-45 81 -45 145v314h60v-310c0 -49.333 10 -85.666 30 -108.999s51 -35 93 -35c49.333 0 88.666 15.5 117.999 46.5s44 72.167 44 123.5v284h61z
" />
    <glyph glyph-name="v" unicode="v" horiz-adv-x="525" 
d="M446 501h62l-215 -501h-63l-212 501h65l181 -440z" />
    <glyph glyph-name="w" unicode="w" horiz-adv-x="863" 
d="M767 501h62l-182 -501h-63l-152 423l-153 -423h-64l-181 501h65l148 -428l156 428h61l151 -428z" />
    <glyph glyph-name="x" unicode="x" horiz-adv-x="528" 
d="M302 258l206 -258h-75l-169 211l-167 -211h-76l206 258l-195 243h76l156 -196l156 196h76z" />
    <glyph glyph-name="y" unicode="y" horiz-adv-x="525" 
d="M508 501l-236 -552.998c-23.333 -54.667 -52.5 -94.834 -87.5 -120.501s-78.833 -43.834 -131.5 -54.501l-12 48c48 11.333 84.167 26 108.5 44s44.833 46.333 61.5 85l21 49l-214 502h65l181 -440l182 440h62z" />
    <glyph glyph-name="z" unicode="z" horiz-adv-x="515" 
d="M129 50h340v-50h-418v42l333 410h-321v49h395v-46z" />
    <glyph glyph-name="braceleft" unicode="{" horiz-adv-x="337" 
d="M189.5 298.5c-13.667 -17 -30.5 -27.834 -50.5 -32.501c20 -4.66699 36.833 -15.667 50.5 -33s20.5 -40.333 20.5 -69v-218c0 -25.333 5.83301 -44.5 17.5 -57.5s27.834 -19.5 48.501 -19.5h55v-51h-57c-40.667 0 -71.667 10.667 -93 32s-32 52.333 -32 93v213
c0 28 -5.33301 48.833 -16 62.5s-30 23.167 -58 28.5l-23 5v28l23 4c28 5.33301 47.333 14.833 58 28.5s16 34.5 16 62.5v212c0 40 11.5 70.833 34.5 92.5s53.167 32.5 90.5 32.5h57v-50h-55c-20.667 0 -36.834 -6.66699 -48.501 -20s-17.5 -32.666 -17.5 -57.999v-216
c0 -29.333 -6.83301 -52.5 -20.5 -69.5z" />
    <glyph glyph-name="bar" unicode="|" horiz-adv-x="256" 
d="M97 -182v894h61v-894h-61z" />
    <glyph glyph-name="braceright" unicode="}" horiz-adv-x="338" 
d="M286 280v-27.999l-24 -5c-28 -5.33301 -47.333 -14.833 -58 -28.5s-16 -34.5 -16 -62.5v-213c0 -40.667 -10.5 -71.667 -31.5 -93s-51.833 -32 -92.5 -32h-58v51h56c20.667 0 36.667 6.5 48 19.5s17 32.167 17 57.5v218c0 28.667 7 51.667 21 69s30.667 28.333 50 33
c-20 4.66699 -36.833 15.5 -50.5 32.5s-20.5 40.167 -20.5 69.5v216c0 25.333 -5.83301 44.666 -17.5 57.999s-27.5 20 -47.5 20h-56v50h58c37.333 0 67.333 -10.833 90 -32.5s34 -52.5 34 -92.5v-212c0 -28 5.33301 -48.833 16 -62.5s30 -23.167 58 -28.5z" />
    <glyph glyph-name="asciitilde" unicode="~" horiz-adv-x="600" 
d="M546 316c-28 -64 -70.665 -95.999 -127.998 -95.999c-22 0 -43.333 4.16699 -64 12.5s-45.334 20.166 -74.001 35.499c-21.333 12 -39.166 21 -53.499 27s-28.166 9 -41.499 9c-22.667 0 -40.834 -6 -54.501 -18s-24.834 -29 -33.501 -51l-43 23
c26.667 63.333 69.334 95 128.001 95c22 0 43 -4 63 -12s45 -19.667 75 -35c21.333 -12 39.166 -21 53.499 -27s28.166 -9 41.499 -9c22 0 39.833 6 53.5 18s25.167 28.333 34.5 49z" />
    <glyph glyph-name="uni00A0" unicode="&#xa0;" horiz-adv-x="255" 
 />
    <glyph glyph-name="exclamdown" unicode="&#xa1;" horiz-adv-x="222" 
d="M69 404v86h85v-86h-85zM92 315h38l19 -497h-77z" />
    <glyph glyph-name="cent" unicode="&#xa2;" horiz-adv-x="600" 
d="M507 60c-18.667 -18.667 -41.499 -33.667 -68.499 -45s-55.5 -18.333 -85.5 -21v-113h-55v114c-61.333 8 -110.333 35.167 -147 81.5s-55 104.5 -55 174.5c0 70.667 18.5 129.5 55.5 176.5s85.833 74.833 146.5 83.5v114h55v-113c30.667 -2 59.5 -8.66699 86.5 -20
s49.5 -26.333 67.5 -45l-23 -48c-44.667 36 -88.334 56 -131.001 60v-411c22 2 43.5 7.83301 64.5 17.5s43.167 23.5 66.5 41.5zM196.001 114.5c24 -35 57.999 -56.5 101.999 -64.5v407c-43.333 -8.66699 -77.166 -31 -101.499 -67s-36.5 -82.333 -36.5 -139
c0 -56 12 -101.5 36 -136.5z" />
    <glyph glyph-name="sterling" unicode="&#xa3;" horiz-adv-x="600" 
d="M198.5 113.5c-11 -25 -29.5 -44.833 -55.5 -59.5h418v-54h-514v43c38 17.333 65.333 37.833 82 61.5s25 53.834 25 90.501v136h-107v51h107v146c0 59.333 16.667 106.166 50 140.499s79.333 51.5 138 51.5c41.333 0 81 -8 119 -24s72 -39 102 -69l-26 -49
c-28 28 -58.667 49.667 -92 65s-67.333 23 -102 23c-41.333 0 -73 -12.333 -95 -37s-33 -60 -33 -106v-141h188v-51h-188v-116c0 -42.667 -5.5 -76.5 -16.5 -101.5z" />
    <glyph glyph-name="currency" unicode="&#xa4;" horiz-adv-x="600" 
d="M543 247c0 -58 -17.667 -110.002 -53 -156.002l53 -55l-40 -40l-53 55c-20.667 -17.333 -43.834 -30.666 -69.501 -39.999s-52.167 -14 -79.5 -14c-56.667 0 -107.667 18.333 -153 55l-54 -56l-39 40l55 56c-34.667 45.333 -52 97 -52 155s17.333 109.667 52 155l-55 57
l39 40l54 -57c44.667 37.333 95.667 56 153 56c27.333 0 53.833 -4.66699 79.5 -14s48.834 -22.666 69.501 -39.999l53 55l40 -40l-53 -55c35.333 -46 53 -98.333 53 -157zM392.5 76.498c28.333 17.667 50.833 41.5 67.5 71.5s25 63 25 99s-8.33301 69 -25 99
s-39.167 53.833 -67.5 71.5s-59.166 26.5 -92.499 26.5c-34 0 -65.167 -8.83301 -93.5 -26.5s-50.666 -41.5 -66.999 -71.5s-24.5 -63 -24.5 -99s8.16699 -69 24.5 -99s38.666 -53.833 66.999 -71.5s59.5 -26.5 93.5 -26.5c33.333 0 64.166 8.83301 92.499 26.5z" />
    <glyph glyph-name="yen" unicode="&#xa5;" horiz-adv-x="600" 
d="M603 712l-239 -328h164v-50h-197v-102h197v-50h-197v-182h-62v182h-197v50h197v102h-197v50h165l-240 328h72l231 -321l231 321h72z" />
    <glyph glyph-name="brokenbar" unicode="&#xa6;" horiz-adv-x="256" 
d="M97 375v337h61v-337h-61zM97 -182v338h61v-338h-61z" />
    <glyph glyph-name="section" unicode="&#xa7;" horiz-adv-x="529" 
d="M470 119c-10 -22 -23.6689 -40.9971 -41.002 -56.9971c10.667 -22 16 -48 16 -78c0 -52.667 -17 -94.667 -51 -126s-79.333 -47 -136 -47c-77.333 0 -141.333 22 -192 66l24 47c28.667 -21.333 55.834 -36.5 81.501 -45.5s54.5 -13.5 86.5 -13.5
c40 0 71.167 10.167 93.5 30.5s33.5 49.5 33.5 87.5c0 30 -7.66699 55 -23 75s-41 39 -77 57l-87 44c-56 27.333 -95.667 55.166 -119 83.499s-35 62.166 -35 101.499c0 24 5 47.167 15 69.5s23.333 41.166 40 56.499c-9.33301 20.667 -14 46 -14 76
c0 52.667 17.167 94.667 51.5 126s80.166 47 137.499 47c31.333 0 61.833 -6 91.5 -18s54.167 -28 73.5 -48l-23 -47c-25.333 20.667 -49.666 35.834 -72.999 45.501s-46.666 14.5 -69.999 14.5c-40.667 0 -72 -10.167 -94 -30.5s-33 -49.833 -33 -88.5
c0 -29.333 7.33301 -53.833 22 -73.5s40 -38.834 76 -57.501l87 -44c56 -29.333 95.667 -58 119 -86s35 -61.333 35 -100c0 -22.667 -5 -45 -15 -67zM397.998 105.003c18 24.667 27 51.667 27 81c0 24.667 -8.5 46.667 -25.5 66s-46.5 40 -88.5 62l-83 44
c-44.667 24 -77 46.333 -97 67c-17.333 -22.667 -26 -49.667 -26 -81c0 -24 8.33301 -45.5 25 -64.5s46.334 -39.833 89.001 -62.5l82 -44c43.333 -23.333 75.666 -46 96.999 -68z" />
    <glyph glyph-name="dieresis" unicode="&#xa8;" horiz-adv-x="300" 
d="M30 695h75v-74h-75v74zM198 695h75v-74h-75v74z" />
    <glyph glyph-name="copyright" unicode="&#xa9;" horiz-adv-x="823" 
d="M229 43c-55.333 32 -98.833 75.499 -130.5 130.499s-47.5 116.167 -47.5 183.5s15.833 128.333 47.5 183s75 97.834 130 129.501s116.167 47.5 183.5 47.5s128.5 -15.833 183.5 -47.5s98.333 -75 130 -130s47.5 -115.833 47.5 -182.5
c0 -67.333 -15.833 -128.5 -47.5 -183.5s-75.167 -98.5 -130.5 -130.5s-116.333 -48 -183 -48s-127.667 16 -183 48zM573.5 77.499c48.333 28.333 86.5 67 114.5 116s42 103.5 42 163.5c0 59.333 -14 113.5 -42 162.5s-66.167 87.5 -114.5 115.5s-102.166 42 -161.499 42
s-113.333 -14 -162 -42s-87 -66.5 -115 -115.5s-42 -103.167 -42 -162.5c0 -60 14 -114.5 42 -163.5s66.333 -87.667 115 -116s102.667 -42.5 162 -42.5s113.166 14.167 161.499 42.5zM271.5 196.999c-36.333 39.333 -54.501 92.667 -54.501 160
c0 66.667 18.167 119.5 54.5 158.5s85.166 58.5 146.499 58.5c27.333 0 54.333 -5 81 -15s49.667 -23.667 69 -41l-22 -43c-21.333 17.333 -42.166 30 -62.499 38s-41.5 12 -63.5 12c-45.333 0 -80.166 -14.5 -104.499 -43.5s-36.5 -70.5 -36.5 -124.5
c0 -54.667 12.167 -96.667 36.5 -126s59.166 -44 104.499 -44c22.667 0 44 4 64 12s40.667 20.667 62 38l22 -43c-19.333 -17.333 -42.333 -31 -69 -41s-53.667 -15 -81 -15c-61.333 0 -110.166 19.667 -146.499 59z" />
    <glyph glyph-name="ordfeminine" unicode="&#xaa;" horiz-adv-x="331" 
d="M253.5 689c19.667 -18.667 29.501 -48.667 29.501 -90v-182h-56v46c-8 -16 -19.833 -28.5 -35.5 -37.5s-33.167 -13.5 -52.5 -13.5c-30 0 -55 8.66699 -75 26s-30 38.333 -30 63c0 22 5.5 39.333 16.5 52s29.333 21.667 55 27s61.167 8 106.5 8h15v18c0 24 -5 41 -15 51
s-25.667 15 -47 15c-36 0 -69 -10.667 -99 -32l-19 42c16 10.667 34.667 19.167 56 25.5s42.666 9.5 63.999 9.5c38 0 66.833 -9.33301 86.5 -28zM204.001 478c15.333 15.333 22.999 35.333 22.999 60v17h-11c-34.667 0 -61 -1.66699 -79 -5s-30.167 -8.5 -36.5 -15.5
s-9.5 -16.5 -9.5 -28.5c0 -14 5.33301 -26 16 -36s24.334 -15 41.001 -15c22 0 40.667 7.66699 56 23z" />
    <glyph glyph-name="guillemotleft" unicode="&#xab;" horiz-adv-x="420" 
d="M159 89l-131 178l133 180h60l-128 -179l125 -179h-59zM330 89l-131 178l133 180h60l-128 -179l125 -179h-59z" />
    <glyph glyph-name="logicalnot" unicode="&#xac;" horiz-adv-x="600" 
d="M546 418v-262h-48v212h-444v50h492z" />
    <glyph glyph-name="uni00AD" unicode="&#xad;" horiz-adv-x="424" 
d="M75 242v53h274v-53h-274z" />
    <glyph glyph-name="registered" unicode="&#xae;" horiz-adv-x="823" 
d="M595.5 669.5c55 -31.667 98.333 -75.001 130 -130.001s47.5 -115.833 47.5 -182.5c0 -67.333 -15.833 -128.5 -47.5 -183.5s-75.167 -98.5 -130.5 -130.5s-116.333 -48 -183 -48s-127.667 16 -183 48s-98.833 75.5 -130.5 130.5s-47.5 116.167 -47.5 183.5
s15.833 128.333 47.5 183s75 97.834 130 129.501s116.167 47.5 183.5 47.5s128.5 -15.833 183.5 -47.5zM573.5 77.499c48.333 28.333 86.5 67 114.5 116s42 103.5 42 163.5c0 59.333 -14 113.5 -42 162.5s-66.167 87.5 -114.5 115.5s-102.166 42 -161.499 42
s-113.333 -14 -162 -42s-87 -66.5 -115 -115.5s-42 -103.167 -42 -162.5c0 -60 14 -114.5 42 -163.5s66.333 -87.667 115 -116s102.667 -42.5 162 -42.5s113.166 14.167 161.499 42.5zM524 278.999l83.999 -136h-65l-83 136c-9.33301 15.333 -19.333 25.833 -30 31.5
s-25.334 8.5 -44.001 8.5h-61v-176h-57v426h171c45.333 0 80.5 -10.833 105.5 -32.5s37.5 -52.167 37.5 -91.5c0 -33.333 -9.66699 -60.333 -29 -81s-46.666 -33.667 -81.999 -39c20.667 -6 38.334 -21.333 53.001 -46zM431.999 367.999c31.333 0 54.5 6.16699 69.5 18.5
s22.5 31.5 22.5 57.5c0 26.667 -7.33301 46.167 -22 58.5s-38 18.5 -70 18.5h-107v-153h107z" />
    <glyph glyph-name="macron" unicode="&#xaf;" horiz-adv-x="300" 
d="M2 632v52h299v-52h-299z" />
    <glyph glyph-name="degree" unicode="&#xb0;" horiz-adv-x="368" 
d="M111 446c-22 12.667 -39.5 30 -52.5 52s-19.5 46.667 -19.5 74s6.5 52 19.5 74s30.5 39.333 52.5 52s46.333 19 73 19c41.333 0 75.666 -13.833 102.999 -41.5s41 -62.167 41 -103.5s-13.667 -75.833 -41 -103.5s-61.666 -41.5 -102.999 -41.5
c-26.667 0 -51 6.33301 -73 19zM251.5 501.5c17.667 18.333 26.5 41.833 26.5 70.5s-8.83301 52.334 -26.5 71.001s-40.167 28 -67.5 28c-28 0 -50.667 -9.33301 -68 -28s-26 -42.334 -26 -71.001c0 -29.333 8.66699 -53 26 -71s40 -27 68 -27
c27.333 0 49.833 9.16699 67.5 27.5z" />
    <glyph glyph-name="plusminus" unicode="&#xb1;" horiz-adv-x="600" 
d="M325 351h221v-50h-221v-182h-50v182h-221v50h221v182h50v-182zM54 0v51h492v-51h-492z" />
    <glyph glyph-name="uni00B2" unicode="&#xb2;" horiz-adv-x="380" 
d="M332 333v-47.999h-277v43l147 163c19.333 21.333 33.5 40.666 42.5 57.999s13.5 34.666 13.5 51.999c0 22 -6.5 38.667 -19.5 50s-30.833 17 -53.5 17c-18 0 -37.5 -4.33301 -58.5 -13s-41.167 -20.667 -60.5 -36l-27 42c19.333 16.667 42.166 30 68.499 40
s53.5 15 81.5 15c40 0 71.167 -10.333 93.5 -31s33.5 -48 33.5 -82c0 -24.667 -5.66699 -48.167 -17 -70.5s-29.666 -47.166 -54.999 -74.499l-116 -125h204z" />
    <glyph glyph-name="uni00B3" unicode="&#xb3;" horiz-adv-x="380" 
d="M304 468c13.333 -17.333 20.0039 -39.666 20.0039 -66.999c0 -37.333 -12.667 -66.5 -38 -87.5s-59.333 -31.5 -102 -31.5c-28 0 -55.333 5.16699 -82 15.5s-49.334 23.833 -68.001 40.5l27 41c20 -15.333 40.333 -27.333 61 -36s40.667 -13 60 -13
c27.333 0 48.666 6 63.999 18s23 30.667 23 56c0 49.333 -31.333 74 -94 74h-51v47h41c29.333 0 52.166 6.5 68.499 19.5s24.5 31.833 24.5 56.5c0 22 -6.5 38.667 -19.5 50s-30.5 17 -52.5 17c-38.667 0 -78.667 -16.333 -120 -49l-27 42
c19.333 16 42.166 29.167 68.499 39.5s52.833 15.5 79.5 15.5c40.667 0 72.167 -10.333 94.5 -31s33.5 -47.334 33.5 -80.001c0 -24.667 -6.16699 -45.5 -18.5 -62.5s-28.5 -29.833 -48.5 -38.5c24 -6.66699 42.667 -18.667 56 -36z" />
    <glyph glyph-name="acute" unicode="&#xb4;" horiz-adv-x="300" 
d="M175 556h-47l101 203h78z" />
    <glyph glyph-name="uni00B5" unicode="&#xb5;" horiz-adv-x="569" 
d="M486 501v-501.001h-59v91c-16 -32 -38.667 -56.333 -68 -73s-63 -25 -101 -25c-51.333 0 -90.666 12.667 -117.999 38v-247h-60v717h60v-310c0 -49.333 10 -85.666 30 -108.999s51 -35 93 -35c49.333 0 88.666 15.5 117.999 46.5s44 72.167 44 123.5v284h61z" />
    <glyph glyph-name="paragraph" unicode="&#xb6;" horiz-adv-x="574" 
d="M482 -182l-59 0.00195312v841h-123v-841h-58v508c-38 0 -71.667 8.16699 -101 24.5s-51.833 39.166 -67.5 68.499s-23.5 62.666 -23.5 99.999c0 36.667 8 69.667 24 99s38.667 52.333 68 69s63.333 25 102 25h238v-894z" />
    <glyph glyph-name="periodcentered" unicode="&#xb7;" horiz-adv-x="222" 
d="M69 311h85v-87h-85v87z" />
    <glyph glyph-name="cedilla" unicode="&#xb8;" horiz-adv-x="300" 
d="M246.5 -59c15 -12 22.5 -29.333 22.5 -52c0 -24 -10 -43.667 -30 -59s-47.333 -23 -82 -23c-14.667 0 -30 1.5 -46 4.5s-29.667 7.83301 -41 14.5l14 39c22 -9.33301 47 -14 75 -14c19.333 0 33.833 3.33301 43.5 10s14.5 16 14.5 28c0 9.33301 -3 16.5 -9 21.5
s-15 7.5 -27 7.5c-12.667 0 -29 -3.33301 -49 -10l-19 15l10 97h51l-7 -64c9.33301 2 18.333 3 27 3c20 0 37.5 -6 52.5 -18z" />
    <glyph glyph-name="uni00B9" unicode="&#xb9;" horiz-adv-x="380" 
d="M243 333h75v-48h-206v48h75v312l-70 -45v61l81 51h45v-379z" />
    <glyph glyph-name="ordmasculine" unicode="&#xba;" horiz-adv-x="336" 
d="M63 454c-26 28 -39 65.333 -39 112c0 46 13 82.667 39 110s61 41 105 41c43.333 0 78.166 -13.833 104.499 -41.5s39.5 -64.167 39.5 -109.5c0 -46.667 -13.167 -84 -39.5 -112s-61.166 -42 -104.499 -42c-44 0 -79 14 -105 42zM232 486.5
c14.667 18.333 22 44.833 22 79.5c0 33.333 -7.33301 59.166 -22 77.499s-36 27.5 -64 27.5s-49.333 -9.16699 -64 -27.5s-22 -44.166 -22 -77.499c0 -34.667 7.33301 -61.167 22 -79.5s36 -27.5 64 -27.5s49.333 9.16699 64 27.5z" />
    <glyph glyph-name="guillemotright" unicode="&#xbb;" horiz-adv-x="420" 
d="M91 89h-60l127 179l-129 179h61l132 -180zM262 89h-60l127 179l-129 179h61l132 -180z" />
    <glyph glyph-name="onequarter" unicode="&#xbc;" horiz-adv-x="928" 
d="M243 333h75v-48h-206v48h75v312l-70 -45v61l81 51h45v-379zM277 -23l-49 27l423 731l48 -27zM903 137v-47h-64v-90h-58v90h-195v43l205 294h48v-290h64zM643 137h138v197z" />
    <glyph glyph-name="onehalf" unicode="&#xbd;" horiz-adv-x="928" 
d="M243 333h75v-48h-206v48h75v312l-70 -45v61l81 51h45v-379zM277 -23l-49 27l423 731l48 -27zM880 48v-47.999h-277v43l147 163c19.333 21.333 33.5 40.666 42.5 57.999s13.5 34.666 13.5 51.999c0 22 -6.5 38.667 -19.5 50s-30.833 17 -53.5 17
c-18 0 -37.5 -4.33301 -58.5 -13s-41.167 -20.667 -60.5 -36l-27 42c19.333 16.667 42.166 30 68.499 40s53.5 15 81.5 15c40 0 71.167 -10.333 93.5 -31s33.5 -48 33.5 -82c0 -24.667 -5.66699 -48.167 -17 -70.5s-29.666 -47.166 -54.999 -74.499l-116 -125h204z" />
    <glyph glyph-name="threequarters" unicode="&#xbe;" horiz-adv-x="928" 
d="M304 468c13.333 -17.333 20.0039 -39.666 20.0039 -66.999c0 -37.333 -12.667 -66.5 -38 -87.5s-59.333 -31.5 -102 -31.5c-28 0 -55.333 5.16699 -82 15.5s-49.334 23.833 -68.001 40.5l27 41c20 -15.333 40.333 -27.333 61 -36s40.667 -13 60 -13
c27.333 0 48.666 6 63.999 18s23 30.667 23 56c0 49.333 -31.333 74 -94 74h-51v47h41c29.333 0 52.166 6.5 68.499 19.5s24.5 31.833 24.5 56.5c0 22 -6.5 38.667 -19.5 50s-30.5 17 -52.5 17c-38.667 0 -78.667 -16.333 -120 -49l-27 42
c19.333 16 42.166 29.167 68.499 39.5s52.833 15.5 79.5 15.5c40.667 0 72.167 -10.333 94.5 -31s33.5 -47.334 33.5 -80.001c0 -24.667 -6.16699 -45.5 -18.5 -62.5s-28.5 -29.833 -48.5 -38.5c24 -6.66699 42.667 -18.667 56 -36zM277.004 -23l-49 27l423 731l48 -27z
M903.004 137v-47h-64v-90h-58v90h-195v43l205 294h48v-290h64zM643.004 137h138v197z" />
    <glyph glyph-name="questiondown" unicode="&#xbf;" horiz-adv-x="440" 
d="M193 404v86h86v-86h-86zM80 -147c-34.667 28 -52.002 64.332 -52.002 108.999c0 35.333 7.5 64.833 22.5 88.5s37.5 50.167 67.5 79.5c20.667 20.667 37 38.167 49 52.5s22.667 31.5 32 51.5s15 42.667 17 68l2 14h38v-18c0 -30 -4.16699 -56.5 -12.5 -79.5
s-18.666 -42.667 -30.999 -59s-28.166 -34.833 -47.499 -55.5c-24.667 -26 -43 -48.833 -55 -68.5s-18 -43.167 -18 -70.5c0 -29.333 11.167 -53.166 33.5 -71.499s51.833 -27.5 88.5 -27.5c46 0 92 13.333 138 40v-60c-42.667 -23.333 -89 -35 -139 -35
c-54 0 -98.333 14 -133 42z" />
    <glyph glyph-name="Agrave" unicode="&#xc0;" horiz-adv-x="727" 
d="M637 0l-81 190h-384l-82 -190h-64l310 712h56l309 -712h-64zM195 244h337l-168 393zM340 773l-129 151h75l101 -151h-47z" />
    <glyph glyph-name="Aacute" unicode="&#xc1;" horiz-adv-x="727" 
d="M637 0l-81 190h-384l-82 -190h-64l310 712h56l309 -712h-64zM195 244h337l-168 393zM387 773h-47l101 151h75z" />
    <glyph glyph-name="Acircumflex" unicode="&#xc2;" horiz-adv-x="727" 
d="M637 0l-81 190h-384l-82 -190h-64l310 712h56l309 -712h-64zM195 244h337l-168 393zM287 773h-63l116 151h47l116 -151h-63l-76 109z" />
    <glyph glyph-name="Atilde" unicode="&#xc3;" horiz-adv-x="727" 
d="M637 0l-81 190h-384l-82 -190h-64l310 712h56l309 -712h-64zM195 244h337l-168 393zM227.5 876.5c15 19 35.833 28.5 62.5 28.5c14 0 27.333 -2.83301 40 -8.5s28 -14.167 46 -25.5c14 -8.66699 25.333 -15.167 34 -19.5s17 -6.5 25 -6.5
c15.333 0 27.166 5.66699 35.499 17s12.5 24.666 12.5 39.999h39c0 -33.333 -7.5 -59.333 -22.5 -78s-35.833 -28 -62.5 -28c-14 0 -27.5 2.83301 -40.5 8.5s-28.167 13.834 -45.5 24.501c-15.333 9.33301 -27 15.833 -35 19.5s-16 5.5 -24 5.5
c-15.333 0 -27.166 -5.33301 -35.499 -16s-12.5 -23.667 -12.5 -39h-39c0 32.667 7.5 58.5 22.5 77.5z" />
    <glyph glyph-name="Adieresis" unicode="&#xc4;" horiz-adv-x="727" 
d="M637 0l-81 190h-384l-82 -190h-64l310 712h56l309 -712h-64zM195 244h337l-168 393zM242 886h75v-73h-75v73zM410 886h75v-73h-75v73z" />
    <glyph glyph-name="Aring" unicode="&#xc5;" horiz-adv-x="727" 
d="M556 190h-384l-82 -190h-64l300 689c-18.667 7.33301 -33.667 19 -45 35s-17 34.333 -17 55c0 27.333 9.83301 50.5 29.5 69.5s43.167 28.5 70.5 28.5s50.833 -9.5 70.5 -28.5s29.5 -42.167 29.5 -69.5c0 -20.667 -5.66699 -39 -17 -55s-26.333 -27.667 -45 -35l299 -689
h-64zM328 816c-9.33301 -10 -14 -22.333 -14 -37s4.66699 -27 14 -37s21.333 -15 36 -15s26.667 5 36 15s14 22.333 14 37s-4.66699 27 -14 37s-21.333 15 -36 15s-26.667 -5 -36 -15zM195 244h337l-168 393z" />
    <glyph glyph-name="AE" unicode="&#xc6;" horiz-adv-x="999" 
d="M945 658h-389l25 -269h344v-55h-339l26 -280h333v-54h-383l-18 190h-358l-113 -190h-67l429 712h510v-54zM539 244l-38 414h-38l-245 -414h321z" />
    <glyph glyph-name="Ccedilla" unicode="&#xc7;" horiz-adv-x="684" 
d="M502 67.5c34 13.667 68.001 35.8311 102.001 66.498l26 -49c-28 -29.333 -61.333 -51.833 -100 -67.5s-81.334 -24.167 -128.001 -25.5l-4 -36c9.33301 2 18.333 3 27 3c20 0 37.5 -6 52.5 -18s22.5 -29.333 22.5 -52c0 -24 -10 -43.667 -30 -59s-47.333 -23 -82 -23
c-14.667 0 -30 1.5 -46 4.5s-29.667 7.83301 -41 14.5l14 39c22 -9.33301 47 -14 75 -14c19.333 0 33.833 3.33301 43.5 10s14.5 16 14.5 28c0 9.33301 -3 16.5 -9 21.5s-15 7.5 -27 7.5c-12.667 0 -29 -3.33301 -49 -10l-19 15l7 71c-89.333 8 -159.333 43.833 -210 107.5
s-76 148.834 -76 255.501c0 74.667 13 139.334 39 194.001s63.333 96.5 112 125.5s106 43.5 172 43.5c49.333 0 94.5 -7.83301 135.5 -23.5s76.5 -38.834 106.5 -69.501l-26 -49c-34 30.667 -68 52.834 -102 66.501s-72 20.5 -114 20.5c-82 0 -145.667 -26.833 -191 -80.5
s-68 -129.5 -68 -227.5c0 -98.667 22.5 -175 67.5 -229s108.833 -81 191.5 -81c42 0 80 6.83301 114 20.5z" />
    <glyph glyph-name="Egrave" unicode="&#xc8;" horiz-adv-x="585" 
d="M92 0v712h439v-53h-378v-270h358v-55h-358v-281h378v-53h-439zM301 773l-129 151h75l101 -151h-47z" />
    <glyph glyph-name="Eacute" unicode="&#xc9;" horiz-adv-x="585" 
d="M92 0v712h439v-53h-378v-270h358v-55h-358v-281h378v-53h-439zM348 773h-47l101 151h75z" />
    <glyph glyph-name="Ecircumflex" unicode="&#xca;" horiz-adv-x="585" 
d="M92 0v712h439v-53h-378v-270h358v-55h-358v-281h378v-53h-439zM248 773h-63l116 151h47l116 -151h-63l-76 109z" />
    <glyph glyph-name="Edieresis" unicode="&#xcb;" horiz-adv-x="585" 
d="M92 0v712h439v-53h-378v-270h358v-55h-358v-281h378v-53h-439zM203 886h75v-73h-75v73zM371 886h75v-73h-75v73z" />
    <glyph glyph-name="Igrave" unicode="&#xcc;" horiz-adv-x="246" 
d="M92 0v712h62v-712h-62zM99 773l-129 151h75l101 -151h-47z" />
    <glyph glyph-name="Iacute" unicode="&#xcd;" horiz-adv-x="246" 
d="M92 0v712h62v-712h-62zM146 773h-47l101 151h75z" />
    <glyph glyph-name="Icircumflex" unicode="&#xce;" horiz-adv-x="246" 
d="M92 0v712h62v-712h-62zM46 773h-63l116 151h47l116 -151h-63l-76 109z" />
    <glyph glyph-name="Idieresis" unicode="&#xcf;" horiz-adv-x="246" 
d="M92 0v712h62v-712h-62zM1 886h75v-73h-75v73zM169 886h75v-73h-75v73z" />
    <glyph glyph-name="Eth" unicode="&#xd0;" horiz-adv-x="748" 
d="M591 620c61.333 -61.333 92 -149 92 -263s-30.833 -202 -92.5 -264s-148.5 -93 -260.5 -93h-229v335h-95v52h95v325h229c112.667 0 199.667 -30.667 261 -92zM545 130.5c48.667 51 72.999 126.5 72.999 226.5c0 200.667 -97 301 -291 301h-164v-271h196v-52h-196v-281
h164c96.667 0 169.334 25.5 218.001 76.5z" />
    <glyph glyph-name="Ntilde" unicode="&#xd1;" horiz-adv-x="742" 
d="M592 712h58v-712h-48l-452 607v-607h-58v712h49l451 -607v607zM235.5 876.5c15 19 35.833 28.5 62.5 28.5c14 0 27.333 -2.83301 40 -8.5s28 -14.167 46 -25.5c14 -8.66699 25.333 -15.167 34 -19.5s17 -6.5 25 -6.5c15.333 0 27.166 5.66699 35.499 17
s12.5 24.666 12.5 39.999h39c0 -33.333 -7.5 -59.333 -22.5 -78s-35.833 -28 -62.5 -28c-14 0 -27.5 2.83301 -40.5 8.5s-28.167 13.834 -45.5 24.501c-15.333 9.33301 -27 15.833 -35 19.5s-16 5.5 -24 5.5c-15.333 0 -27.166 -5.33301 -35.499 -16
s-12.5 -23.667 -12.5 -39h-39c0 32.667 7.5 58.5 22.5 77.5z" />
    <glyph glyph-name="Ograve" unicode="&#xd2;" horiz-adv-x="765" 
d="M213.5 36c-47.667 29.333 -84.3311 71.3301 -109.998 125.997s-38.5 119.334 -38.5 194.001s12.667 139.334 38 194.001s61.833 96.667 109.5 126s104.167 44 169.5 44s122 -14.667 170 -44s84.667 -71.166 110 -125.499s38 -118.833 38 -193.5
s-12.833 -139.5 -38.5 -194.5s-62.334 -97.167 -110.001 -126.5s-104.167 -44 -169.5 -44c-64.667 0 -120.834 14.667 -168.501 44zM568.503 127.997c44.333 54 66.5 130.333 66.5 229s-22 174.667 -66 228s-106.333 80 -187 80c-80 0 -142.167 -26.833 -186.5 -80.5
s-66.5 -129.5 -66.5 -227.5s22.167 -174.167 66.5 -228.5s106.5 -81.5 186.5 -81.5s142.167 27 186.5 81zM358.003 772.997l-129 151h75l101 -151h-47z" />
    <glyph glyph-name="Oacute" unicode="&#xd3;" horiz-adv-x="765" 
d="M213.5 36c-47.667 29.333 -84.3311 71.3301 -109.998 125.997s-38.5 119.334 -38.5 194.001s12.667 139.334 38 194.001s61.833 96.667 109.5 126s104.167 44 169.5 44s122 -14.667 170 -44s84.667 -71.166 110 -125.499s38 -118.833 38 -193.5
s-12.833 -139.5 -38.5 -194.5s-62.334 -97.167 -110.001 -126.5s-104.167 -44 -169.5 -44c-64.667 0 -120.834 14.667 -168.501 44zM568.503 127.997c44.333 54 66.5 130.333 66.5 229s-22 174.667 -66 228s-106.333 80 -187 80c-80 0 -142.167 -26.833 -186.5 -80.5
s-66.5 -129.5 -66.5 -227.5s22.167 -174.167 66.5 -228.5s106.5 -81.5 186.5 -81.5s142.167 27 186.5 81zM405.003 772.997h-47l101 151h75z" />
    <glyph glyph-name="Ocircumflex" unicode="&#xd4;" horiz-adv-x="765" 
d="M213.5 36c-47.667 29.333 -84.3311 71.3301 -109.998 125.997s-38.5 119.334 -38.5 194.001s12.667 139.334 38 194.001s61.833 96.667 109.5 126s104.167 44 169.5 44s122 -14.667 170 -44s84.667 -71.166 110 -125.499s38 -118.833 38 -193.5
s-12.833 -139.5 -38.5 -194.5s-62.334 -97.167 -110.001 -126.5s-104.167 -44 -169.5 -44c-64.667 0 -120.834 14.667 -168.501 44zM568.503 127.997c44.333 54 66.5 130.333 66.5 229s-22 174.667 -66 228s-106.333 80 -187 80c-80 0 -142.167 -26.833 -186.5 -80.5
s-66.5 -129.5 -66.5 -227.5s22.167 -174.167 66.5 -228.5s106.5 -81.5 186.5 -81.5s142.167 27 186.5 81zM305.003 772.997h-63l116 151h47l116 -151h-63l-76 109z" />
    <glyph glyph-name="Otilde" unicode="&#xd5;" horiz-adv-x="765" 
d="M213.5 36c-47.667 29.333 -84.3311 71.3301 -109.998 125.997s-38.5 119.334 -38.5 194.001s12.667 139.334 38 194.001s61.833 96.667 109.5 126s104.167 44 169.5 44s122 -14.667 170 -44s84.667 -71.166 110 -125.499s38 -118.833 38 -193.5
s-12.833 -139.5 -38.5 -194.5s-62.334 -97.167 -110.001 -126.5s-104.167 -44 -169.5 -44c-64.667 0 -120.834 14.667 -168.501 44zM568.503 127.997c44.333 54 66.5 130.333 66.5 229s-22 174.667 -66 228s-106.333 80 -187 80c-80 0 -142.167 -26.833 -186.5 -80.5
s-66.5 -129.5 -66.5 -227.5s22.167 -174.167 66.5 -228.5s106.5 -81.5 186.5 -81.5s142.167 27 186.5 81zM245.503 876.497c15 19 35.833 28.5 62.5 28.5c14 0 27.333 -2.83301 40 -8.5s28 -14.167 46 -25.5c14 -8.66699 25.333 -15.167 34 -19.5s17 -6.5 25 -6.5
c15.333 0 27.166 5.66699 35.499 17s12.5 24.666 12.5 39.999h39c0 -33.333 -7.5 -59.333 -22.5 -78s-35.833 -28 -62.5 -28c-14 0 -27.5 2.83301 -40.5 8.5s-28.167 13.834 -45.5 24.501c-15.333 9.33301 -27 15.833 -35 19.5s-16 5.5 -24 5.5
c-15.333 0 -27.166 -5.33301 -35.499 -16s-12.5 -23.667 -12.5 -39h-39c0 32.667 7.5 58.5 22.5 77.5z" />
    <glyph glyph-name="Odieresis" unicode="&#xd6;" horiz-adv-x="765" 
d="M213.5 36c-47.667 29.333 -84.3311 71.3301 -109.998 125.997s-38.5 119.334 -38.5 194.001s12.667 139.334 38 194.001s61.833 96.667 109.5 126s104.167 44 169.5 44s122 -14.667 170 -44s84.667 -71.166 110 -125.499s38 -118.833 38 -193.5
s-12.833 -139.5 -38.5 -194.5s-62.334 -97.167 -110.001 -126.5s-104.167 -44 -169.5 -44c-64.667 0 -120.834 14.667 -168.501 44zM568.503 127.997c44.333 54 66.5 130.333 66.5 229s-22 174.667 -66 228s-106.333 80 -187 80c-80 0 -142.167 -26.833 -186.5 -80.5
s-66.5 -129.5 -66.5 -227.5s22.167 -174.167 66.5 -228.5s106.5 -81.5 186.5 -81.5s142.167 27 186.5 81zM260.003 885.997h75v-73h-75v73zM428.003 885.997h75v-73h-75v73z" />
    <glyph glyph-name="multiply" unicode="&#xd7;" horiz-adv-x="600" 
d="M536 487l-200 -200l200 -201l-36 -35l-200 200l-200 -200l-36 35l200 201l-200 200l36 36l200 -200l200 200z" />
    <glyph glyph-name="Oslash" unicode="&#xd8;" horiz-adv-x="765" 
d="M670.5 530c19.667 -50 29.502 -107.668 29.502 -173.001c0 -74.667 -12.833 -139.5 -38.5 -194.5s-62.334 -97.167 -110.001 -126.5s-104.167 -44 -169.5 -44c-60.667 0 -113.667 13 -159 39l-42 -72l-45 26l44 75c-36.667 32 -65 73.167 -85 123.5
s-30 107.833 -30 172.5c0 74.667 12.667 139.334 38 194.001s61.833 96.667 109.5 126s104.167 44 169.5 44c61.333 0 114.666 -12.667 159.999 -38l42 71l45 -26l-44 -75c37.333 -31.333 65.833 -72 85.5 -122zM150.002 213.999c14 -41.333 34 -75.333 60 -102l304 520
c-36.667 22 -80.667 33 -132 33c-80 0 -142.167 -26.833 -186.5 -80.5s-66.5 -129.5 -66.5 -227.5c0 -54 7 -101.667 21 -143zM568.502 127.999c44.333 54 66.5 130.333 66.5 229c0 108.667 -26.667 189.667 -80 243l-303 -520c36 -22 79.333 -33 130 -33
c80 0 142.167 27 186.5 81z" />
    <glyph glyph-name="Ugrave" unicode="&#xd9;" horiz-adv-x="726" 
d="M157.5 63.5c-47 47.667 -70.5 117.834 -70.5 210.501v438h62v-445c0 -146.667 71.667 -220 215 -220c70 0 123.167 18.5 159.5 55.5s54.5 91.833 54.5 164.5v445h61v-438c0 -92.667 -23.333 -162.834 -70 -210.501s-115 -71.5 -205 -71.5
c-90.667 0 -159.5 23.833 -206.5 71.5zM340 773l-129 151h75l101 -151h-47z" />
    <glyph glyph-name="Uacute" unicode="&#xda;" horiz-adv-x="726" 
d="M157.5 63.5c-47 47.667 -70.5 117.834 -70.5 210.501v438h62v-445c0 -146.667 71.667 -220 215 -220c70 0 123.167 18.5 159.5 55.5s54.5 91.833 54.5 164.5v445h61v-438c0 -92.667 -23.333 -162.834 -70 -210.501s-115 -71.5 -205 -71.5
c-90.667 0 -159.5 23.833 -206.5 71.5zM387 773h-47l101 151h75z" />
    <glyph glyph-name="Ucircumflex" unicode="&#xdb;" horiz-adv-x="726" 
d="M157.5 63.5c-47 47.667 -70.5 117.834 -70.5 210.501v438h62v-445c0 -146.667 71.667 -220 215 -220c70 0 123.167 18.5 159.5 55.5s54.5 91.833 54.5 164.5v445h61v-438c0 -92.667 -23.333 -162.834 -70 -210.501s-115 -71.5 -205 -71.5
c-90.667 0 -159.5 23.833 -206.5 71.5zM287 773h-63l116 151h47l116 -151h-63l-76 109z" />
    <glyph glyph-name="Udieresis" unicode="&#xdc;" horiz-adv-x="726" 
d="M157.5 63.5c-47 47.667 -70.5 117.834 -70.5 210.501v438h62v-445c0 -146.667 71.667 -220 215 -220c70 0 123.167 18.5 159.5 55.5s54.5 91.833 54.5 164.5v445h61v-438c0 -92.667 -23.333 -162.834 -70 -210.501s-115 -71.5 -205 -71.5
c-90.667 0 -159.5 23.833 -206.5 71.5zM242 886h75v-73h-75v73zM410 886h75v-73h-75v73z" />
    <glyph glyph-name="Yacute" unicode="&#xdd;" horiz-adv-x="597" 
d="M604 712l-275 -419v-293h-62v295l-275 417h72l235 -363l235 363h70zM321 773h-47l101 151h75z" />
    <glyph glyph-name="Thorn" unicode="&#xde;" horiz-adv-x="644" 
d="M536.5 502.5c39 -32.333 58.5 -78.5 58.5 -138.5c0 -60.667 -19.667 -107.667 -59 -141s-94.333 -50 -165 -50h-217v-173h-62v712h62v-161h217c71.333 0 126.5 -16.167 165.5 -48.5zM491 260c27.333 22.667 41.001 57.333 41.001 104c0 45.333 -13.5 79 -40.5 101
s-68.5 33 -124.5 33h-213v-272h213c55.333 0 96.666 11.333 123.999 34z" />
    <glyph glyph-name="germandbls" unicode="&#xdf;" horiz-adv-x="616" 
d="M581 154c0 -50 -16.165 -89.333 -48.498 -118s-76.5 -43 -132.5 -43c-36 0 -70 5.83301 -102 17.5s-59.333 28.167 -82 49.5l25 47c28 -21.333 54.667 -36.833 80 -46.5s51.666 -14.5 78.999 -14.5c39.333 0 69.166 9.16699 89.499 27.5s30.5 45.166 30.5 80.499
c0 40 -19.167 74.833 -57.5 104.5s-104.833 57.167 -199.5 82.5v48c63.333 25.333 107.666 53.333 132.999 84s38 67 38 109c0 34 -10.5 60.167 -31.5 78.5s-51.167 27.5 -90.5 27.5c-55.333 0 -97.333 -15 -126 -45s-43 -75 -43 -135v-508h-60v503
c0 76.667 19.833 135.334 59.5 176.001s95.834 61 168.501 61c57.333 0 102 -14 134 -42s48 -67 48 -117c0 -46 -12.333 -86.167 -37 -120.5s-65.667 -63.833 -123 -88.5c165.333 -40 248 -112.667 248 -218z" />
    <glyph glyph-name="agrave" unicode="&#xe0;" horiz-adv-x="591" 
d="M508 501v-501.002h-61v96c-14.667 -33.333 -36.834 -58.833 -66.501 -76.5s-65.167 -26.5 -106.5 -26.5c-44.667 0 -83.834 10.5 -117.501 31.5s-59.667 51 -78 90s-27.5 84.5 -27.5 136.5s9.33301 97.833 28 137.5s44.834 70.334 78.501 92.001s72.5 32.5 116.5 32.5
c40.667 0 75.834 -8.66699 105.501 -26s52.167 -42.666 67.5 -75.999v90h61zM404 100.998c28.667 36 43.002 86.668 43.002 152.001c0 66 -14.333 117 -43 153s-69.334 54 -122.001 54s-93.667 -18.5 -123 -55.5s-44 -88.167 -44 -153.5
c0 -64.667 14.667 -114.834 44 -150.501s70.666 -53.5 123.999 -53.5c52 0 92.333 18 121 54zM272.002 566.999l-132 203h78l101 -203h-47z" />
    <glyph glyph-name="aacute" unicode="&#xe1;" horiz-adv-x="591" 
d="M508 501v-501.002h-61v96c-14.667 -33.333 -36.834 -58.833 -66.501 -76.5s-65.167 -26.5 -106.5 -26.5c-44.667 0 -83.834 10.5 -117.501 31.5s-59.667 51 -78 90s-27.5 84.5 -27.5 136.5s9.33301 97.833 28 137.5s44.834 70.334 78.501 92.001s72.5 32.5 116.5 32.5
c40.667 0 75.834 -8.66699 105.501 -26s52.167 -42.666 67.5 -75.999v90h61zM404 100.998c28.667 36 43.002 86.668 43.002 152.001c0 66 -14.333 117 -43 153s-69.334 54 -122.001 54s-93.667 -18.5 -123 -55.5s-44 -88.167 -44 -153.5
c0 -64.667 14.667 -114.834 44 -150.501s70.666 -53.5 123.999 -53.5c52 0 92.333 18 121 54zM319.002 566.999h-47l101 203h78z" />
    <glyph glyph-name="acircumflex" unicode="&#xe2;" horiz-adv-x="591" 
d="M508 501v-501.002h-61v96c-14.667 -33.333 -36.834 -58.833 -66.501 -76.5s-65.167 -26.5 -106.5 -26.5c-44.667 0 -83.834 10.5 -117.501 31.5s-59.667 51 -78 90s-27.5 84.5 -27.5 136.5s9.33301 97.833 28 137.5s44.834 70.334 78.501 92.001s72.5 32.5 116.5 32.5
c40.667 0 75.834 -8.66699 105.501 -26s52.167 -42.666 67.5 -75.999v90h61zM404 100.998c28.667 36 43.002 86.668 43.002 152.001c0 66 -14.333 117 -43 153s-69.334 54 -122.001 54s-93.667 -18.5 -123 -55.5s-44 -88.167 -44 -153.5
c0 -64.667 14.667 -114.834 44 -150.501s70.666 -53.5 123.999 -53.5c52 0 92.333 18 121 54zM219.002 566.999h-63l115 203h49l115 -203h-63l-76 152z" />
    <glyph glyph-name="atilde" unicode="&#xe3;" horiz-adv-x="591" 
d="M508 501v-501.002h-61v96c-14.667 -33.333 -36.834 -58.833 -66.501 -76.5s-65.167 -26.5 -106.5 -26.5c-44.667 0 -83.834 10.5 -117.501 31.5s-59.667 51 -78 90s-27.5 84.5 -27.5 136.5s9.33301 97.833 28 137.5s44.834 70.334 78.501 92.001s72.5 32.5 116.5 32.5
c40.667 0 75.834 -8.66699 105.501 -26s52.167 -42.666 67.5 -75.999v90h61zM404 100.998c28.667 36 43.002 86.668 43.002 152.001c0 66 -14.333 117 -43 153s-69.334 54 -122.001 54s-93.667 -18.5 -123 -55.5s-44 -88.167 -44 -153.5
c0 -64.667 14.667 -114.834 44 -150.501s70.666 -53.5 123.999 -53.5c52 0 92.333 18 121 54zM159.502 695.999c15 18.667 35.833 28 62.5 28c14 0 27.333 -2.83301 40 -8.5s28 -14.167 46 -25.5c15.333 -9.33301 27 -15.833 35 -19.5s16 -5.5 24 -5.5
c15.333 0 27.166 5.5 35.499 16.5s12.5 24.167 12.5 39.5h39c0 -33.333 -7.5 -59.333 -22.5 -78s-35.833 -28 -62.5 -28c-14 0 -27.333 2.83301 -40 8.5s-28 14.167 -46 25.5c-15.333 9.33301 -27 15.833 -35 19.5s-16 5.5 -24 5.5c-15.333 0 -27.166 -5.5 -35.499 -16.5
s-12.5 -24.167 -12.5 -39.5h-39c0 33.333 7.5 59.333 22.5 78z" />
    <glyph glyph-name="adieresis" unicode="&#xe4;" horiz-adv-x="591" 
d="M508 501v-501.002h-61v96c-14.667 -33.333 -36.834 -58.833 -66.501 -76.5s-65.167 -26.5 -106.5 -26.5c-44.667 0 -83.834 10.5 -117.501 31.5s-59.667 51 -78 90s-27.5 84.5 -27.5 136.5s9.33301 97.833 28 137.5s44.834 70.334 78.501 92.001s72.5 32.5 116.5 32.5
c40.667 0 75.834 -8.66699 105.501 -26s52.167 -42.666 67.5 -75.999v90h61zM404 100.998c28.667 36 43.002 86.668 43.002 152.001c0 66 -14.333 117 -43 153s-69.334 54 -122.001 54s-93.667 -18.5 -123 -55.5s-44 -88.167 -44 -153.5
c0 -64.667 14.667 -114.834 44 -150.501s70.666 -53.5 123.999 -53.5c52 0 92.333 18 121 54zM174.002 705.999h75v-74h-75v74zM342.002 705.999h75v-74h-75v74z" />
    <glyph glyph-name="aring" unicode="&#xe5;" horiz-adv-x="591" 
d="M508 501v-501.002h-61v96c-14.667 -33.333 -36.834 -58.833 -66.501 -76.5s-65.167 -26.5 -106.5 -26.5c-44.667 0 -83.834 10.5 -117.501 31.5s-59.667 51 -78 90s-27.5 84.5 -27.5 136.5s9.33301 97.833 28 137.5s44.834 70.334 78.501 92.001s72.5 32.5 116.5 32.5
c40.667 0 75.834 -8.66699 105.501 -26s52.167 -42.666 67.5 -75.999v90h61zM404 100.998c28.667 36 43.002 86.668 43.002 152.001c0 66 -14.333 117 -43 153s-69.334 54 -122.001 54s-93.667 -18.5 -123 -55.5s-44 -88.167 -44 -153.5
c0 -64.667 14.667 -114.834 44 -150.501s70.666 -53.5 123.999 -53.5c52 0 92.333 18 121 54zM225.002 598.999c-19.333 18.667 -29 42 -29 70c0 26.667 9.83301 49.334 29.5 68.001s43.167 28 70.5 28s50.666 -9.33301 69.999 -28s29 -41.334 29 -68.001
c0 -28 -9.66699 -51.333 -29 -70s-42.666 -28 -69.999 -28c-28 0 -51.667 9.33301 -71 28zM332.002 630.999c9.33301 10 14 22.667 14 38c0 14 -4.83301 26 -14.5 36s-21.5 15 -35.5 15c-14.667 0 -26.834 -5 -36.501 -15s-14.5 -22 -14.5 -36
c0 -15.333 4.83301 -28 14.5 -38s21.834 -15 36.501 -15s26.667 5 36 15z" />
    <glyph glyph-name="ae" unicode="&#xe6;" horiz-adv-x="886" 
d="M466 258l0.000976562 -4.00098c0 -66.667 15.5 -117.834 46.5 -153.501s75.167 -53.5 132.5 -53.5c56 0 109.667 20.667 161 62l23 -48c-22 -20 -49.667 -36.333 -83 -49s-66.666 -19 -99.999 -19c-52 0 -96.167 11.833 -132.5 35.5s-63.166 57.834 -80.499 102.501
c-12 -43.333 -34.333 -77.166 -67 -101.499s-72 -36.5 -118 -36.5c-34 0 -64.833 6.66699 -92.5 20s-49.334 31.833 -65.001 55.5s-23.5 50.834 -23.5 81.501c0 37.333 9.5 67.166 28.5 89.499s50 38.833 93 49.5s101.167 16 174.5 16h41v19c0 48 -9.16699 82.667 -27.5 104
s-48.5 32 -90.5 32c-58 0 -116.333 -18.333 -175 -55l-23 47c24.667 18.667 54.667 33.5 90 44.5s70.333 16.5 105 16.5c88.667 0 144.667 -33.333 168 -100c19.333 32 44.666 56.667 75.999 74s66.666 26 105.999 26c64 0 114.167 -21.5 150.5 -64.5
s54.5 -102.833 54.5 -179.5v-11h-372zM523.501 420.999c-28.333 -28 -46.166 -66.667 -53.499 -116h311c-4.66699 51.333 -19.834 90.5 -45.501 117.5s-60.167 40.5 -103.5 40.5c-44 0 -80.167 -14 -108.5 -42zM361.501 92.999c28.333 31.333 42.5 71.999 42.5 121.999v43
h-39c-59.333 0 -106 -3.5 -140 -10.5s-58.167 -18.167 -72.5 -33.5s-21.5 -35.666 -21.5 -60.999c0 -32 11.333 -57.833 34 -77.5s51.667 -29.5 87 -29.5c44.667 0 81.167 15.667 109.5 47z" />
    <glyph glyph-name="ccedilla" unicode="&#xe7;" horiz-adv-x="490" 
d="M389 13c-29.333 -12 -59.668 -18.6689 -91.001 -20.002l-4 -37c9.33301 2 18.333 3 27 3c20 0 37.5 -6 52.5 -18s22.5 -29.333 22.5 -52c0 -24 -10 -43.667 -30 -59s-47.333 -23 -82 -23c-14.667 0 -30 1.5 -46 4.5s-29.667 7.83301 -41 14.5l14 39
c22 -9.33301 47 -14 75 -14c19.333 0 33.833 3.33301 43.5 10s14.5 16 14.5 28c0 9.33301 -3 16.5 -9 21.5s-15 7.5 -27 7.5c-12.667 0 -29 -3.33301 -49 -10l-19 15l7 73c-60.667 8 -108.5 34.833 -143.5 80.5s-52.5 103.834 -52.5 174.501c0 52 9.66699 97.833 29 137.5
s47 70.334 83 92.001s77.667 32.5 125 32.5c34 0 66.5 -5.83301 97.5 -17.5s56.5 -27.834 76.5 -48.501l-24 -48c-26 21.333 -50.833 36.833 -74.5 46.5s-48.167 14.5 -73.5 14.5c-54 0 -96.667 -18.5 -128 -55.5s-47 -88.167 -47 -153.5c0 -64 15.5 -114 46.5 -150
s73.833 -54 128.5 -54c25.333 0 49.833 4.83301 73.5 14.5s48.5 24.834 74.5 45.501l24 -47c-19.333 -19.333 -43.666 -35 -72.999 -47z" />
    <glyph glyph-name="egrave" unicode="&#xe8;" horiz-adv-x="543" 
d="M115 258v-3.00098c0 -67.333 15.5 -118.833 46.5 -154.5s76.167 -53.5 135.5 -53.5c60 0 115 20.667 165 62l24 -48c-22 -20.667 -50 -37.167 -84 -49.5s-69 -18.5 -105 -18.5c-76 0 -136 23 -180 69s-66 109.333 -66 190c0 51.333 9.83301 96.833 29.5 136.5
s47.167 70.334 82.5 92.001s76 32.5 122 32.5c66 0 117.5 -21.333 154.5 -64s55.5 -102 55.5 -178v-13h-380zM173 421.499c-28.667 -27.667 -46.667 -66.5 -54 -116.5h318c-4 51.333 -19 90.5 -45 117.5s-61.667 40.5 -107 40.5c-46 0 -83.333 -13.833 -112 -41.5z
M261 566.999l-132 203h78l101 -203h-47z" />
    <glyph glyph-name="eacute" unicode="&#xe9;" horiz-adv-x="543" 
d="M115 258v-3.00098c0 -67.333 15.5 -118.833 46.5 -154.5s76.167 -53.5 135.5 -53.5c60 0 115 20.667 165 62l24 -48c-22 -20.667 -50 -37.167 -84 -49.5s-69 -18.5 -105 -18.5c-76 0 -136 23 -180 69s-66 109.333 -66 190c0 51.333 9.83301 96.833 29.5 136.5
s47.167 70.334 82.5 92.001s76 32.5 122 32.5c66 0 117.5 -21.333 154.5 -64s55.5 -102 55.5 -178v-13h-380zM173 421.499c-28.667 -27.667 -46.667 -66.5 -54 -116.5h318c-4 51.333 -19 90.5 -45 117.5s-61.667 40.5 -107 40.5c-46 0 -83.333 -13.833 -112 -41.5z
M308 566.999h-47l101 203h78z" />
    <glyph glyph-name="ecircumflex" unicode="&#xea;" horiz-adv-x="543" 
d="M115 258v-3.00098c0 -67.333 15.5 -118.833 46.5 -154.5s76.167 -53.5 135.5 -53.5c60 0 115 20.667 165 62l24 -48c-22 -20.667 -50 -37.167 -84 -49.5s-69 -18.5 -105 -18.5c-76 0 -136 23 -180 69s-66 109.333 -66 190c0 51.333 9.83301 96.833 29.5 136.5
s47.167 70.334 82.5 92.001s76 32.5 122 32.5c66 0 117.5 -21.333 154.5 -64s55.5 -102 55.5 -178v-13h-380zM173 421.499c-28.667 -27.667 -46.667 -66.5 -54 -116.5h318c-4 51.333 -19 90.5 -45 117.5s-61.667 40.5 -107 40.5c-46 0 -83.333 -13.833 -112 -41.5z
M208 566.999h-63l115 203h49l115 -203h-63l-76 152z" />
    <glyph glyph-name="edieresis" unicode="&#xeb;" horiz-adv-x="543" 
d="M115 258v-3.00098c0 -67.333 15.5 -118.833 46.5 -154.5s76.167 -53.5 135.5 -53.5c60 0 115 20.667 165 62l24 -48c-22 -20.667 -50 -37.167 -84 -49.5s-69 -18.5 -105 -18.5c-76 0 -136 23 -180 69s-66 109.333 -66 190c0 51.333 9.83301 96.833 29.5 136.5
s47.167 70.334 82.5 92.001s76 32.5 122 32.5c66 0 117.5 -21.333 154.5 -64s55.5 -102 55.5 -178v-13h-380zM173 421.499c-28.667 -27.667 -46.667 -66.5 -54 -116.5h318c-4 51.333 -19 90.5 -45 117.5s-61.667 40.5 -107 40.5c-46 0 -83.333 -13.833 -112 -41.5z
M163 705.999h75v-74h-75v74zM331 705.999h75v-74h-75v74z" />
    <glyph glyph-name="igrave" unicode="&#xec;" horiz-adv-x="228" 
d="M83 0v501h60v-501h-60zM91 567l-132 203h78l101 -203h-47z" />
    <glyph glyph-name="iacute" unicode="&#xed;" horiz-adv-x="228" 
d="M83 0v501h60v-501h-60zM138 567h-47l101 203h78z" />
    <glyph glyph-name="icircumflex" unicode="&#xee;" horiz-adv-x="228" 
d="M83 0v501h60v-501h-60zM38 567h-63l115 203h49l115 -203h-63l-76 152z" />
    <glyph glyph-name="idieresis" unicode="&#xef;" horiz-adv-x="228" 
d="M83 0v501h60v-501h-60zM-7 706h75v-74h-75v74zM161 706h75v-74h-75v74z" />
    <glyph glyph-name="eth" unicode="&#xf0;" horiz-adv-x="566" 
d="M515 294c0 -98.667 -19.832 -173.499 -59.499 -224.499s-98.167 -76.5 -175.5 -76.5c-45.333 0 -85.333 9.83301 -120 29.5s-61.5 47.5 -80.5 83.5s-28.5 77.667 -28.5 125c0 48 9.5 90 28.5 126s45.833 63.833 80.5 83.5s74.667 29.5 120 29.5
c78 0 134.667 -28.333 170 -85c-12.667 83.333 -46.667 152.666 -102 207.999l-161 -63l-15 44l135 53c-40.667 29.333 -88.334 52 -143.001 68l17 47c72.667 -20.667 134 -51.667 184 -93l132 52l15 -44l-110 -43c75.333 -79.333 113 -186 113 -320zM403.501 96.001
c29.667 32.667 44.5 77.667 44.5 135c0 58 -14.667 103.333 -44 136s-70 49 -122 49c-52.667 0 -93.667 -16.167 -123 -48.5s-44 -77.833 -44 -136.5c0 -59.333 14.333 -104.833 43 -136.5s69.667 -47.5 123 -47.5c52 0 92.833 16.333 122.5 49z" />
    <glyph glyph-name="ntilde" unicode="&#xf1;" horiz-adv-x="578" 
d="M497 319l-0.000976562 -319h-61v315c0 50 -10.167 86.667 -30.5 110s-52.166 35 -95.499 35c-50 0 -90.333 -15.333 -121 -46s-46 -72 -46 -124v-290h-60v362c0 52 -2.66699 98.333 -8 139h58l8 -92c15.333 34 38.333 59.833 69 77.5s66 26.5 106 26.5
c120.667 0 181 -64.667 181 -194zM152.499 696c15 18.667 35.833 28 62.5 28c14 0 27.333 -2.83301 40 -8.5s28 -14.167 46 -25.5c15.333 -9.33301 27 -15.833 35 -19.5s16 -5.5 24 -5.5c15.333 0 27.166 5.5 35.499 16.5s12.5 24.167 12.5 39.5h39
c0 -33.333 -7.5 -59.333 -22.5 -78s-35.833 -28 -62.5 -28c-14 0 -27.333 2.83301 -40 8.5s-28 14.167 -46 25.5c-15.333 9.33301 -27 15.833 -35 19.5s-16 5.5 -24 5.5c-15.333 0 -27.166 -5.5 -35.499 -16.5s-12.5 -24.167 -12.5 -39.5h-39c0 33.333 7.5 59.333 22.5 78z
" />
    <glyph glyph-name="ograve" unicode="&#xf2;" horiz-adv-x="562" 
d="M160.5 25c-35 21.333 -62 51.666 -81 90.999s-28.5 85 -28.5 137s9.5 97.667 28.5 137s46 69.666 81 90.999s75.5 32 121.5 32c45.333 0 85.333 -10.667 120 -32s61.5 -51.666 80.5 -90.999s28.5 -85 28.5 -137s-9.5 -97.667 -28.5 -137s-45.833 -69.666 -80.5 -90.999
s-74.667 -32 -120 -32c-46 0 -86.5 10.667 -121.5 32zM404.5 100.5c29 35.667 43.5 86.5 43.5 152.5c0 65.333 -14.667 116.166 -44 152.499s-70 54.5 -122 54.5c-52.667 0 -93.667 -18.167 -123 -54.5s-44 -87.166 -44 -152.499c0 -66.667 14.333 -117.667 43 -153
s69.667 -53 123 -53s94.5 17.833 123.5 53.5zM258 567l-132 203h78l101 -203h-47z" />
    <glyph glyph-name="oacute" unicode="&#xf3;" horiz-adv-x="562" 
d="M160.5 25c-35 21.333 -62 51.666 -81 90.999s-28.5 85 -28.5 137s9.5 97.667 28.5 137s46 69.666 81 90.999s75.5 32 121.5 32c45.333 0 85.333 -10.667 120 -32s61.5 -51.666 80.5 -90.999s28.5 -85 28.5 -137s-9.5 -97.667 -28.5 -137s-45.833 -69.666 -80.5 -90.999
s-74.667 -32 -120 -32c-46 0 -86.5 10.667 -121.5 32zM404.5 100.5c29 35.667 43.5 86.5 43.5 152.5c0 65.333 -14.667 116.166 -44 152.499s-70 54.5 -122 54.5c-52.667 0 -93.667 -18.167 -123 -54.5s-44 -87.166 -44 -152.499c0 -66.667 14.333 -117.667 43 -153
s69.667 -53 123 -53s94.5 17.833 123.5 53.5zM305 567h-47l101 203h78z" />
    <glyph glyph-name="ocircumflex" unicode="&#xf4;" horiz-adv-x="562" 
d="M160.5 25c-35 21.333 -62 51.666 -81 90.999s-28.5 85 -28.5 137s9.5 97.667 28.5 137s46 69.666 81 90.999s75.5 32 121.5 32c45.333 0 85.333 -10.667 120 -32s61.5 -51.666 80.5 -90.999s28.5 -85 28.5 -137s-9.5 -97.667 -28.5 -137s-45.833 -69.666 -80.5 -90.999
s-74.667 -32 -120 -32c-46 0 -86.5 10.667 -121.5 32zM404.5 100.5c29 35.667 43.5 86.5 43.5 152.5c0 65.333 -14.667 116.166 -44 152.499s-70 54.5 -122 54.5c-52.667 0 -93.667 -18.167 -123 -54.5s-44 -87.166 -44 -152.499c0 -66.667 14.333 -117.667 43 -153
s69.667 -53 123 -53s94.5 17.833 123.5 53.5zM205 567h-63l115 203h49l115 -203h-63l-76 152z" />
    <glyph glyph-name="otilde" unicode="&#xf5;" horiz-adv-x="562" 
d="M160.5 25c-35 21.333 -62 51.666 -81 90.999s-28.5 85 -28.5 137s9.5 97.667 28.5 137s46 69.666 81 90.999s75.5 32 121.5 32c45.333 0 85.333 -10.667 120 -32s61.5 -51.666 80.5 -90.999s28.5 -85 28.5 -137s-9.5 -97.667 -28.5 -137s-45.833 -69.666 -80.5 -90.999
s-74.667 -32 -120 -32c-46 0 -86.5 10.667 -121.5 32zM404.5 100.5c29 35.667 43.5 86.5 43.5 152.5c0 65.333 -14.667 116.166 -44 152.499s-70 54.5 -122 54.5c-52.667 0 -93.667 -18.167 -123 -54.5s-44 -87.166 -44 -152.499c0 -66.667 14.333 -117.667 43 -153
s69.667 -53 123 -53s94.5 17.833 123.5 53.5zM145.5 696c15 18.667 35.833 28 62.5 28c14 0 27.333 -2.83301 40 -8.5s28 -14.167 46 -25.5c15.333 -9.33301 27 -15.833 35 -19.5s16 -5.5 24 -5.5c15.333 0 27.166 5.5 35.499 16.5s12.5 24.167 12.5 39.5h39
c0 -33.333 -7.5 -59.333 -22.5 -78s-35.833 -28 -62.5 -28c-14 0 -27.333 2.83301 -40 8.5s-28 14.167 -46 25.5c-15.333 9.33301 -27 15.833 -35 19.5s-16 5.5 -24 5.5c-15.333 0 -27.166 -5.5 -35.499 -16.5s-12.5 -24.167 -12.5 -39.5h-39c0 33.333 7.5 59.333 22.5 78z
" />
    <glyph glyph-name="odieresis" unicode="&#xf6;" horiz-adv-x="562" 
d="M160.5 25c-35 21.333 -62 51.666 -81 90.999s-28.5 85 -28.5 137s9.5 97.667 28.5 137s46 69.666 81 90.999s75.5 32 121.5 32c45.333 0 85.333 -10.667 120 -32s61.5 -51.666 80.5 -90.999s28.5 -85 28.5 -137s-9.5 -97.667 -28.5 -137s-45.833 -69.666 -80.5 -90.999
s-74.667 -32 -120 -32c-46 0 -86.5 10.667 -121.5 32zM404.5 100.5c29 35.667 43.5 86.5 43.5 152.5c0 65.333 -14.667 116.166 -44 152.499s-70 54.5 -122 54.5c-52.667 0 -93.667 -18.167 -123 -54.5s-44 -87.166 -44 -152.499c0 -66.667 14.333 -117.667 43 -153
s69.667 -53 123 -53s94.5 17.833 123.5 53.5zM160 706h75v-74h-75v74zM328 706h75v-74h-75v74z" />
    <glyph glyph-name="divide" unicode="&#xf7;" horiz-adv-x="600" 
d="M251 444v90h86v-90h-86zM546 312v-51h-492v51h492zM251 39v90h86v-90h-86z" />
    <glyph glyph-name="oslash" unicode="&#xf8;" horiz-adv-x="562" 
d="M490 373c14 -35.333 20.999 -75.333 20.999 -120c0 -52 -9.5 -97.667 -28.5 -137s-45.833 -69.666 -80.5 -90.999s-74.667 -32 -120 -32c-39.333 0 -75.666 8.33301 -108.999 25l-35 -60l-42 25l36 63c-26 22.667 -46 51.667 -60 87s-21 75.333 -21 120
c0 52 9.5 97.667 28.5 137s46 69.666 81 90.999s75.5 32 121.5 32c39.333 0 75 -8.33301 107 -25l34 59l44 -23l-37 -64c26 -22.667 46 -51.667 60 -87zM160.999 96l201.002 344.999c-22.667 12.667 -49.334 19 -80.001 19c-52.667 0 -93.834 -18.167 -123.501 -54.5
s-44.5 -87.166 -44.5 -152.499c0 -70 15.667 -122.333 47 -157zM404.501 100.499c29 35.667 43.5 86.501 43.5 152.501c0 67.333 -15.667 119.666 -47 156.999l-201 -345c22.667 -12 49.667 -18 81 -18c53.333 0 94.5 17.833 123.5 53.5z" />
    <glyph glyph-name="ugrave" unicode="&#xf9;" horiz-adv-x="569" 
d="M486 501l0.000976562 -501.001h-59v91c-16 -32 -38.667 -56.333 -68 -73s-63 -25 -101 -25c-58.667 0 -103 16.333 -133 49s-45 81 -45 145v314h60v-310c0 -49.333 10 -85.666 30 -108.999s51 -35 93 -35c49.333 0 88.666 15.5 117.999 46.5s44 72.167 44 123.5v284h61z
M260.001 566.999l-132 203h78l101 -203h-47z" />
    <glyph glyph-name="uacute" unicode="&#xfa;" horiz-adv-x="569" 
d="M486 501l0.000976562 -501.001h-59v91c-16 -32 -38.667 -56.333 -68 -73s-63 -25 -101 -25c-58.667 0 -103 16.333 -133 49s-45 81 -45 145v314h60v-310c0 -49.333 10 -85.666 30 -108.999s51 -35 93 -35c49.333 0 88.666 15.5 117.999 46.5s44 72.167 44 123.5v284h61z
M307.001 566.999h-47l101 203h78z" />
    <glyph glyph-name="ucircumflex" unicode="&#xfb;" horiz-adv-x="569" 
d="M486 501l0.000976562 -501.001h-59v91c-16 -32 -38.667 -56.333 -68 -73s-63 -25 -101 -25c-58.667 0 -103 16.333 -133 49s-45 81 -45 145v314h60v-310c0 -49.333 10 -85.666 30 -108.999s51 -35 93 -35c49.333 0 88.666 15.5 117.999 46.5s44 72.167 44 123.5v284h61z
M207.001 566.999h-63l115 203h49l115 -203h-63l-76 152z" />
    <glyph glyph-name="udieresis" unicode="&#xfc;" horiz-adv-x="569" 
d="M486 501l0.000976562 -501.001h-59v91c-16 -32 -38.667 -56.333 -68 -73s-63 -25 -101 -25c-58.667 0 -103 16.333 -133 49s-45 81 -45 145v314h60v-310c0 -49.333 10 -85.666 30 -108.999s51 -35 93 -35c49.333 0 88.666 15.5 117.999 46.5s44 72.167 44 123.5v284h61z
M162.001 705.999h75v-74h-75v74zM330.001 705.999h75v-74h-75v74z" />
    <glyph glyph-name="yacute" unicode="&#xfd;" horiz-adv-x="525" 
d="M508 501l-236 -552.998c-23.333 -54.667 -52.5 -94.834 -87.5 -120.501s-78.833 -43.834 -131.5 -54.501l-12 48c48 11.333 84.167 26 108.5 44s44.833 46.333 61.5 85l21 49l-214 502h65l181 -440l182 440h62zM286 567.002h-47l101 203h78z" />
    <glyph glyph-name="thorn" unicode="&#xfe;" horiz-adv-x="591" 
d="M431.5 481.5c33.667 -21 60.167 -51.333 79.5 -91s29 -86.167 29 -139.5s-9.5 -99.5 -28.5 -138.5s-45.5 -68.667 -79.5 -89s-72.333 -30.5 -115 -30.5c-42 0 -77.833 9.16699 -107.5 27.5s-51.834 44.833 -66.501 79.5v-316h-60v952h60v-329c14.667 34.667 37 61 67 79
s65.667 27 107 27c42.667 0 80.834 -10.5 114.501 -31.5zM432.5 101c29 36 43.499 86 43.499 150c0 64.667 -14.5 115.667 -43.5 153s-69.833 56 -122.5 56c-53.333 0 -94.333 -18 -123 -54s-43 -87 -43 -153c0 -65.333 14.333 -116 43 -152s69.334 -54 122.001 -54
c53.333 0 94.5 18 123.5 54z" />
    <glyph glyph-name="ydieresis" unicode="&#xff;" horiz-adv-x="525" 
d="M508 501l-236 -552.998c-23.333 -54.667 -52.5 -94.834 -87.5 -120.501s-78.833 -43.834 -131.5 -54.501l-12 48c48 11.333 84.167 26 108.5 44s44.833 46.333 61.5 85l21 49l-214 502h65l181 -440l182 440h62zM141 706.002h75v-74h-75v74zM309 706.002h75v-74h-75v74z
" />
    <glyph glyph-name="Amacron" unicode="&#x100;" horiz-adv-x="727" 
d="M637 0l-81 190h-384l-82 -190h-64l310 712h56l309 -712h-64zM195 244h337l-168 393zM214 824v52h299v-52h-299z" />
    <glyph glyph-name="amacron" unicode="&#x101;" horiz-adv-x="591" 
d="M508 501v-501.002h-61v96c-14.667 -33.333 -36.834 -58.833 -66.501 -76.5s-65.167 -26.5 -106.5 -26.5c-44.667 0 -83.834 10.5 -117.501 31.5s-59.667 51 -78 90s-27.5 84.5 -27.5 136.5s9.33301 97.833 28 137.5s44.834 70.334 78.501 92.001s72.5 32.5 116.5 32.5
c40.667 0 75.834 -8.66699 105.501 -26s52.167 -42.666 67.5 -75.999v90h61zM404 100.998c28.667 36 43.002 86.668 43.002 152.001c0 66 -14.333 117 -43 153s-69.334 54 -122.001 54s-93.667 -18.5 -123 -55.5s-44 -88.167 -44 -153.5
c0 -64.667 14.667 -114.834 44 -150.501s70.666 -53.5 123.999 -53.5c52 0 92.333 18 121 54zM146.002 642.999v52h299v-52h-299z" />
    <glyph glyph-name="Abreve" unicode="&#x102;" horiz-adv-x="727" 
d="M637 0l-81 190h-384l-82 -190h-64l310 712h56l309 -712h-64zM195 244h337l-168 393zM268 811c-28 16.667 -49.3359 43.667 -64.0029 81l45 20c16.667 -29.333 33.834 -49.5 51.501 -60.5s38.834 -16.5 63.501 -16.5c24 0 44.833 5.5 62.5 16.5s34.834 31.167 51.501 60.5
l45 -20c-28 -70.667 -81 -106 -159 -106c-36 0 -68 8.33301 -96 25z" />
    <glyph glyph-name="abreve" unicode="&#x103;" horiz-adv-x="591" 
d="M508 501v-501.002h-61v96c-14.667 -33.333 -36.834 -58.833 -66.501 -76.5s-65.167 -26.5 -106.5 -26.5c-44.667 0 -83.834 10.5 -117.501 31.5s-59.667 51 -78 90s-27.5 84.5 -27.5 136.5s9.33301 97.833 28 137.5s44.834 70.334 78.501 92.001s72.5 32.5 116.5 32.5
c40.667 0 75.834 -8.66699 105.501 -26s52.167 -42.666 67.5 -75.999v90h61zM404 100.998c28.667 36 43.002 86.668 43.002 152.001c0 66 -14.333 117 -43 153s-69.334 54 -122.001 54s-93.667 -18.5 -123 -55.5s-44 -88.167 -44 -153.5
c0 -64.667 14.667 -114.834 44 -150.501s70.666 -53.5 123.999 -53.5c52 0 92.333 18 121 54zM200.002 629.499c-28.667 19.667 -50.333 50.167 -65 91.5l46 20c14.667 -32.667 31.5 -56.167 50.5 -70.5s40.5 -21.5 64.5 -21.5c23.333 0 44.5 7.16699 63.5 21.5
s35.833 37.833 50.5 70.5l46 -19c-14 -42 -35.333 -72.833 -64 -92.5s-60.667 -29.5 -96 -29.5s-67.333 9.83301 -96 29.5z" />
    <glyph glyph-name="Aogonek" unicode="&#x104;" horiz-adv-x="727" 
d="M743 -171c-22.667 -14.667 -50.002 -22 -82.002 -22c-34 0 -61.833 9.83301 -83.5 29.5s-32.5 44.5 -32.5 74.5c0 25.333 6.83301 48 20.5 68s33.834 35.667 60.501 47l-70 164h-384l-82 -190h-64l310 712h56l309 -712h-10c-30.667 -0 -53.667 -7.66699 -69 -23
s-23 -35 -23 -59c0 -20.667 6.33301 -36.667 19 -48s29.334 -17 50.001 -17c18.667 0 38 6 58 18zM194.998 244h337l-168 393z" />
    <glyph glyph-name="aogonek" unicode="&#x105;" horiz-adv-x="591" 
d="M556 -175c-23.333 -14.667 -51.333 -22.001 -84 -22.001c-34.667 0 -62.834 9.83301 -84.501 29.5s-32.5 45.167 -32.5 76.5c0 27.333 8 51.333 24 72s38.667 36.667 68 48v67c-14.667 -33.333 -36.834 -58.833 -66.501 -76.5s-65.167 -26.5 -106.5 -26.5
c-44.667 0 -83.834 10.5 -117.501 31.5s-59.667 51 -78 90s-27.5 84.5 -27.5 136.5s9.33301 97.833 28 137.5s44.834 70.334 78.501 92.001s72.5 32.5 116.5 32.5c40.667 0 75.834 -8.66699 105.501 -26s52.167 -42.666 67.5 -75.999v90h61v-501h-5
c-27.333 0 -49.833 -7.83301 -67.5 -23.5s-26.5 -35.834 -26.5 -60.501c0 -20.667 6.33301 -37.167 19 -49.5s29.334 -18.5 50.001 -18.5c18 0 38.333 6.66699 61 20zM404 100.999c28.667 36 43.002 86.668 43.002 152.001c0 66 -14.333 117 -43 153s-69.334 54 -122.001 54
s-93.667 -18.5 -123 -55.5s-44 -88.167 -44 -153.5c0 -64.667 14.667 -114.834 44 -150.501s70.666 -53.5 123.999 -53.5c52 0 92.333 18 121 54z" />
    <glyph glyph-name="Cacute" unicode="&#x106;" horiz-adv-x="684" 
d="M216 35.5c-48.667 29 -86 70.999 -112 125.999s-39 120.167 -39 195.5c0 74.667 13 139.334 39 194.001s63.333 96.5 112 125.5s106 43.5 172 43.5c49.333 0 94.5 -7.83301 135.5 -23.5s76.5 -38.834 106.5 -69.501l-26 -49c-34 30.667 -68 52.834 -102 66.501
s-72 20.5 -114 20.5c-82 0 -145.667 -26.833 -191 -80.5s-68 -129.5 -68 -227.5c0 -98.667 22.5 -175 67.5 -229s108.833 -81 191.5 -81c42 0 80 6.83301 114 20.5s68 35.834 102 66.501l26 -49c-30 -30.667 -65.5 -53.834 -106.5 -69.501s-86.167 -23.5 -135.5 -23.5
c-66 0 -123.333 14.5 -172 43.5zM411 772.999h-47l101 151h75z" />
    <glyph glyph-name="cacute" unicode="&#x107;" horiz-adv-x="490" 
d="M162 25c-35.333 21.333 -62.667 51.499 -82 90.499s-29 84.167 -29 135.5c0 52 9.66699 97.833 29 137.5s47 70.334 83 92.001s77.667 32.5 125 32.5c34 0 66.5 -5.83301 97.5 -17.5s56.5 -27.834 76.5 -48.501l-24 -48c-26 21.333 -50.833 36.833 -74.5 46.5
s-48.167 14.5 -73.5 14.5c-54 0 -96.667 -18.5 -128 -55.5s-47 -88.167 -47 -153.5c0 -64 15.5 -114 46.5 -150s73.833 -54 128.5 -54c25.333 0 49.833 4.83301 73.5 14.5s48.5 24.834 74.5 45.501l24 -47c-21.333 -20.667 -47.833 -37 -79.5 -49s-63.834 -18 -96.501 -18
c-47.333 0 -88.666 10.667 -123.999 32zM307.999 566.999h-47l101 203h78z" />
    <glyph glyph-name="Ccircumflex" unicode="&#x108;" horiz-adv-x="684" 
d="M216 35.5c-48.667 29 -86 70.999 -112 125.999s-39 120.167 -39 195.5c0 74.667 13 139.334 39 194.001s63.333 96.5 112 125.5s106 43.5 172 43.5c49.333 0 94.5 -7.83301 135.5 -23.5s76.5 -38.834 106.5 -69.501l-26 -49c-34 30.667 -68 52.834 -102 66.501
s-72 20.5 -114 20.5c-82 0 -145.667 -26.833 -191 -80.5s-68 -129.5 -68 -227.5c0 -98.667 22.5 -175 67.5 -229s108.833 -81 191.5 -81c42 0 80 6.83301 114 20.5s68 35.834 102 66.501l26 -49c-30 -30.667 -65.5 -53.834 -106.5 -69.501s-86.167 -23.5 -135.5 -23.5
c-66 0 -123.333 14.5 -172 43.5zM311 772.999h-63l116 151h47l116 -151h-63l-76 109z" />
    <glyph glyph-name="ccircumflex" unicode="&#x109;" horiz-adv-x="490" 
d="M162 25c-35.333 21.333 -62.667 51.499 -82 90.499s-29 84.167 -29 135.5c0 52 9.66699 97.833 29 137.5s47 70.334 83 92.001s77.667 32.5 125 32.5c34 0 66.5 -5.83301 97.5 -17.5s56.5 -27.834 76.5 -48.501l-24 -48c-26 21.333 -50.833 36.833 -74.5 46.5
s-48.167 14.5 -73.5 14.5c-54 0 -96.667 -18.5 -128 -55.5s-47 -88.167 -47 -153.5c0 -64 15.5 -114 46.5 -150s73.833 -54 128.5 -54c25.333 0 49.833 4.83301 73.5 14.5s48.5 24.834 74.5 45.501l24 -47c-21.333 -20.667 -47.833 -37 -79.5 -49s-63.834 -18 -96.501 -18
c-47.333 0 -88.666 10.667 -123.999 32zM207.999 566.999h-63l115 203h49l115 -203h-63l-76 152z" />
    <glyph glyph-name="Cdotaccent" unicode="&#x10a;" horiz-adv-x="684" 
d="M216 35.5c-48.667 29 -86 70.999 -112 125.999s-39 120.167 -39 195.5c0 74.667 13 139.334 39 194.001s63.333 96.5 112 125.5s106 43.5 172 43.5c49.333 0 94.5 -7.83301 135.5 -23.5s76.5 -38.834 106.5 -69.501l-26 -49c-34 30.667 -68 52.834 -102 66.501
s-72 20.5 -114 20.5c-82 0 -145.667 -26.833 -191 -80.5s-68 -129.5 -68 -227.5c0 -98.667 22.5 -175 67.5 -229s108.833 -81 191.5 -81c42 0 80 6.83301 114 20.5s68 35.834 102 66.501l26 -49c-30 -30.667 -65.5 -53.834 -106.5 -69.501s-86.167 -23.5 -135.5 -23.5
c-66 0 -123.333 14.5 -172 43.5zM347 888.999h81v-78h-81v78z" />
    <glyph glyph-name="cdotaccent" unicode="&#x10b;" horiz-adv-x="490" 
d="M162 25c-35.333 21.333 -62.667 51.499 -82 90.499s-29 84.167 -29 135.5c0 52 9.66699 97.833 29 137.5s47 70.334 83 92.001s77.667 32.5 125 32.5c34 0 66.5 -5.83301 97.5 -17.5s56.5 -27.834 76.5 -48.501l-24 -48c-26 21.333 -50.833 36.833 -74.5 46.5
s-48.167 14.5 -73.5 14.5c-54 0 -96.667 -18.5 -128 -55.5s-47 -88.167 -47 -153.5c0 -64 15.5 -114 46.5 -150s73.833 -54 128.5 -54c25.333 0 49.833 4.83301 73.5 14.5s48.5 24.834 74.5 45.501l24 -47c-21.333 -20.667 -47.833 -37 -79.5 -49s-63.834 -18 -96.501 -18
c-47.333 0 -88.666 10.667 -123.999 32zM243.999 707.999h81v-78h-81v78z" />
    <glyph glyph-name="Ccaron" unicode="&#x10c;" horiz-adv-x="684" 
d="M216 35.5c-48.667 29 -86 70.999 -112 125.999s-39 120.167 -39 195.5c0 74.667 13 139.334 39 194.001s63.333 96.5 112 125.5s106 43.5 172 43.5c49.333 0 94.5 -7.83301 135.5 -23.5s76.5 -38.834 106.5 -69.501l-26 -49c-34 30.667 -68 52.834 -102 66.501
s-72 20.5 -114 20.5c-82 0 -145.667 -26.833 -191 -80.5s-68 -129.5 -68 -227.5c0 -98.667 22.5 -175 67.5 -229s108.833 -81 191.5 -81c42 0 80 6.83301 114 20.5s68 35.834 102 66.501l26 -49c-30 -30.667 -65.5 -53.834 -106.5 -69.501s-86.167 -23.5 -135.5 -23.5
c-66 0 -123.333 14.5 -172 43.5zM464 923.999h63l-116 -151h-47l-116 151h63l77 -109z" />
    <glyph glyph-name="ccaron" unicode="&#x10d;" horiz-adv-x="490" 
d="M162 25c-35.333 21.333 -62.667 51.499 -82 90.499s-29 84.167 -29 135.5c0 52 9.66699 97.833 29 137.5s47 70.334 83 92.001s77.667 32.5 125 32.5c34 0 66.5 -5.83301 97.5 -17.5s56.5 -27.834 76.5 -48.501l-24 -48c-26 21.333 -50.833 36.833 -74.5 46.5
s-48.167 14.5 -73.5 14.5c-54 0 -96.667 -18.5 -128 -55.5s-47 -88.167 -47 -153.5c0 -64 15.5 -114 46.5 -150s73.833 -54 128.5 -54c25.333 0 49.833 4.83301 73.5 14.5s48.5 24.834 74.5 45.501l24 -47c-21.333 -20.667 -47.833 -37 -79.5 -49s-63.834 -18 -96.501 -18
c-47.333 0 -88.666 10.667 -123.999 32zM360.999 769.999h63l-115 -203h-49l-115 203h63l77 -153z" />
    <glyph glyph-name="Dcaron" unicode="&#x10e;" horiz-adv-x="739" 
d="M92 712h229.002c113.333 0 200.666 -30.667 261.999 -92s92 -149 92 -263s-30.833 -202 -92.5 -264s-148.834 -93 -261.501 -93h-229v712zM318.002 54c96.667 0 169.333 25.5 218 76.5s73 126.5 73 226.5c0 200.667 -97 301 -291 301h-164v-604h164zM445.001 924h63
l-116 -151h-47l-116 151h63l77 -109z" />
    <glyph glyph-name="dcaron" unicode="&#x10f;" horiz-adv-x="591" 
d="M447 736l61 -0.00195312v-736h-61v96c-14.667 -33.333 -36.834 -58.833 -66.501 -76.5s-65.167 -26.5 -106.5 -26.5c-44 0 -82.833 10.833 -116.5 32.5s-59.834 52.334 -78.501 92.001s-28 85.5 -28 137.5s9.16699 97.5 27.5 136.5s44.333 69 78 90
s72.834 31.5 117.501 31.5c40.667 0 75.834 -8.66699 105.501 -26s52.167 -42.666 67.5 -75.999v325zM544 735.998h62l-27 -195h-35v195zM404 100.998c28.667 36 42.998 86.668 42.998 152.001s-14.333 116.166 -43 152.499s-69 54.5 -121 54.5
c-53.333 0 -94.666 -18 -123.999 -54s-44 -86.333 -44 -151c0 -65.333 14.667 -116.333 44 -153s70.333 -55 123 -55s93.334 18 122.001 54z" />
    <glyph glyph-name="Dcroat" unicode="&#x110;" horiz-adv-x="748" 
d="M591 620c61.333 -61.333 92 -149 92 -263s-30.833 -202 -92.5 -264s-148.5 -93 -260.5 -93h-229v335h-95v52h95v325h229c112.667 0 199.667 -30.667 261 -92zM545 130.5c48.667 51 72.999 126.5 72.999 226.5c0 200.667 -97 301 -291 301h-164v-271h196v-52h-196v-281
h164c96.667 0 169.334 25.5 218.001 76.5z" />
    <glyph glyph-name="dcroat" unicode="&#x111;" horiz-adv-x="591" 
d="M605 589l-97 -0.00195312v-589h-61v96c-14.667 -33.333 -36.834 -58.833 -66.501 -76.5s-65.167 -26.5 -106.5 -26.5c-44 0 -82.833 10.833 -116.5 32.5s-59.834 52.334 -78.501 92.001s-28 85.5 -28 137.5s9.16699 97.5 27.5 136.5s44.333 69 78 90
s72.834 31.5 117.501 31.5c40.667 0 75.834 -8.66699 105.501 -26s52.167 -42.666 67.5 -75.999v178h-201v48h201v99h61v-99h97v-48zM404 100.998c28.667 36 42.998 86.668 42.998 152.001s-14.333 116.166 -43 152.499s-69 54.5 -121 54.5
c-53.333 0 -94.666 -18 -123.999 -54s-44 -86.333 -44 -151c0 -65.333 14.667 -116.333 44 -153s70.333 -55 123 -55s93.334 18 122.001 54z" />
    <glyph glyph-name="Emacron" unicode="&#x112;" horiz-adv-x="585" 
d="M92 0v712h439v-53h-378v-270h358v-55h-358v-281h378v-53h-439zM175 824v52h299v-52h-299z" />
    <glyph glyph-name="emacron" unicode="&#x113;" horiz-adv-x="543" 
d="M115 258v-3.00098c0 -67.333 15.5 -118.833 46.5 -154.5s76.167 -53.5 135.5 -53.5c60 0 115 20.667 165 62l24 -48c-22 -20.667 -50 -37.167 -84 -49.5s-69 -18.5 -105 -18.5c-76 0 -136 23 -180 69s-66 109.333 -66 190c0 51.333 9.83301 96.833 29.5 136.5
s47.167 70.334 82.5 92.001s76 32.5 122 32.5c66 0 117.5 -21.333 154.5 -64s55.5 -102 55.5 -178v-13h-380zM173 421.499c-28.667 -27.667 -46.667 -66.5 -54 -116.5h318c-4 51.333 -19 90.5 -45 117.5s-61.667 40.5 -107 40.5c-46 0 -83.333 -13.833 -112 -41.5z
M135 642.999v52h299v-52h-299z" />
    <glyph glyph-name="Ebreve" unicode="&#x114;" horiz-adv-x="585" 
d="M92 0v712h439v-53h-378v-270h358v-55h-358v-281h378v-53h-439zM229 811c-28 16.667 -49.3359 43.667 -64.0029 81l45 20c16.667 -29.333 33.834 -49.5 51.501 -60.5s38.834 -16.5 63.501 -16.5c24 0 44.833 5.5 62.5 16.5s34.834 31.167 51.501 60.5l45 -20
c-28 -70.667 -81 -106 -159 -106c-36 0 -68 8.33301 -96 25z" />
    <glyph glyph-name="ebreve" unicode="&#x115;" horiz-adv-x="543" 
d="M115 258v-3.00098c0 -67.333 15.5 -118.833 46.5 -154.5s76.167 -53.5 135.5 -53.5c60 0 115 20.667 165 62l24 -48c-22 -20.667 -50 -37.167 -84 -49.5s-69 -18.5 -105 -18.5c-76 0 -136 23 -180 69s-66 109.333 -66 190c0 51.333 9.83301 96.833 29.5 136.5
s47.167 70.334 82.5 92.001s76 32.5 122 32.5c66 0 117.5 -21.333 154.5 -64s55.5 -102 55.5 -178v-13h-380zM173 421.499c-28.667 -27.667 -46.667 -66.5 -54 -116.5h318c-4 51.333 -19 90.5 -45 117.5s-61.667 40.5 -107 40.5c-46 0 -83.333 -13.833 -112 -41.5z
M189 629.499c-28.667 19.667 -50.333 50.167 -65 91.5l46 20c14.667 -32.667 31.5 -56.167 50.5 -70.5s40.5 -21.5 64.5 -21.5c23.333 0 44.5 7.16699 63.5 21.5s35.833 37.833 50.5 70.5l46 -19c-14 -42 -35.333 -72.833 -64 -92.5s-60.667 -29.5 -96 -29.5
s-67.333 9.83301 -96 29.5z" />
    <glyph glyph-name="Edotaccent" unicode="&#x116;" horiz-adv-x="585" 
d="M92 0v712h439v-53h-378v-270h358v-55h-358v-281h378v-53h-439zM284 889h81v-78h-81v78z" />
    <glyph glyph-name="edotaccent" unicode="&#x117;" horiz-adv-x="543" 
d="M115 258v-3.00098c0 -67.333 15.5 -118.833 46.5 -154.5s76.167 -53.5 135.5 -53.5c60 0 115 20.667 165 62l24 -48c-22 -20.667 -50 -37.167 -84 -49.5s-69 -18.5 -105 -18.5c-76 0 -136 23 -180 69s-66 109.333 -66 190c0 51.333 9.83301 96.833 29.5 136.5
s47.167 70.334 82.5 92.001s76 32.5 122 32.5c66 0 117.5 -21.333 154.5 -64s55.5 -102 55.5 -178v-13h-380zM173 421.499c-28.667 -27.667 -46.667 -66.5 -54 -116.5h318c-4 51.333 -19 90.5 -45 117.5s-61.667 40.5 -107 40.5c-46 0 -83.333 -13.833 -112 -41.5z
M244 707.999h81v-78h-81v78z" />
    <glyph glyph-name="Eogonek" unicode="&#x118;" horiz-adv-x="585" 
d="M565 -171c-24 -14.667 -51.668 -22 -83.001 -22c-34 0 -61.667 9.83301 -83 29.5s-32 44.5 -32 74.5c0 36 13.667 65.667 41 89h-316v712h439v-53h-378v-270h358v-55h-358v-281h378v-53h-13c-32 0 -56.167 -7.5 -72.5 -22.5s-24.5 -34.833 -24.5 -59.5
c0 -20.667 6.16699 -36.667 18.5 -48s28.833 -17 49.5 -17c18.667 0 38.334 6 59.001 18z" />
    <glyph glyph-name="eogonek" unicode="&#x119;" horiz-adv-x="543" 
d="M115 258l0.000976562 -3.00098c0 -67.333 15.5 -118.833 46.5 -154.5s76.167 -53.5 135.5 -53.5c60 0 115 20.667 165 62l24 -47c-4.66699 -5.33301 -10.5 -10.333 -17.5 -15s-18.167 -11 -33.5 -19c-35.333 -20 -60.166 -38.333 -74.499 -55s-21.5 -35.667 -21.5 -57
c0 -20.667 6.16699 -37.167 18.5 -49.5s29.166 -18.5 50.499 -18.5c19.333 0 39.666 6.66699 60.999 20l17 -43c-23.333 -14.667 -51.333 -22 -84 -22c-34.667 0 -63 9.83301 -85 29.5s-33 45.167 -33 76.5c0 33.333 13 62 39 86c-5.33301 -1.33301 -14 -2 -26 -2
c-76 0 -136 23 -180 69s-66 109.333 -66 190c0 51.333 9.83301 96.833 29.5 136.5s47.167 70.334 82.5 92.001s76 32.5 122 32.5c66 0 117.5 -21.333 154.5 -64s55.5 -102 55.5 -178v-13h-380zM172.501 421.499c-29 -27.667 -47.167 -66.5 -54.5 -116.5h319
c-4 51.333 -19 90.5 -45 117.5s-61.667 40.5 -107 40.5c-46 0 -83.5 -13.833 -112.5 -41.5z" />
    <glyph glyph-name="Ecaron" unicode="&#x11a;" horiz-adv-x="585" 
d="M92 0v712h439v-53h-378v-270h358v-55h-358v-281h378v-53h-439zM401 924h63l-116 -151h-47l-116 151h63l77 -109z" />
    <glyph glyph-name="ecaron" unicode="&#x11b;" horiz-adv-x="543" 
d="M115 258v-3.00098c0 -67.333 15.5 -118.833 46.5 -154.5s76.167 -53.5 135.5 -53.5c60 0 115 20.667 165 62l24 -48c-22 -20.667 -50 -37.167 -84 -49.5s-69 -18.5 -105 -18.5c-76 0 -136 23 -180 69s-66 109.333 -66 190c0 51.333 9.83301 96.833 29.5 136.5
s47.167 70.334 82.5 92.001s76 32.5 122 32.5c66 0 117.5 -21.333 154.5 -64s55.5 -102 55.5 -178v-13h-380zM173 421.499c-28.667 -27.667 -46.667 -66.5 -54 -116.5h318c-4 51.333 -19 90.5 -45 117.5s-61.667 40.5 -107 40.5c-46 0 -83.333 -13.833 -112 -41.5z
M361 769.999h63l-115 -203h-49l-115 203h63l77 -153z" />
    <glyph glyph-name="Gcircumflex" unicode="&#x11c;" horiz-adv-x="726" 
d="M642 365l0.00292969 -325.002c-26 -14 -61.667 -25.5 -107 -34.5s-91 -13.5 -137 -13.5c-69.333 0 -129 14.5 -179 43.5s-88.167 70.833 -114.5 125.5s-39.5 120 -39.5 196c0 75.333 13.167 140.333 39.5 195s64.166 96.334 113.499 125.001s107.666 43 174.999 43
c100.667 0 181.334 -31 242.001 -93l-26 -49c-34 30.667 -68.167 52.834 -102.5 66.501s-72.5 20.5 -114.5 20.5c-84 0 -148.833 -26.667 -194.5 -80s-68.5 -129.333 -68.5 -228c0 -100.667 23.167 -177.667 69.5 -231s113.166 -80 200.499 -80
c67.333 0 129.666 11 186.999 33v233h-188v53h244zM314.003 772.998h-63l116 151h47l116 -151h-63l-76 109z" />
    <glyph glyph-name="gcircumflex" unicode="&#x11d;" horiz-adv-x="595" 
d="M512 501l0.000976562 -503.003c0 -72.667 -18 -127.667 -54 -165s-89 -56 -159 -56c-74.667 0 -139.667 18 -195 54l12 53c32.667 -19.333 62.667 -33 90 -41s58.666 -12 93.999 -12c50 0 87.833 13.667 113.5 41s38.5 67.333 38.5 120v129
c-15.333 -34 -38 -60.167 -68 -78.5s-66 -27.5 -108 -27.5c-44 0 -83 10.5 -117 31.5s-60.5 50.333 -79.5 88s-28.5 80.834 -28.5 129.501c0 49.333 9.5 92.833 28.5 130.5s45.5 66.834 79.5 87.501s73 31 117 31c42 0 77.833 -8.66699 107.5 -26
s52.167 -42.666 67.5 -75.999v90h61zM406.501 121.997c29.667 34.667 44.5 82 44.5 142c0 60.667 -14.833 108.5 -44.5 143.5s-70.5 52.5 -122.5 52.5c-52.667 0 -94 -17.5 -124 -52.5s-45 -82.833 -45 -143.5s15 -108.167 45 -142.5s71.333 -51.5 124 -51.5
c52 0 92.833 17.333 122.5 52zM223.001 566.997h-63l115 203h49l115 -203h-63l-76 152z" />
    <glyph glyph-name="Gbreve" unicode="&#x11e;" horiz-adv-x="726" 
d="M642 365l0.00292969 -325.002c-26 -14 -61.667 -25.5 -107 -34.5s-91 -13.5 -137 -13.5c-69.333 0 -129 14.5 -179 43.5s-88.167 70.833 -114.5 125.5s-39.5 120 -39.5 196c0 75.333 13.167 140.333 39.5 195s64.166 96.334 113.499 125.001s107.666 43 174.999 43
c100.667 0 181.334 -31 242.001 -93l-26 -49c-34 30.667 -68.167 52.834 -102.5 66.501s-72.5 20.5 -114.5 20.5c-84 0 -148.833 -26.667 -194.5 -80s-68.5 -129.333 -68.5 -228c0 -100.667 23.167 -177.667 69.5 -231s113.166 -80 200.499 -80
c67.333 0 129.666 11 186.999 33v233h-188v53h244zM295.003 810.998c-28 16.667 -49.3359 43.667 -64.0029 81l45 20c16.667 -29.333 33.834 -49.5 51.501 -60.5s38.834 -16.5 63.501 -16.5c24 0 44.833 5.5 62.5 16.5s34.834 31.167 51.501 60.5l45 -20
c-28 -70.667 -81 -106 -159 -106c-36 0 -68 8.33301 -96 25z" />
    <glyph glyph-name="gbreve" unicode="&#x11f;" horiz-adv-x="595" 
d="M512 501l0.000976562 -503.003c0 -72.667 -18 -127.667 -54 -165s-89 -56 -159 -56c-74.667 0 -139.667 18 -195 54l12 53c32.667 -19.333 62.667 -33 90 -41s58.666 -12 93.999 -12c50 0 87.833 13.667 113.5 41s38.5 67.333 38.5 120v129
c-15.333 -34 -38 -60.167 -68 -78.5s-66 -27.5 -108 -27.5c-44 0 -83 10.5 -117 31.5s-60.5 50.333 -79.5 88s-28.5 80.834 -28.5 129.501c0 49.333 9.5 92.833 28.5 130.5s45.5 66.834 79.5 87.501s73 31 117 31c42 0 77.833 -8.66699 107.5 -26
s52.167 -42.666 67.5 -75.999v90h61zM406.501 121.997c29.667 34.667 44.5 82 44.5 142c0 60.667 -14.833 108.5 -44.5 143.5s-70.5 52.5 -122.5 52.5c-52.667 0 -94 -17.5 -124 -52.5s-45 -82.833 -45 -143.5s15 -108.167 45 -142.5s71.333 -51.5 124 -51.5
c52 0 92.833 17.333 122.5 52zM204.001 629.497c-28.667 19.667 -50.333 50.167 -65 91.5l46 20c14.667 -32.667 31.5 -56.167 50.5 -70.5s40.5 -21.5 64.5 -21.5c23.333 0 44.5 7.16699 63.5 21.5s35.833 37.833 50.5 70.5l46 -19c-14 -42 -35.333 -72.833 -64 -92.5
s-60.667 -29.5 -96 -29.5s-67.333 9.83301 -96 29.5z" />
    <glyph glyph-name="Gdotaccent" unicode="&#x120;" horiz-adv-x="726" 
d="M642 365l0.00292969 -325.002c-26 -14 -61.667 -25.5 -107 -34.5s-91 -13.5 -137 -13.5c-69.333 0 -129 14.5 -179 43.5s-88.167 70.833 -114.5 125.5s-39.5 120 -39.5 196c0 75.333 13.167 140.333 39.5 195s64.166 96.334 113.499 125.001s107.666 43 174.999 43
c100.667 0 181.334 -31 242.001 -93l-26 -49c-34 30.667 -68.167 52.834 -102.5 66.501s-72.5 20.5 -114.5 20.5c-84 0 -148.833 -26.667 -194.5 -80s-68.5 -129.333 -68.5 -228c0 -100.667 23.167 -177.667 69.5 -231s113.166 -80 200.499 -80
c67.333 0 129.666 11 186.999 33v233h-188v53h244zM350.003 888.998h81v-78h-81v78z" />
    <glyph glyph-name="gdotaccent" unicode="&#x121;" horiz-adv-x="595" 
d="M512 501l0.000976562 -503.003c0 -72.667 -18 -127.667 -54 -165s-89 -56 -159 -56c-74.667 0 -139.667 18 -195 54l12 53c32.667 -19.333 62.667 -33 90 -41s58.666 -12 93.999 -12c50 0 87.833 13.667 113.5 41s38.5 67.333 38.5 120v129
c-15.333 -34 -38 -60.167 -68 -78.5s-66 -27.5 -108 -27.5c-44 0 -83 10.5 -117 31.5s-60.5 50.333 -79.5 88s-28.5 80.834 -28.5 129.501c0 49.333 9.5 92.833 28.5 130.5s45.5 66.834 79.5 87.501s73 31 117 31c42 0 77.833 -8.66699 107.5 -26
s52.167 -42.666 67.5 -75.999v90h61zM406.501 121.997c29.667 34.667 44.5 82 44.5 142c0 60.667 -14.833 108.5 -44.5 143.5s-70.5 52.5 -122.5 52.5c-52.667 0 -94 -17.5 -124 -52.5s-45 -82.833 -45 -143.5s15 -108.167 45 -142.5s71.333 -51.5 124 -51.5
c52 0 92.833 17.333 122.5 52zM259.001 707.997h81v-78h-81v78z" />
    <glyph glyph-name="Gcommaaccent" unicode="&#x122;" horiz-adv-x="726" 
d="M642 365l0.00292969 -325.002c-26 -14 -61.667 -25.5 -107 -34.5s-91 -13.5 -137 -13.5c-69.333 0 -129 14.5 -179 43.5s-88.167 70.833 -114.5 125.5s-39.5 120 -39.5 196c0 75.333 13.167 140.333 39.5 195s64.166 96.334 113.499 125.001s107.666 43 174.999 43
c100.667 0 181.334 -31 242.001 -93l-26 -49c-34 30.667 -68.167 52.834 -102.5 66.501s-72.5 20.5 -114.5 20.5c-84 0 -148.833 -26.667 -194.5 -80s-68.5 -129.333 -68.5 -228c0 -100.667 23.167 -177.667 69.5 -231s113.166 -80 200.499 -80
c67.333 0 129.666 11 186.999 33v233h-188v53h244zM440.003 -75.002v-56.001c0 -25.333 -3.66699 -48.166 -11 -68.499s-20 -39.833 -38 -58.5l-32 25c13.333 14 22.5 27.5 27.5 40.5s7.83301 27.5 8.5 43.5h-40v74h85z" />
    <glyph glyph-name="gcommaaccent" unicode="&#x123;" horiz-adv-x="595" 
d="M512 501l0.000976562 -503.003c0 -72.667 -18 -127.667 -54 -165s-89 -56 -159 -56c-74.667 0 -139.667 18 -195 54l12 53c32.667 -19.333 62.667 -33 90 -41s58.666 -12 93.999 -12c50 0 87.833 13.667 113.5 41s38.5 67.333 38.5 120v129
c-15.333 -34 -38 -60.167 -68 -78.5s-66 -27.5 -108 -27.5c-44 0 -83 10.5 -117 31.5s-60.5 50.333 -79.5 88s-28.5 80.834 -28.5 129.501c0 49.333 9.5 92.833 28.5 130.5s45.5 66.834 79.5 87.501s73 31 117 31c42 0 77.833 -8.66699 107.5 -26
s52.167 -42.666 67.5 -75.999v90h61zM406.501 121.997c29.667 34.667 44.5 82 44.5 142c0 60.667 -14.833 108.5 -44.5 143.5s-70.5 52.5 -122.5 52.5c-52.667 0 -94 -17.5 -124 -52.5s-45 -82.833 -45 -143.5s15 -108.167 45 -142.5s71.333 -51.5 124 -51.5
c52 0 92.833 17.333 122.5 52zM342.001 669.997v-73.999h-85v56c0 25.333 3.66699 48.166 11 68.499s20 39.833 38 58.5l32 -25c-13.333 -14 -22.5 -27.5 -27.5 -40.5s-7.83301 -27.5 -8.5 -43.5h40z" />
    <glyph glyph-name="Hcircumflex" unicode="&#x124;" horiz-adv-x="762" 
d="M608 712h62v-712h-62v334h-454v-334h-62v712h62v-323h454v323zM304 773h-63l116 151h47l116 -151h-63l-76 109z" />
    <glyph glyph-name="hcircumflex" unicode="&#x125;" horiz-adv-x="578" 
d="M497 319l-0.000976562 -319.001h-61v315c0 50 -10.167 86.667 -30.5 110s-52.166 35 -95.499 35c-50 0 -90.333 -15.333 -121 -46s-46 -72 -46 -124v-290h-60v736h60v-322c16 32.667 39 57.334 69 74.001s64.667 25 104 25c120.667 0 181 -64.667 181 -194z
M36.999 796.999h-63l116 151h47l116 -151h-63l-76 109z" />
    <glyph glyph-name="Hbar" unicode="&#x126;" horiz-adv-x="780" 
d="M774 581v-52h-95v-529h-63v334h-453v-334h-62v529h-95v52h95v131h62v-131h453v131h63v-131h95zM616 389v140h-453v-140h453z" />
    <glyph glyph-name="hbar" unicode="&#x127;" horiz-adv-x="578" 
d="M497 319l-0.000976562 -319.001h-61v315c0 50 -10.167 86.667 -30.5 110s-52.166 35 -95.499 35c-50 0 -90.333 -15.333 -121 -46s-46 -72 -46 -124v-290h-60v589h-97v48h97v99h60v-99h203v-48h-203v-175c16 32.667 39 57.334 69 74.001s64.667 25 104 25
c120.667 0 181 -64.667 181 -194z" />
    <glyph glyph-name="Itilde" unicode="&#x128;" horiz-adv-x="246" 
d="M92 0v712h62v-712h-62zM-13.5 876.5c15 19 35.833 28.5 62.5 28.5c14 0 27.333 -2.83301 40 -8.5s28 -14.167 46 -25.5c14 -8.66699 25.333 -15.167 34 -19.5s17 -6.5 25 -6.5c15.333 0 27.166 5.66699 35.499 17s12.5 24.666 12.5 39.999h39
c0 -33.333 -7.5 -59.333 -22.5 -78s-35.833 -28 -62.5 -28c-14 0 -27.5 2.83301 -40.5 8.5s-28.167 13.834 -45.5 24.501c-15.333 9.33301 -27 15.833 -35 19.5s-16 5.5 -24 5.5c-15.333 0 -27.166 -5.33301 -35.499 -16s-12.5 -23.667 -12.5 -39h-39
c0 32.667 7.5 58.5 22.5 77.5z" />
    <glyph glyph-name="itilde" unicode="&#x129;" horiz-adv-x="228" 
d="M83 0v501h60v-501h-60zM-21.5 696c15 18.667 35.833 28 62.5 28c14 0 27.333 -2.83301 40 -8.5s28 -14.167 46 -25.5c15.333 -9.33301 27 -15.833 35 -19.5s16 -5.5 24 -5.5c15.333 0 27.166 5.5 35.499 16.5s12.5 24.167 12.5 39.5h39c0 -33.333 -7.5 -59.333 -22.5 -78
s-35.833 -28 -62.5 -28c-14 0 -27.333 2.83301 -40 8.5s-28 14.167 -46 25.5c-15.333 9.33301 -27 15.833 -35 19.5s-16 5.5 -24 5.5c-15.333 0 -27.166 -5.5 -35.499 -16.5s-12.5 -24.167 -12.5 -39.5h-39c0 33.333 7.5 59.333 22.5 78z" />
    <glyph glyph-name="Imacron" unicode="&#x12a;" horiz-adv-x="246" 
d="M92 0v712h62v-712h-62zM-27 824v52h299v-52h-299z" />
    <glyph glyph-name="imacron" unicode="&#x12b;" horiz-adv-x="228" 
d="M83 0v501h60v-501h-60zM-35 643v52h299v-52h-299z" />
    <glyph glyph-name="Ibreve" unicode="&#x12c;" horiz-adv-x="246" 
d="M92 0v712h62v-712h-62zM27 811c-28 16.667 -49.3359 43.667 -64.0029 81l45 20c16.667 -29.333 33.834 -49.5 51.501 -60.5s38.834 -16.5 63.501 -16.5c24 0 44.833 5.5 62.5 16.5s34.834 31.167 51.501 60.5l45 -20c-28 -70.667 -81 -106 -159 -106
c-36 0 -68 8.33301 -96 25z" />
    <glyph glyph-name="ibreve" unicode="&#x12d;" horiz-adv-x="228" 
d="M83 0v501h60v-501h-60zM19 629.5c-28.667 19.667 -50.333 50.167 -65 91.5l46 20c14.667 -32.667 31.5 -56.167 50.5 -70.5s40.5 -21.5 64.5 -21.5c23.333 0 44.5 7.16699 63.5 21.5s35.833 37.833 50.5 70.5l46 -19c-14 -42 -35.333 -72.833 -64 -92.5
s-60.667 -29.5 -96 -29.5s-67.333 9.83301 -96 29.5z" />
    <glyph glyph-name="Iogonek" unicode="&#x12e;" horiz-adv-x="246" 
d="M201 -171c-22.667 -14.667 -50.333 -22 -83 -22c-34 0 -61.667 9.83301 -83 29.5s-32 44.5 -32 74.5c0 26 7.66699 49.333 23 70s37.333 36 66 46v685h62v-712h-5c-28 0 -50.167 -7.83301 -66.5 -23.5s-24.5 -35.167 -24.5 -58.5c0 -20.667 6 -36.667 18 -48
s28.333 -17 49 -17c19.333 0 39.333 6 60 18z" />
    <glyph glyph-name="iogonek" unicode="&#x12f;" horiz-adv-x="228" 
d="M155 712v-78h-82v78h82zM193 -175c-24 -14.667 -52.332 -22 -84.999 -22c-34.667 0 -62.834 9.83301 -84.501 29.5s-32.5 45.167 -32.5 76.5c0 26.667 8 50.5 24 71.5s38.667 36.833 68 47.5v473h60v-501h-3c-29.333 0 -52.5 -8 -69.5 -24s-25.5 -36 -25.5 -60
c0 -21.333 6.5 -38 19.5 -50s30.167 -18 51.5 -18c20 0 40 6.66699 60 20z" />
    <glyph glyph-name="Idotaccent" unicode="&#x130;" horiz-adv-x="246" 
d="M92 0v712h62v-712h-62zM82 889h81v-78h-81v78z" />
    <glyph glyph-name="dotlessi" unicode="&#x131;" horiz-adv-x="228" 
d="M83 0v501h60v-501h-60z" />
    <glyph glyph-name="Jcircumflex" unicode="&#x134;" horiz-adv-x="314" 
d="M-7 -123c30 -5.33301 53.668 -8 71.001 -8c35.333 0 60.166 10 74.499 30s21.5 54.667 21.5 104v709h62v-711c0 -66 -11.5 -113.667 -34.5 -143s-60.833 -44 -113.5 -44c-22 0 -49 2.66699 -81 8v55zM114.001 773h-63l116 151h47l116 -151h-63l-76 109z" />
    <glyph glyph-name="jcircumflex" unicode="&#x135;" horiz-adv-x="228" 
d="M-3 -164c27.333 0 48.5 7.66797 63.5 23.001s22.5 42.666 22.5 81.999v560h60v-571c0 -50 -12 -87.333 -36 -112s-57 -37 -99 -37c-18.667 0 -38.667 2.66699 -60 8v55c18 -5.33301 34.333 -8 49 -8zM38 567.001h-63l115 203h49l115 -203h-63l-76 152z" />
    <glyph glyph-name="Kcommaaccent" unicode="&#x136;" horiz-adv-x="619" 
d="M621 0h-84l-383 341v-341h-62v712h62v-330l364 330h82l-384 -348zM354 -75v-56.001c0 -25.333 -3.66699 -48.166 -11 -68.499s-20 -39.833 -38 -58.5l-32 25c13.333 14 22.5 27.5 27.5 40.5s7.83301 27.5 8.5 43.5h-40v74h85z" />
    <glyph glyph-name="kcommaaccent" unicode="&#x137;" horiz-adv-x="498" 
d="M502 0h-83l-276 244v-244h-60v736h60v-468l252 233h79l-262 -241zM291 -75v-56.001c0 -25.333 -3.66699 -48.166 -11 -68.499s-20 -39.833 -38 -58.5l-32 25c13.333 14 22.5 27.5 27.5 40.5s7.83301 27.5 8.5 43.5h-40v74h85z" />
    <glyph glyph-name="kgreenlandic" unicode="&#x138;" horiz-adv-x="498" 
d="M502 0h-83l-276 244v-244h-60v501h60v-233l252 233h79l-262 -241z" />
    <glyph glyph-name="Lacute" unicode="&#x139;" horiz-adv-x="538" 
d="M92 0v712h62v-658h368v-54h-430zM146 773h-47l101 151h75z" />
    <glyph glyph-name="lacute" unicode="&#x13a;" horiz-adv-x="228" 
d="M83 0v736h60v-736h-60zM138 797h-47l101 151h75z" />
    <glyph glyph-name="Lcommaaccent" unicode="&#x13b;" horiz-adv-x="538" 
d="M92 0v712h62v-658h368v-54h-430zM352 -75v-56.001c0 -25.333 -3.66699 -48.166 -11 -68.499s-20 -39.833 -38 -58.5l-32 25c13.333 14 22.5 27.5 27.5 40.5s7.83301 27.5 8.5 43.5h-40v74h85z" />
    <glyph glyph-name="lcommaaccent" unicode="&#x13c;" horiz-adv-x="228" 
d="M83 0v736h60v-736h-60zM157 -75v-56.001c0 -25.333 -3.66699 -48.166 -11 -68.499s-20 -39.833 -38 -58.5l-32 25c13.333 14 22.5 27.5 27.5 40.5s7.83301 27.5 8.5 43.5h-40v74h85z" />
    <glyph glyph-name="Lcaron" unicode="&#x13d;" horiz-adv-x="538" 
d="M92 0v712h62v-658h368v-54h-430zM275 521h-36v191h62z" />
    <glyph glyph-name="lcaron" unicode="&#x13e;" horiz-adv-x="228" 
d="M83 0v736h60v-736h-60zM219 541h-35v195h62z" />
    <glyph glyph-name="Ldot" unicode="&#x13f;" horiz-adv-x="538" 
d="M92 0v712h62v-658h368v-54h-430zM298 397h86v-81h-86v81z" />
    <glyph glyph-name="ldot" unicode="&#x140;" horiz-adv-x="235" 
d="M83 0v736h60v-736h-60zM183 399h86v-81h-86v81z" />
    <glyph glyph-name="Lslash" unicode="&#x141;" horiz-adv-x="547" 
d="M163 54h368v-54h-430v313l-93 -54v61l93 54v338h62v-303l190 110v-61l-190 -110v-294z" />
    <glyph glyph-name="lslash" unicode="&#x142;" horiz-adv-x="269" 
d="M275 418l-110 -63v-355h-61v320l-82 -47l-27 45l109 64v354h61v-319l82 48z" />
    <glyph glyph-name="Nacute" unicode="&#x143;" horiz-adv-x="742" 
d="M592 712h58v-712h-48l-452 607v-607h-58v712h49l451 -607v607zM395 773h-47l101 151h75z" />
    <glyph glyph-name="nacute" unicode="&#x144;" horiz-adv-x="578" 
d="M497 319l-0.000976562 -319h-61v315c0 50 -10.167 86.667 -30.5 110s-52.166 35 -95.499 35c-50 0 -90.333 -15.333 -121 -46s-46 -72 -46 -124v-290h-60v362c0 52 -2.66699 98.333 -8 139h58l8 -92c15.333 34 38.333 59.833 69 77.5s66 26.5 106 26.5
c120.667 0 181 -64.667 181 -194zM311.999 567h-47l101 203h78z" />
    <glyph glyph-name="Ncommaaccent" unicode="&#x145;" horiz-adv-x="742" 
d="M592 712h58v-712h-48l-452 607v-607h-58v712h49l451 -607v607zM414 -75v-56.001c0 -25.333 -3.66699 -48.166 -11 -68.499s-20 -39.833 -38 -58.5l-32 25c13.333 14 22.5 27.5 27.5 40.5s7.83301 27.5 8.5 43.5h-40v74h85z" />
    <glyph glyph-name="ncommaaccent" unicode="&#x146;" horiz-adv-x="578" 
d="M497 319l-0.000976562 -319h-61v315c0 50 -10.167 86.667 -30.5 110s-52.166 35 -95.499 35c-50 0 -90.333 -15.333 -121 -46s-46 -72 -46 -124v-290h-60v362c0 52 -2.66699 98.333 -8 139h58l8 -92c15.333 34 38.333 59.833 69 77.5s66 26.5 106 26.5
c120.667 0 181 -64.667 181 -194zM330.999 -75v-56.001c0 -25.333 -3.66699 -48.166 -11 -68.499s-20 -39.833 -38 -58.5l-32 25c13.333 14 22.5 27.5 27.5 40.5s7.83301 27.5 8.5 43.5h-40v74h85z" />
    <glyph glyph-name="Ncaron" unicode="&#x147;" horiz-adv-x="742" 
d="M592 712h58v-712h-48l-452 607v-607h-58v712h49l451 -607v607zM448 924h63l-116 -151h-47l-116 151h63l77 -109z" />
    <glyph glyph-name="ncaron" unicode="&#x148;" horiz-adv-x="578" 
d="M497 319l-0.000976562 -319h-61v315c0 50 -10.167 86.667 -30.5 110s-52.166 35 -95.499 35c-50 0 -90.333 -15.333 -121 -46s-46 -72 -46 -124v-290h-60v362c0 52 -2.66699 98.333 -8 139h58l8 -92c15.333 34 38.333 59.833 69 77.5s66 26.5 106 26.5
c120.667 0 181 -64.667 181 -194zM364.999 770h63l-115 -203h-49l-115 203h63l77 -153z" />
    <glyph glyph-name="napostrophe" unicode="&#x149;" horiz-adv-x="578" 
d="M191 760v-57c0 -25.333 -3.66699 -48.166 -11 -68.499s-20 -39.5 -38 -57.5l-32 24c13.333 14 22.5 27.667 27.5 41s7.83301 27.666 8.5 42.999h-40v75h85zM497 319l-0.000976562 -319h-61v315c0 50 -10.167 86.667 -30.5 110s-52.166 35 -95.499 35
c-50 0 -90.333 -15.333 -121 -46s-46 -72 -46 -124v-290h-60v362c0 52 -2.66699 98.333 -8 139h58l8 -92c15.333 34 38.333 59.833 69 77.5s66 26.5 106 26.5c120.667 0 181 -64.667 181 -194z" />
    <glyph glyph-name="Eng" unicode="&#x14a;" horiz-adv-x="742" 
d="M650 712v-718.001c0 -111.333 -55.667 -170.666 -167 -177.999l-59 -4l-4 53l55 4c78 6 117 46.333 117 121v22l-442 595v-607h-58v712h49l451 -607v607h58z" />
    <glyph glyph-name="eng" unicode="&#x14b;" horiz-adv-x="578" 
d="M497 319l-0.000976562 -368.999c0 -60.667 -11.833 -104 -35.5 -130s-57.167 -39 -100.5 -39c-19.333 0 -39 2.66699 -59 8v55c16.667 -5.33301 32.667 -8 48 -8c28 0 49.333 8.66699 64 26s22 50.666 22 99.999v353c0 50 -10.167 86.667 -30.5 110
s-52.166 35 -95.499 35c-50 0 -90.333 -15.333 -121 -46s-46 -72 -46 -124v-290h-60v362c0 52 -2.66699 98.333 -8 139h58l8 -92c15.333 34 38.333 59.833 69 77.5s66 26.5 106 26.5c120.667 0 181 -64.667 181 -194z" />
    <glyph glyph-name="Omacron" unicode="&#x14c;" horiz-adv-x="765" 
d="M213.5 36c-47.667 29.333 -84.3311 71.3301 -109.998 125.997s-38.5 119.334 -38.5 194.001s12.667 139.334 38 194.001s61.833 96.667 109.5 126s104.167 44 169.5 44s122 -14.667 170 -44s84.667 -71.166 110 -125.499s38 -118.833 38 -193.5
s-12.833 -139.5 -38.5 -194.5s-62.334 -97.167 -110.001 -126.5s-104.167 -44 -169.5 -44c-64.667 0 -120.834 14.667 -168.501 44zM568.503 127.997c44.333 54 66.5 130.333 66.5 229s-22 174.667 -66 228s-106.333 80 -187 80c-80 0 -142.167 -26.833 -186.5 -80.5
s-66.5 -129.5 -66.5 -227.5s22.167 -174.167 66.5 -228.5s106.5 -81.5 186.5 -81.5s142.167 27 186.5 81zM232.003 823.997v52h299v-52h-299z" />
    <glyph glyph-name="omacron" unicode="&#x14d;" horiz-adv-x="562" 
d="M160.5 25c-35 21.333 -62 51.666 -81 90.999s-28.5 85 -28.5 137s9.5 97.667 28.5 137s46 69.666 81 90.999s75.5 32 121.5 32c45.333 0 85.333 -10.667 120 -32s61.5 -51.666 80.5 -90.999s28.5 -85 28.5 -137s-9.5 -97.667 -28.5 -137s-45.833 -69.666 -80.5 -90.999
s-74.667 -32 -120 -32c-46 0 -86.5 10.667 -121.5 32zM404.5 100.5c29 35.667 43.5 86.5 43.5 152.5c0 65.333 -14.667 116.166 -44 152.499s-70 54.5 -122 54.5c-52.667 0 -93.667 -18.167 -123 -54.5s-44 -87.166 -44 -152.499c0 -66.667 14.333 -117.667 43 -153
s69.667 -53 123 -53s94.5 17.833 123.5 53.5zM132 643v52h299v-52h-299z" />
    <glyph glyph-name="Obreve" unicode="&#x14e;" horiz-adv-x="765" 
d="M213.5 36c-47.667 29.333 -84.3311 71.3301 -109.998 125.997s-38.5 119.334 -38.5 194.001s12.667 139.334 38 194.001s61.833 96.667 109.5 126s104.167 44 169.5 44s122 -14.667 170 -44s84.667 -71.166 110 -125.499s38 -118.833 38 -193.5
s-12.833 -139.5 -38.5 -194.5s-62.334 -97.167 -110.001 -126.5s-104.167 -44 -169.5 -44c-64.667 0 -120.834 14.667 -168.501 44zM568.503 127.997c44.333 54 66.5 130.333 66.5 229s-22 174.667 -66 228s-106.333 80 -187 80c-80 0 -142.167 -26.833 -186.5 -80.5
s-66.5 -129.5 -66.5 -227.5s22.167 -174.167 66.5 -228.5s106.5 -81.5 186.5 -81.5s142.167 27 186.5 81zM286.003 810.997c-28 16.667 -49.3359 43.667 -64.0029 81l45 20c16.667 -29.333 33.834 -49.5 51.501 -60.5s38.834 -16.5 63.501 -16.5c24 0 44.833 5.5 62.5 16.5
s34.834 31.167 51.501 60.5l45 -20c-28 -70.667 -81 -106 -159 -106c-36 0 -68 8.33301 -96 25z" />
    <glyph glyph-name="obreve" unicode="&#x14f;" horiz-adv-x="562" 
d="M160.5 25c-35 21.333 -62 51.666 -81 90.999s-28.5 85 -28.5 137s9.5 97.667 28.5 137s46 69.666 81 90.999s75.5 32 121.5 32c45.333 0 85.333 -10.667 120 -32s61.5 -51.666 80.5 -90.999s28.5 -85 28.5 -137s-9.5 -97.667 -28.5 -137s-45.833 -69.666 -80.5 -90.999
s-74.667 -32 -120 -32c-46 0 -86.5 10.667 -121.5 32zM404.5 100.5c29 35.667 43.5 86.5 43.5 152.5c0 65.333 -14.667 116.166 -44 152.499s-70 54.5 -122 54.5c-52.667 0 -93.667 -18.167 -123 -54.5s-44 -87.166 -44 -152.499c0 -66.667 14.333 -117.667 43 -153
s69.667 -53 123 -53s94.5 17.833 123.5 53.5zM186 629.5c-28.667 19.667 -50.333 50.167 -65 91.5l46 20c14.667 -32.667 31.5 -56.167 50.5 -70.5s40.5 -21.5 64.5 -21.5c23.333 0 44.5 7.16699 63.5 21.5s35.833 37.833 50.5 70.5l46 -19
c-14 -42 -35.333 -72.833 -64 -92.5s-60.667 -29.5 -96 -29.5s-67.333 9.83301 -96 29.5z" />
    <glyph glyph-name="Ohungarumlaut" unicode="&#x150;" horiz-adv-x="765" 
d="M213.5 36c-47.667 29.333 -84.3311 71.3301 -109.998 125.997s-38.5 119.334 -38.5 194.001s12.667 139.334 38 194.001s61.833 96.667 109.5 126s104.167 44 169.5 44s122 -14.667 170 -44s84.667 -71.166 110 -125.499s38 -118.833 38 -193.5
s-12.833 -139.5 -38.5 -194.5s-62.334 -97.167 -110.001 -126.5s-104.167 -44 -169.5 -44c-64.667 0 -120.834 14.667 -168.501 44zM568.503 127.997c44.333 54 66.5 130.333 66.5 229s-22 174.667 -66 228s-106.333 80 -187 80c-80 0 -142.167 -26.833 -186.5 -80.5
s-66.5 -129.5 -66.5 -227.5s22.167 -174.167 66.5 -228.5s106.5 -81.5 186.5 -81.5s142.167 27 186.5 81zM306.003 772.997l71 151h63l-98 -151h-36zM421.003 772.997l72 151h62l-98 -151h-36z" />
    <glyph glyph-name="ohungarumlaut" unicode="&#x151;" horiz-adv-x="562" 
d="M160.5 25c-35 21.333 -62 51.666 -81 90.999s-28.5 85 -28.5 137s9.5 97.667 28.5 137s46 69.666 81 90.999s75.5 32 121.5 32c45.333 0 85.333 -10.667 120 -32s61.5 -51.666 80.5 -90.999s28.5 -85 28.5 -137s-9.5 -97.667 -28.5 -137s-45.833 -69.666 -80.5 -90.999
s-74.667 -32 -120 -32c-46 0 -86.5 10.667 -121.5 32zM404.5 100.5c29 35.667 43.5 86.5 43.5 152.5c0 65.333 -14.667 116.166 -44 152.499s-70 54.5 -122 54.5c-52.667 0 -93.667 -18.167 -123 -54.5s-44 -87.166 -44 -152.499c0 -66.667 14.333 -117.667 43 -153
s69.667 -53 123 -53s94.5 17.833 123.5 53.5zM240 567h-34l49 203h65zM357 567h-34l49 203h65z" />
    <glyph glyph-name="OE" unicode="&#x152;" horiz-adv-x="1057" 
d="M625 659l-0.000976562 -270.002h358v-55h-358v-281h378v-53h-437v49c-50 -38 -111.667 -57 -185 -57c-64 0 -119.833 14.833 -167.5 44.5s-84.334 71.834 -110.001 126.501s-38.5 119 -38.5 193c0 74.667 12.667 139.334 38 194.001s61.833 96.667 109.5 126
s103.834 44 168.501 44c72.667 0 134.334 -18.667 185.001 -56v48h437v-53h-378zM195.499 128.498c44.333 -54.333 106.5 -81.5 186.5 -81.5c76 0 136.667 21 182 63v492c-45.333 42 -106 63 -182 63c-80 0 -142.167 -27 -186.5 -81s-66.5 -129.667 -66.5 -227
c0 -98 22.167 -174.167 66.5 -228.5z" />
    <glyph glyph-name="oe" unicode="&#x153;" horiz-adv-x="935" 
d="M887 243l-376.003 0.00390625c2 -63.333 18.5 -111.833 49.5 -145.5s74.833 -50.5 131.5 -50.5c58 0 112 20.667 162 62l25 -48c-21.333 -20 -49.166 -36.333 -83.499 -49s-68.5 -19 -102.5 -19c-51.333 0 -95.166 11.5 -131.499 34.5s-63.5 56.5 -81.5 100.5
c-16.667 -42.667 -42.167 -75.834 -76.5 -99.501s-75.166 -35.5 -122.499 -35.5c-45.333 0 -85.5 10.667 -120.5 32s-62 51.666 -81 90.999s-28.5 85 -28.5 137s9.5 97.667 28.5 137s46 69.666 81 90.999s75.167 32 120.5 32c46.667 0 87 -11.5 121 -34.5
s59.667 -55.5 77 -97.5c18 41.333 44.5 73.666 79.5 96.999s75.833 35 122.5 35c64 0 114.333 -21.333 151 -64s55 -102 55 -178v-28zM564.497 417.004c-29 -30.667 -46.168 -73.333 -51.501 -128h318c-0.666992 56 -14.167 99 -40.5 129s-63.166 45 -110.499 45
c-48 0 -86.5 -15.333 -115.5 -46zM403.996 100.505c28.667 35.667 43 86.5 43 152.5c0 65.333 -14.667 116.166 -44 152.499s-70 54.5 -122 54.5s-92.667 -18.167 -122 -54.5s-44 -87.166 -44 -152.499c0 -66.667 14.333 -117.667 43 -153s69.667 -53 123 -53
s94.333 17.833 123 53.5z" />
    <glyph glyph-name="Racute" unicode="&#x154;" horiz-adv-x="688" 
d="M640 0l-64.002 0.000976562l-89 237c-11.333 32 -27 53.5 -47 64.5s-49 16.5 -87 16.5h-199v-318h-62v712h275c74 0 131.333 -16.833 172 -50.5s61 -81.834 61 -144.501c0 -46 -12.167 -84.667 -36.5 -116s-59.166 -53.333 -104.499 -66
c20.667 -3.33301 38.334 -12 53.001 -26s27 -34.667 37 -62zM362.998 372.001c116.667 0 175 48.667 175 146c0 94 -58.333 141 -175 141h-210v-287h210zM362.998 773.001h-47l101 151h75z" />
    <glyph glyph-name="racute" unicode="&#x155;" horiz-adv-x="349" 
d="M343 509l-3.00098 -55c-12.667 2.66699 -28 4 -46 4c-50.667 0 -88.5 -16.167 -113.5 -48.5s-37.5 -70.833 -37.5 -115.5v-294h-60v362c0 52 -2.66699 98.333 -8 139h58l8 -93c12.667 34 33.167 60 61.5 78s60.5 27 96.5 27c16.667 0 31.334 -1.33301 44.001 -4z
M237.999 567h-47l101 203h78z" />
    <glyph glyph-name="Rcommaaccent" unicode="&#x156;" horiz-adv-x="688" 
d="M640 0l-64.002 0.000976562l-89 237c-11.333 32 -27 53.5 -47 64.5s-49 16.5 -87 16.5h-199v-318h-62v712h275c74 0 131.333 -16.833 172 -50.5s61 -81.834 61 -144.501c0 -46 -12.167 -84.667 -36.5 -116s-59.166 -53.333 -104.499 -66
c20.667 -3.33301 38.334 -12 53.001 -26s27 -34.667 37 -62zM362.998 372.001c116.667 0 175 48.667 175 146c0 94 -58.333 141 -175 141h-210v-287h210zM381.998 -74.999v-56.001c0 -25.333 -3.66699 -48.166 -11 -68.499s-20 -39.833 -38 -58.5l-32 25
c13.333 14 22.5 27.5 27.5 40.5s7.83301 27.5 8.5 43.5h-40v74h85z" />
    <glyph glyph-name="rcommaaccent" unicode="&#x157;" horiz-adv-x="349" 
d="M343 509l-3.00098 -55c-12.667 2.66699 -28 4 -46 4c-50.667 0 -88.5 -16.167 -113.5 -48.5s-37.5 -70.833 -37.5 -115.5v-294h-60v362c0 52 -2.66699 98.333 -8 139h58l8 -93c12.667 34 33.167 60 61.5 78s60.5 27 96.5 27c16.667 0 31.334 -1.33301 44.001 -4z
M156.999 -75v-56.001c0 -25.333 -3.66699 -48.166 -11 -68.499s-20 -39.833 -38 -58.5l-32 25c13.333 14 22.5 27.5 27.5 40.5s7.83301 27.5 8.5 43.5h-40v74h85z" />
    <glyph glyph-name="Rcaron" unicode="&#x158;" horiz-adv-x="688" 
d="M640 0l-64.002 0.000976562l-89 237c-11.333 32 -27 53.5 -47 64.5s-49 16.5 -87 16.5h-199v-318h-62v712h275c74 0 131.333 -16.833 172 -50.5s61 -81.834 61 -144.501c0 -46 -12.167 -84.667 -36.5 -116s-59.166 -53.333 -104.499 -66
c20.667 -3.33301 38.334 -12 53.001 -26s27 -34.667 37 -62zM362.998 372.001c116.667 0 175 48.667 175 146c0 94 -58.333 141 -175 141h-210v-287h210zM415.998 924.001h63l-116 -151h-47l-116 151h63l77 -109z" />
    <glyph glyph-name="rcaron" unicode="&#x159;" horiz-adv-x="349" 
d="M343 509l-3.00098 -55c-12.667 2.66699 -28 4 -46 4c-50.667 0 -88.5 -16.167 -113.5 -48.5s-37.5 -70.833 -37.5 -115.5v-294h-60v362c0 52 -2.66699 98.333 -8 139h58l8 -93c12.667 34 33.167 60 61.5 78s60.5 27 96.5 27c16.667 0 31.334 -1.33301 44.001 -4z
M290.999 770h63l-115 -203h-49l-115 203h63l77 -153z" />
    <glyph glyph-name="Sacute" unicode="&#x15a;" horiz-adv-x="613" 
d="M164.5 14.5c-43 15 -81.166 38.499 -114.499 70.499l26 49c35.333 -31.333 71.166 -53.666 107.499 -66.999s79.5 -20 129.5 -20c60 0 106.667 12.333 140 37s50 59.334 50 104.001c0 26 -8.16699 47.167 -24.5 63.5s-37 29.166 -62 38.499s-58.167 18.666 -99.5 27.999
c-54.667 12 -99.167 24.5 -133.5 37.5s-63.166 32.5 -86.499 58.5s-35 60.667 -35 104c0 40 10.333 75.333 31 106s50.167 54.334 88.5 71.001s82.833 25 133.5 25c48.667 0 93.667 -7.83301 135 -23.5s77 -38.834 107 -69.501l-26 -49c-33.333 30 -67.333 52 -102 66
s-72.667 21 -114 21c-60 0 -106.833 -13 -140.5 -39s-50.5 -61.667 -50.5 -107c0 -39.333 14.667 -68.666 44 -87.999s72.333 -35.666 129 -48.999l29 -7c53.333 -12.667 95.666 -25 126.999 -37s58 -30 80 -54s33 -56 33 -96c0 -38.667 -10.333 -72.834 -31 -102.501
s-50.167 -52.667 -88.5 -69s-82.833 -24.5 -133.5 -24.5c-56 0 -105.5 7.5 -148.5 22.5zM330.001 772.999h-47l101 151h75z" />
    <glyph glyph-name="sacute" unicode="&#x15b;" horiz-adv-x="494" 
d="M53 60l22 46.999c26.667 -22 53.5 -37.667 80.5 -47s58.167 -14 93.5 -14c41.333 0 72.833 7.16699 94.5 21.5s32.5 35.166 32.5 62.499c0 22.667 -7.16699 40.5 -21.5 53.5s-37.833 23.5 -70.5 31.5l-85 19c-40 9.33301 -71.5 26 -94.5 50s-34.5 52 -34.5 84
c0 44 16.833 79.167 50.5 105.5s78.5 39.5 134.5 39.5c35.333 0 68.166 -5.66699 98.499 -17s55.5 -27.666 75.5 -48.999l-23 -47c-46 40 -96.333 60 -151 60c-38.667 0 -68.667 -7.66699 -90 -23s-32 -36.666 -32 -63.999c0 -22.667 6.83301 -41 20.5 -55
s34.834 -24.333 63.501 -31l86 -21c90 -20 135 -64.333 135 -133c0 -42 -17.333 -75.833 -52 -101.5s-81.334 -38.5 -140.001 -38.5c-81.333 0 -145.666 22.333 -192.999 67zM278 566.999h-47l101 203h78z" />
    <glyph glyph-name="Scircumflex" unicode="&#x15c;" horiz-adv-x="613" 
d="M164.5 14.5c-43 15 -81.166 38.499 -114.499 70.499l26 49c35.333 -31.333 71.166 -53.666 107.499 -66.999s79.5 -20 129.5 -20c60 0 106.667 12.333 140 37s50 59.334 50 104.001c0 26 -8.16699 47.167 -24.5 63.5s-37 29.166 -62 38.499s-58.167 18.666 -99.5 27.999
c-54.667 12 -99.167 24.5 -133.5 37.5s-63.166 32.5 -86.499 58.5s-35 60.667 -35 104c0 40 10.333 75.333 31 106s50.167 54.334 88.5 71.001s82.833 25 133.5 25c48.667 0 93.667 -7.83301 135 -23.5s77 -38.834 107 -69.501l-26 -49c-33.333 30 -67.333 52 -102 66
s-72.667 21 -114 21c-60 0 -106.833 -13 -140.5 -39s-50.5 -61.667 -50.5 -107c0 -39.333 14.667 -68.666 44 -87.999s72.333 -35.666 129 -48.999l29 -7c53.333 -12.667 95.666 -25 126.999 -37s58 -30 80 -54s33 -56 33 -96c0 -38.667 -10.333 -72.834 -31 -102.501
s-50.167 -52.667 -88.5 -69s-82.833 -24.5 -133.5 -24.5c-56 0 -105.5 7.5 -148.5 22.5zM230.001 772.999h-63l116 151h47l116 -151h-63l-76 109z" />
    <glyph glyph-name="scircumflex" unicode="&#x15d;" horiz-adv-x="494" 
d="M53 60l22 46.999c26.667 -22 53.5 -37.667 80.5 -47s58.167 -14 93.5 -14c41.333 0 72.833 7.16699 94.5 21.5s32.5 35.166 32.5 62.499c0 22.667 -7.16699 40.5 -21.5 53.5s-37.833 23.5 -70.5 31.5l-85 19c-40 9.33301 -71.5 26 -94.5 50s-34.5 52 -34.5 84
c0 44 16.833 79.167 50.5 105.5s78.5 39.5 134.5 39.5c35.333 0 68.166 -5.66699 98.499 -17s55.5 -27.666 75.5 -48.999l-23 -47c-46 40 -96.333 60 -151 60c-38.667 0 -68.667 -7.66699 -90 -23s-32 -36.666 -32 -63.999c0 -22.667 6.83301 -41 20.5 -55
s34.834 -24.333 63.501 -31l86 -21c90 -20 135 -64.333 135 -133c0 -42 -17.333 -75.833 -52 -101.5s-81.334 -38.5 -140.001 -38.5c-81.333 0 -145.666 22.333 -192.999 67zM178 566.999h-63l115 203h49l115 -203h-63l-76 152z" />
    <glyph glyph-name="Scedilla" unicode="&#x15e;" horiz-adv-x="613" 
d="M536.5 87.5c-19.667 -29 -47.499 -51.835 -83.499 -68.502s-78.333 -25.667 -127 -27l-4 -36c9.33301 2 18.333 3 27 3c20 0 37.5 -6 52.5 -18s22.5 -29.333 22.5 -52c0 -24 -10 -43.667 -30 -59s-47.333 -23 -82 -23c-14.667 0 -30 1.5 -46 4.5
s-29.667 7.83301 -41 14.5l14 39c22 -9.33301 47 -14 75 -14c19.333 0 33.833 3.33301 43.5 10s14.5 16 14.5 28c0 9.33301 -3 16.5 -9 21.5s-15 7.5 -27 7.5c-12.667 0 -29 -3.33301 -49 -10l-19 15l7 70c-46.667 3.33301 -88.5 12.5 -125.5 27.5s-70.167 36.5 -99.5 64.5
l26 49c35.333 -31.333 71.166 -53.666 107.499 -66.999s79.5 -20 129.5 -20c60 0 106.667 12.333 140 37s50 59.334 50 104.001c0 26 -8.16699 47.167 -24.5 63.5s-37 29.166 -62 38.499s-58.167 18.666 -99.5 27.999c-54.667 12 -99.167 24.5 -133.5 37.5
s-63.166 32.5 -86.499 58.5s-35 60.667 -35 104c0 40 10.333 75.333 31 106s50.167 54.334 88.5 71.001s82.833 25 133.5 25c48.667 0 93.667 -7.83301 135 -23.5s77 -38.834 107 -69.501l-26 -49c-33.333 30 -67.333 52 -102 66s-72.667 21 -114 21
c-60 0 -106.833 -13 -140.5 -39s-50.5 -61.667 -50.5 -107c0 -39.333 14.667 -68.666 44 -87.999s72.333 -35.666 129 -48.999l29 -7c53.333 -12.667 95.666 -25 126.999 -37s58 -30 80 -54s33 -56 33 -96c0 -38 -9.83301 -71.5 -29.5 -100.5z" />
    <glyph glyph-name="scedilla" unicode="&#x15f;" horiz-adv-x="494" 
d="M390 34.5c-32 -25 -75.333 -38.834 -130 -41.501l-4 -37c9.33301 2 18.333 3 27 3c20 0 37.5 -6 52.5 -18s22.5 -29.333 22.5 -52c0 -24 -10 -43.667 -30 -59s-47.333 -23 -82 -23c-14.667 0 -30 1.5 -46 4.5s-29.667 7.83301 -41 14.5l14 39c22 -9.33301 47 -14 75 -14
c19.333 0 33.833 3.33301 43.5 10s14.5 16 14.5 28c0 9.33301 -3 16.5 -9 21.5s-15 7.5 -27 7.5c-12.667 0 -29 -3.33301 -49 -10l-19 15l7 72c-65.333 6 -117.333 27.667 -156 65l22 47c26.667 -22 53.5 -37.667 80.5 -47s58.167 -14 93.5 -14
c41.333 0 72.833 7.16699 94.5 21.5s32.5 35.166 32.5 62.499c0 22.667 -7.16699 40.5 -21.5 53.5s-37.833 23.5 -70.5 31.5l-85 19c-40 9.33301 -71.5 26 -94.5 50s-34.5 52 -34.5 84c0 44 16.833 79.167 50.5 105.5s78.5 39.5 134.5 39.5
c35.333 0 68.166 -5.66699 98.499 -17s55.5 -27.666 75.5 -48.999l-23 -47c-46 40 -96.333 60 -151 60c-38.667 0 -68.667 -7.66699 -90 -23s-32 -36.666 -32 -63.999c0 -22.667 6.83301 -41 20.5 -55s34.834 -24.333 63.501 -31l86 -21c90 -20 135 -64.333 135 -133
c0 -40.667 -16 -73.5 -48 -98.5z" />
    <glyph glyph-name="Scaron" unicode="&#x160;" horiz-adv-x="613" 
d="M164.5 14.5c-43 15 -81.166 38.499 -114.499 70.499l26 49c35.333 -31.333 71.166 -53.666 107.499 -66.999s79.5 -20 129.5 -20c60 0 106.667 12.333 140 37s50 59.334 50 104.001c0 26 -8.16699 47.167 -24.5 63.5s-37 29.166 -62 38.499s-58.167 18.666 -99.5 27.999
c-54.667 12 -99.167 24.5 -133.5 37.5s-63.166 32.5 -86.499 58.5s-35 60.667 -35 104c0 40 10.333 75.333 31 106s50.167 54.334 88.5 71.001s82.833 25 133.5 25c48.667 0 93.667 -7.83301 135 -23.5s77 -38.834 107 -69.501l-26 -49c-33.333 30 -67.333 52 -102 66
s-72.667 21 -114 21c-60 0 -106.833 -13 -140.5 -39s-50.5 -61.667 -50.5 -107c0 -39.333 14.667 -68.666 44 -87.999s72.333 -35.666 129 -48.999l29 -7c53.333 -12.667 95.666 -25 126.999 -37s58 -30 80 -54s33 -56 33 -96c0 -38.667 -10.333 -72.834 -31 -102.501
s-50.167 -52.667 -88.5 -69s-82.833 -24.5 -133.5 -24.5c-56 0 -105.5 7.5 -148.5 22.5zM383.001 923.999h63l-116 -151h-47l-116 151h63l77 -109z" />
    <glyph glyph-name="scaron" unicode="&#x161;" horiz-adv-x="494" 
d="M53 60l22 46.999c26.667 -22 53.5 -37.667 80.5 -47s58.167 -14 93.5 -14c41.333 0 72.833 7.16699 94.5 21.5s32.5 35.166 32.5 62.499c0 22.667 -7.16699 40.5 -21.5 53.5s-37.833 23.5 -70.5 31.5l-85 19c-40 9.33301 -71.5 26 -94.5 50s-34.5 52 -34.5 84
c0 44 16.833 79.167 50.5 105.5s78.5 39.5 134.5 39.5c35.333 0 68.166 -5.66699 98.499 -17s55.5 -27.666 75.5 -48.999l-23 -47c-46 40 -96.333 60 -151 60c-38.667 0 -68.667 -7.66699 -90 -23s-32 -36.666 -32 -63.999c0 -22.667 6.83301 -41 20.5 -55
s34.834 -24.333 63.501 -31l86 -21c90 -20 135 -64.333 135 -133c0 -42 -17.333 -75.833 -52 -101.5s-81.334 -38.5 -140.001 -38.5c-81.333 0 -145.666 22.333 -192.999 67zM331 769.999h63l-115 -203h-49l-115 203h63l77 -153z" />
    <glyph glyph-name="uni0162" unicode="&#x162;" horiz-adv-x="596" 
d="M314 0l-5 -44c9.33301 2 18.333 3 27 3c20 0 37.5 -6 52.5 -18s22.5 -29.333 22.5 -52c0 -24 -10 -43.667 -30 -59s-47.333 -23 -82 -23c-14.667 0 -30 1.5 -46 4.5s-29.667 7.83301 -41 14.5l14 39c22 -9.33301 47 -14 75 -14c19.333 0 33.833 3.33301 43.5 10
s14.5 16 14.5 28c0 9.33301 -3 16.5 -9 21.5s-15 7.5 -27 7.5c-12.667 0 -29 -3.33301 -49 -10l-19 15l10 97h2v638h-255v54h572v-54h-255v-658h-15z" />
    <glyph glyph-name="uni0163" unicode="&#x163;" horiz-adv-x="337" 
d="M308.5 -59c15 -12 22.5 -29.333 22.5 -52c0 -24 -10 -43.667 -30 -59s-47.333 -23 -82 -23c-14.667 0 -30 1.5 -46 4.5s-29.667 7.83301 -41 14.5l14 39c22 -9.33301 47 -14 75 -14c19.333 0 33.833 3.33301 43.5 10s14.5 16 14.5 28c0 9.33301 -3 16.5 -9 21.5
s-15 7.5 -27 7.5c-12.667 0 -29 -3.33301 -49 -10l-19 15l8 82c-24 10 -42.667 26.5 -56 49.5s-20 52.167 -20 87.5v310h-99v49h99v133l61 23v-156h148v-49h-148v-298c0 -40 7.66699 -67.667 23 -83s38 -23 68 -23c18.667 0 36.667 3 54 9v-55
c-21.333 -5.33301 -43 -8 -65 -8h-15l-4 -38c9.33301 2 18.333 3 27 3c20 0 37.5 -6 52.5 -18z" />
    <glyph glyph-name="Tcaron" unicode="&#x164;" horiz-adv-x="596" 
d="M267 0v658h-255v54h572v-54h-255v-658h-62zM374 924h63l-116 -151h-47l-116 151h63l77 -109z" />
    <glyph glyph-name="tcaron" unicode="&#x165;" horiz-adv-x="337" 
d="M285 714l-26 -172h-37v172h63zM168 452v-298c0 -40 7.66699 -67.667 23 -83s38 -23 68 -23c18.667 0 36.667 3 54 9v-55c-21.333 -5.33301 -43 -8 -65 -8c-44 0 -78.5 12.333 -103.5 37s-37.5 61.667 -37.5 111v310h-99v49h99v133l61 23v-156h148v-49h-148z" />
    <glyph glyph-name="Tbar" unicode="&#x166;" horiz-adv-x="596" 
d="M584 658h-255v-271h146v-52h-146v-335h-62v335h-146v52h146v271h-255v54h572v-54z" />
    <glyph glyph-name="tbar" unicode="&#x167;" horiz-adv-x="347" 
d="M173 452v-138h127v-48h-127v-112c0 -40 7.83301 -67.667 23.5 -83s38.167 -23 67.5 -23c18.667 0 36.667 3 54 9v-55c-21.333 -5.33301 -43 -8 -65 -8c-44 0 -78.5 12.333 -103.5 37s-37.5 61.667 -37.5 111v124h-78v48h78v138h-99v49h99v133l61 23v-156h148v-49h-148z
" />
    <glyph glyph-name="Utilde" unicode="&#x168;" horiz-adv-x="726" 
d="M157.5 63.5c-47 47.667 -70.5 117.834 -70.5 210.501v438h62v-445c0 -146.667 71.667 -220 215 -220c70 0 123.167 18.5 159.5 55.5s54.5 91.833 54.5 164.5v445h61v-438c0 -92.667 -23.333 -162.834 -70 -210.501s-115 -71.5 -205 -71.5
c-90.667 0 -159.5 23.833 -206.5 71.5zM227.5 876.5c15 19 35.833 28.5 62.5 28.5c14 0 27.333 -2.83301 40 -8.5s28 -14.167 46 -25.5c14 -8.66699 25.333 -15.167 34 -19.5s17 -6.5 25 -6.5c15.333 0 27.166 5.66699 35.499 17s12.5 24.666 12.5 39.999h39
c0 -33.333 -7.5 -59.333 -22.5 -78s-35.833 -28 -62.5 -28c-14 0 -27.5 2.83301 -40.5 8.5s-28.167 13.834 -45.5 24.501c-15.333 9.33301 -27 15.833 -35 19.5s-16 5.5 -24 5.5c-15.333 0 -27.166 -5.33301 -35.499 -16s-12.5 -23.667 -12.5 -39h-39
c0 32.667 7.5 58.5 22.5 77.5z" />
    <glyph glyph-name="utilde" unicode="&#x169;" horiz-adv-x="569" 
d="M486 501l0.000976562 -501.001h-59v91c-16 -32 -38.667 -56.333 -68 -73s-63 -25 -101 -25c-58.667 0 -103 16.333 -133 49s-45 81 -45 145v314h60v-310c0 -49.333 10 -85.666 30 -108.999s51 -35 93 -35c49.333 0 88.666 15.5 117.999 46.5s44 72.167 44 123.5v284h61z
M147.501 695.999c15 18.667 35.833 28 62.5 28c14 0 27.333 -2.83301 40 -8.5s28 -14.167 46 -25.5c15.333 -9.33301 27 -15.833 35 -19.5s16 -5.5 24 -5.5c15.333 0 27.166 5.5 35.499 16.5s12.5 24.167 12.5 39.5h39c0 -33.333 -7.5 -59.333 -22.5 -78
s-35.833 -28 -62.5 -28c-14 0 -27.333 2.83301 -40 8.5s-28 14.167 -46 25.5c-15.333 9.33301 -27 15.833 -35 19.5s-16 5.5 -24 5.5c-15.333 0 -27.166 -5.5 -35.499 -16.5s-12.5 -24.167 -12.5 -39.5h-39c0 33.333 7.5 59.333 22.5 78z" />
    <glyph glyph-name="Umacron" unicode="&#x16a;" horiz-adv-x="726" 
d="M157.5 63.5c-47 47.667 -70.5 117.834 -70.5 210.501v438h62v-445c0 -146.667 71.667 -220 215 -220c70 0 123.167 18.5 159.5 55.5s54.5 91.833 54.5 164.5v445h61v-438c0 -92.667 -23.333 -162.834 -70 -210.501s-115 -71.5 -205 -71.5
c-90.667 0 -159.5 23.833 -206.5 71.5zM214 824v52h299v-52h-299z" />
    <glyph glyph-name="umacron" unicode="&#x16b;" horiz-adv-x="569" 
d="M486 501l0.000976562 -501.001h-59v91c-16 -32 -38.667 -56.333 -68 -73s-63 -25 -101 -25c-58.667 0 -103 16.333 -133 49s-45 81 -45 145v314h60v-310c0 -49.333 10 -85.666 30 -108.999s51 -35 93 -35c49.333 0 88.666 15.5 117.999 46.5s44 72.167 44 123.5v284h61z
M134.001 642.999v52h299v-52h-299z" />
    <glyph glyph-name="Ubreve" unicode="&#x16c;" horiz-adv-x="726" 
d="M157.5 63.5c-47 47.667 -70.5 117.834 -70.5 210.501v438h62v-445c0 -146.667 71.667 -220 215 -220c70 0 123.167 18.5 159.5 55.5s54.5 91.833 54.5 164.5v445h61v-438c0 -92.667 -23.333 -162.834 -70 -210.501s-115 -71.5 -205 -71.5
c-90.667 0 -159.5 23.833 -206.5 71.5zM268 811c-28 16.667 -49.3359 43.667 -64.0029 81l45 20c16.667 -29.333 33.834 -49.5 51.501 -60.5s38.834 -16.5 63.501 -16.5c24 0 44.833 5.5 62.5 16.5s34.834 31.167 51.501 60.5l45 -20c-28 -70.667 -81 -106 -159 -106
c-36 0 -68 8.33301 -96 25z" />
    <glyph glyph-name="ubreve" unicode="&#x16d;" horiz-adv-x="569" 
d="M486 501l0.000976562 -501.001h-59v91c-16 -32 -38.667 -56.333 -68 -73s-63 -25 -101 -25c-58.667 0 -103 16.333 -133 49s-45 81 -45 145v314h60v-310c0 -49.333 10 -85.666 30 -108.999s51 -35 93 -35c49.333 0 88.666 15.5 117.999 46.5s44 72.167 44 123.5v284h61z
M188.001 629.499c-28.667 19.667 -50.333 50.167 -65 91.5l46 20c14.667 -32.667 31.5 -56.167 50.5 -70.5s40.5 -21.5 64.5 -21.5c23.333 0 44.5 7.16699 63.5 21.5s35.833 37.833 50.5 70.5l46 -19c-14 -42 -35.333 -72.833 -64 -92.5s-60.667 -29.5 -96 -29.5
s-67.333 9.83301 -96 29.5z" />
    <glyph glyph-name="Uring" unicode="&#x16e;" horiz-adv-x="726" 
d="M157.5 63.5c-47 47.667 -70.5 117.834 -70.5 210.501v438h62v-445c0 -146.667 71.667 -220 215 -220c70 0 123.167 18.5 159.5 55.5s54.5 91.833 54.5 164.5v445h61v-438c0 -92.667 -23.333 -162.834 -70 -210.501s-115 -71.5 -205 -71.5
c-90.667 0 -159.5 23.833 -206.5 71.5zM293 796c-19.333 18.667 -29 42 -29 70c0 26.667 9.83301 49.667 29.5 69s43.167 29 70.5 29s50.666 -9.66699 69.999 -29s29 -42.333 29 -69c0 -28 -9.66699 -51.333 -29 -70s-42.666 -28 -69.999 -28c-28 0 -51.667 9.33301 -71 28z
M400 828c9.33301 10 14 22.667 14 38c0 14.667 -4.66699 26.834 -14 36.501s-21.333 14.5 -36 14.5s-26.834 -4.83301 -36.501 -14.5s-14.5 -21.834 -14.5 -36.501c0 -15.333 4.83301 -28 14.5 -38s21.834 -15 36.501 -15s26.667 5 36 15z" />
    <glyph glyph-name="uring" unicode="&#x16f;" horiz-adv-x="569" 
d="M486 501l0.000976562 -501.001h-59v91c-16 -32 -38.667 -56.333 -68 -73s-63 -25 -101 -25c-58.667 0 -103 16.333 -133 49s-45 81 -45 145v314h60v-310c0 -49.333 10 -85.666 30 -108.999s51 -35 93 -35c49.333 0 88.666 15.5 117.999 46.5s44 72.167 44 123.5v284h61z
M213.001 598.999c-19.333 18.667 -29 42 -29 70c0 26.667 9.83301 49.334 29.5 68.001s43.167 28 70.5 28s50.666 -9.33301 69.999 -28s29 -41.334 29 -68.001c0 -28 -9.66699 -51.333 -29 -70s-42.666 -28 -69.999 -28c-28 0 -51.667 9.33301 -71 28zM320.001 630.999
c9.33301 10 14 22.667 14 38c0 14 -4.83301 26 -14.5 36s-21.5 15 -35.5 15c-14.667 0 -26.834 -5 -36.501 -15s-14.5 -22 -14.5 -36c0 -15.333 4.83301 -28 14.5 -38s21.834 -15 36.501 -15s26.667 5 36 15z" />
    <glyph glyph-name="Uhungarumlaut" unicode="&#x170;" horiz-adv-x="726" 
d="M157.5 63.5c-47 47.667 -70.5 117.834 -70.5 210.501v438h62v-445c0 -146.667 71.667 -220 215 -220c70 0 123.167 18.5 159.5 55.5s54.5 91.833 54.5 164.5v445h61v-438c0 -92.667 -23.333 -162.834 -70 -210.501s-115 -71.5 -205 -71.5
c-90.667 0 -159.5 23.833 -206.5 71.5zM288 773l71 151h63l-98 -151h-36zM403 773l72 151h62l-98 -151h-36z" />
    <glyph glyph-name="uhungarumlaut" unicode="&#x171;" horiz-adv-x="569" 
d="M486 501l0.000976562 -501.001h-59v91c-16 -32 -38.667 -56.333 -68 -73s-63 -25 -101 -25c-58.667 0 -103 16.333 -133 49s-45 81 -45 145v314h60v-310c0 -49.333 10 -85.666 30 -108.999s51 -35 93 -35c49.333 0 88.666 15.5 117.999 46.5s44 72.167 44 123.5v284h61z
M242.001 566.999h-34l49 203h65zM359.001 566.999h-34l49 203h65z" />
    <glyph glyph-name="Uogonek" unicode="&#x172;" horiz-adv-x="726" 
d="M639 712l-0.000976562 -438.001c0 -72 -14 -130.333 -42 -175s-69.667 -75.667 -125 -93c-30 -9.33301 -51.833 -21 -65.5 -35s-20.5 -31.667 -20.5 -53c0 -20 6 -35.833 18 -47.5s28.333 -17.5 49 -17.5c17.333 0 37.333 6 60 18l16 -42
c-23.333 -14.667 -50.666 -22 -81.999 -22c-34 0 -61.667 9.66699 -83 29s-32 44.333 -32 75c0 34 12.667 61 38 81h-6c-90.667 0 -159.5 23.833 -206.5 71.5s-70.5 117.834 -70.5 210.501v438h62v-445c0 -146.667 71.667 -220 215 -220c70 0 123.167 18.5 159.5 55.5
s54.5 91.833 54.5 164.5v445h61z" />
    <glyph glyph-name="uogonek" unicode="&#x173;" horiz-adv-x="569" 
d="M534 -175c-24 -14.667 -51.998 -21.999 -83.998 -21.999c-34.667 0 -62.834 9.83301 -84.501 29.5s-32.5 45.167 -32.5 76.5c0 27.333 8.16699 51.666 24.5 72.999s39.5 37.333 69.5 48v61c-16 -32 -38.667 -56.333 -68 -73s-63 -25 -101 -25
c-58.667 0 -103 16.333 -133 49s-45 81 -45 145v314h60v-310c0 -49.333 10 -85.666 30 -108.999s51 -35 93 -35c49.333 0 88.666 15.5 117.999 46.5s44 72.167 44 123.5v284h61v-501h-5c-27.333 0 -49.833 -7.83301 -67.5 -23.5s-26.5 -35.834 -26.5 -60.501
c0 -20.667 6.16699 -37.167 18.5 -49.5s29.5 -18.5 51.5 -18.5c18.667 0 38.667 6.66699 60 20z" />
    <glyph glyph-name="Wcircumflex" unicode="&#x174;" horiz-adv-x="1107" 
d="M1008 712h62l-248 -712h-54l-214 613l-215 -613h-53l-248 712h62l214 -626l216 626l49 -1l215 -623zM476 773h-63l116 151h47l116 -151h-63l-76 109z" />
    <glyph glyph-name="wcircumflex" unicode="&#x175;" horiz-adv-x="863" 
d="M767 501h62l-182 -501h-63l-152 423l-153 -423h-64l-181 501h65l148 -428l156 428h61l151 -428zM355 567h-63l115 203h49l115 -203h-63l-76 152z" />
    <glyph glyph-name="Ycircumflex" unicode="&#x176;" horiz-adv-x="597" 
d="M604 712l-275 -419v-293h-62v295l-275 417h72l235 -363l235 363h70zM221 773h-63l116 151h47l116 -151h-63l-76 109z" />
    <glyph glyph-name="ycircumflex" unicode="&#x177;" horiz-adv-x="525" 
d="M508 501l-236 -552.998c-23.333 -54.667 -52.5 -94.834 -87.5 -120.501s-78.833 -43.834 -131.5 -54.501l-12 48c48 11.333 84.167 26 108.5 44s44.833 46.333 61.5 85l21 49l-214 502h65l181 -440l182 440h62zM186 567.002h-63l115 203h49l115 -203h-63l-76 152z" />
    <glyph glyph-name="Ydieresis" unicode="&#x178;" horiz-adv-x="597" 
d="M604 712l-275 -419v-293h-62v295l-275 417h72l235 -363l235 363h70zM176 886h75v-73h-75v73zM344 886h75v-73h-75v73z" />
    <glyph glyph-name="Zacute" unicode="&#x179;" horiz-adv-x="590" 
d="M116 53h436v-53h-508v45l426 614h-426v53h498v-45zM317 773h-47l101 151h75z" />
    <glyph glyph-name="zacute" unicode="&#x17a;" horiz-adv-x="515" 
d="M129 50h340v-50h-418v42l333 410h-321v49h395v-46zM284 567h-47l101 203h78z" />
    <glyph glyph-name="Zdotaccent" unicode="&#x17b;" horiz-adv-x="590" 
d="M116 53h436v-53h-508v45l426 614h-426v53h498v-45zM253 889h81v-78h-81v78z" />
    <glyph glyph-name="zdotaccent" unicode="&#x17c;" horiz-adv-x="515" 
d="M129 50h340v-50h-418v42l333 410h-321v49h395v-46zM220 708h81v-78h-81v78z" />
    <glyph glyph-name="Zcaron" unicode="&#x17d;" horiz-adv-x="590" 
d="M116 53h436v-53h-508v45l426 614h-426v53h498v-45zM370 924h63l-116 -151h-47l-116 151h63l77 -109z" />
    <glyph glyph-name="zcaron" unicode="&#x17e;" horiz-adv-x="515" 
d="M129 50h340v-50h-418v42l333 410h-321v49h395v-46zM337 770h63l-115 -203h-49l-115 203h63l77 -153z" />
    <glyph glyph-name="uni018F" unicode="&#x18f;" horiz-adv-x="743" 
d="M523.5 676.5c49.667 -29 87.834 -70.8291 114.501 -125.496s40 -119.334 40 -194.001s-12.5 -139.334 -37.5 -194.001s-60.5 -96.834 -106.5 -126.501s-100 -44.5 -162 -44.5c-62.667 0 -117 14.5 -163 43.5s-81.5 70.667 -106.5 125s-37.5 118.5 -37.5 192.5v36h548
c-5.33301 88.667 -30.833 157 -76.5 205s-108.167 72 -187.5 72c-86.667 0 -162.667 -29.333 -228 -88l-26 49c30.667 29.333 68.167 52.166 112.5 68.499s91.166 24.5 140.499 24.5c67.333 0 125.833 -14.5 175.5 -43.5zM545 122.004c42 50 65 120.333 69 211h-486
c4 -90.667 27.167 -161 69.5 -211s100.5 -75 174.5 -75c73.333 0 131 25 173 75z" />
    <glyph glyph-name="florin" unicode="&#x192;" horiz-adv-x="600" 
d="M556 716v-51h-45c-32.667 0 -58.5 -8.33301 -77.5 -25s-32.5 -44.667 -40.5 -84l-14 -65h129v-50h-140l-100 -471c-23.333 -104.667 -83.333 -157 -180 -157h-45v52h45c32.667 0 58.5 8.5 77.5 25.5s32.5 44.833 40.5 83.5l100 467h-127v50h137l15 69
c23.333 104 83.333 156 180 156h45z" />
    <glyph glyph-name="Ohorn" unicode="&#x1a0;" horiz-adv-x="765" 
d="M663 711.5c-24.667 -25.667 -59.001 -39.834 -103.001 -42.501c45.333 -30 80 -71.5 104 -124.5s36 -115.5 36 -187.5c0 -74.667 -12.833 -139.5 -38.5 -194.5s-62.5 -97.167 -110.5 -126.5s-104.333 -44 -169 -44c-64 0 -120 14.667 -168 44s-84.833 71.5 -110.5 126.5
s-38.5 119.5 -38.5 193.5c0 74.667 12.833 139.334 38.5 194.001s62.5 96.667 110.5 126s105.333 44 172 44c18 0 43.667 -1.33301 77 -4c30.667 -2.66699 52 -4 64 -4c42.667 0.666992 72.834 9.5 90.501 26.5s26.5 45.833 26.5 86.5v14h56v-23
c0 -44 -12.333 -78.833 -37 -104.5zM568.999 585c-44 53.333 -106.333 80 -187 80c-80 0 -142.167 -26.833 -186.5 -80.5s-66.5 -129.5 -66.5 -227.5s22.167 -174.167 66.5 -228.5s106.5 -81.5 186.5 -81.5s142.167 27 186.5 81s66.5 130.333 66.5 229s-22 174.667 -66 228z
" />
    <glyph glyph-name="ohorn" unicode="&#x1a1;" horiz-adv-x="562" 
d="M485.5 382.5c17 -37 25.5 -80.165 25.5 -129.498c0 -52 -9.5 -97.667 -28.5 -137s-45.833 -69.666 -80.5 -90.999s-74.667 -32 -120 -32c-46 0 -86.5 10.667 -121.5 32s-62 51.666 -81 90.999s-28.5 85 -28.5 137s9.5 97.667 28.5 137s46 69.666 81 90.999
s75.167 32 120.5 32c10 0 18.5 -0.333008 25.5 -1s12.833 -1.33398 17.5 -2.00098c10.667 -2 20 -3 28 -3c34.667 0 60 9 76 27s24 47.667 24 89v13h56v-23c0 -36 -8.16699 -66.167 -24.5 -90.5s-39.833 -41.5 -70.5 -51.5c31.333 -22 55.5 -51.5 72.5 -88.5zM404.5 100.502
c29 35.667 43.5 86.5 43.5 152.5c0 65.333 -14.667 116.166 -44 152.499s-70 54.5 -122 54.5c-52.667 0 -93.667 -18.167 -123 -54.5s-44 -87.166 -44 -152.499c0 -66.667 14.333 -117.667 43 -153s69.667 -53 123 -53s94.5 17.833 123.5 53.5z" />
    <glyph glyph-name="Uhorn" unicode="&#x1af;" horiz-adv-x="726" 
d="M759 839l0.000976562 -23c0 -40.667 -10.333 -73.5 -31 -98.5s-50.334 -40.5 -89.001 -46.5v-397c0 -92.667 -23.333 -162.834 -70 -210.501s-115 -71.5 -205 -71.5c-90.667 0 -159.5 23.833 -206.5 71.5s-70.5 117.834 -70.5 210.501v438h62v-445
c0 -146.667 71.667 -220 215 -220c70 0 123.167 18.5 159.5 55.5s54.5 91.833 54.5 164.5v445h18c38 0.666992 65.333 9.66699 82 27s25 46 25 86v14h56z" />
    <glyph glyph-name="uhorn" unicode="&#x1b0;" horiz-adv-x="580" 
d="M608 636l0.000976562 -23c0 -43.333 -10.5 -77.833 -31.5 -103.5s-51.167 -40.834 -90.5 -45.501v-464h-59v91c-16 -32 -38.667 -56.333 -68 -73s-63 -25 -101 -25c-58.667 0 -103 16.333 -133 49s-45 81 -45 145v314h60v-310c0 -49.333 10 -85.666 30 -108.999
s51 -35 93 -35c49.333 0 88.666 15.5 117.999 46.5s44 72.167 44 123.5v284h18c38.667 0.666992 66.5 10.5 83.5 29.5s25.5 49.833 25.5 92.5v13h56z" />
    <glyph glyph-name="uni01C4" unicode="&#x1c4;" horiz-adv-x="1314" 
d="M92 712h229.002c113.333 0 200.666 -30.667 261.999 -92s92 -149 92 -263s-30.833 -202 -92.5 -264s-148.834 -93 -261.501 -93h-229v712zM318.002 54c96.667 0 169.333 25.5 218 76.5s73 126.5 73 226.5c0 200.667 -97 301 -291 301h-164v-604h164zM840.001 53h436v-53
h-508v45l426 614h-426v53h498v-45zM1094 924h63l-116 -151h-47l-116 151h63l77 -109z" />
    <glyph glyph-name="uni01C5" unicode="&#x1c5;" horiz-adv-x="1254" 
d="M92 712h229.002c113.333 0 200.666 -30.667 261.999 -92s92 -149 92 -263s-30.833 -202 -92.5 -264s-148.834 -93 -261.501 -93h-229v712zM318.002 54c96.667 0 169.333 25.5 218 76.5s73 126.5 73 226.5c0 200.667 -97 301 -291 301h-164v-604h164zM868.001 50h340v-50
h-418v42l333 410h-321v49h395v-46zM1076 770h63l-115 -203h-49l-115 203h63l77 -153z" />
    <glyph glyph-name="uni01C6" unicode="&#x1c6;" horiz-adv-x="1106" 
d="M508 736v-736.002h-61v96c-14.667 -33.333 -36.834 -58.833 -66.501 -76.5s-65.167 -26.5 -106.5 -26.5c-44 0 -82.833 10.833 -116.5 32.5s-59.834 52.334 -78.501 92.001s-28 85.5 -28 137.5s9.16699 97.5 27.5 136.5s44.333 69 78 90s72.834 31.5 117.501 31.5
c40.667 0 75.834 -8.66699 105.501 -26s52.167 -42.666 67.5 -75.999v325h61zM404 100.998c28.667 36 42.998 86.668 42.998 152.001s-14.333 116.166 -43 152.499s-69 54.5 -121 54.5c-53.333 0 -94.666 -18 -123.999 -54s-44 -86.333 -44 -151
c0 -65.333 14.667 -116.333 44 -153s70.333 -55 123 -55s93.334 18 122.001 54zM719.998 49.999h340v-50h-418v42l333 410h-321v49h395v-46zM927.998 769.999h63l-115 -203h-49l-115 203h63l77 -153z" />
    <glyph glyph-name="uni01C7" unicode="&#x1c7;" horiz-adv-x="768" 
d="M92 0v712h62v-658h338v-54h-400zM447 -123c30 -5.33301 53.668 -8 71.001 -8c35.333 0 60.166 10 74.499 30s21.5 54.667 21.5 104v709h62v-711c0 -66 -11.5 -113.667 -34.5 -143s-60.833 -44 -113.5 -44c-22 0 -49 2.66699 -81 8v55z" />
    <glyph glyph-name="uni01C8" unicode="&#x1c8;" horiz-adv-x="766" 
d="M92 0v712h62v-658h368v-54h-430zM535 -164c27.333 0 48.5 7.66797 63.5 23.001s22.5 42.666 22.5 81.999v560h60v-571c0 -50 -12 -87.333 -36 -112s-57 -37 -99 -37c-18.667 0 -38.667 2.66699 -60 8v55c18 -5.33301 34.333 -8 49 -8zM612 708.001h81v-78h-81v78z" />
    <glyph glyph-name="uni01C9" unicode="&#x1c9;" horiz-adv-x="456" 
d="M83 0v736h60v-736h-60zM225 -164c27.333 0 48.5 7.66797 63.5 23.001s22.5 42.666 22.5 81.999v560h60v-571c0 -50 -12 -87.333 -36 -112s-57 -37 -99 -37c-18.667 0 -38.667 2.66699 -60 8v55c18 -5.33301 34.333 -8 49 -8zM302 708.001h81v-78h-81v78z" />
    <glyph glyph-name="uni01CA" unicode="&#x1ca;" horiz-adv-x="1056" 
d="M592 712h58v-712h-48l-452 607v-607h-58v712h49l451 -607v607zM735 -123c30 -5.33301 53.668 -8 71.001 -8c35.333 0 60.166 10 74.499 30s21.5 54.667 21.5 104v709h62v-711c0 -66 -11.5 -113.667 -34.5 -143s-60.833 -44 -113.5 -44c-22 0 -49 2.66699 -81 8v55z" />
    <glyph glyph-name="uni01CB" unicode="&#x1cb;" horiz-adv-x="970" 
d="M592 712h58v-712h-48l-452 607v-607h-58v712h49l451 -607v607zM739 -164c27.333 0 48.5 7.66797 63.5 23.001s22.5 42.666 22.5 81.999v560h60v-571c0 -50 -12 -87.333 -36 -112s-57 -37 -99 -37c-18.667 0 -38.667 2.66699 -60 8v55c18 -5.33301 34.333 -8 49 -8z
M816 708.001h81v-78h-81v78z" />
    <glyph glyph-name="uni01CC" unicode="&#x1cc;" horiz-adv-x="806" 
d="M497 319l-0.000976562 -319h-61v315c0 50 -10.167 86.667 -30.5 110s-52.166 35 -95.499 35c-50 0 -90.333 -15.333 -121 -46s-46 -72 -46 -124v-290h-60v362c0 52 -2.66699 98.333 -8 139h58l8 -92c15.333 34 38.333 59.833 69 77.5s66 26.5 106 26.5
c120.667 0 181 -64.667 181 -194zM574.999 -164c27.333 0 48.5 7.66797 63.5 23.001s22.5 42.666 22.5 81.999v560h60v-571c0 -50 -12 -87.333 -36 -112s-57 -37 -99 -37c-18.667 0 -38.667 2.66699 -60 8v55c18 -5.33301 34.333 -8 49 -8zM651.999 708.001h81v-78h-81v78z
" />
    <glyph glyph-name="uni01CE" unicode="&#x1ce;" horiz-adv-x="591" 
d="M508 501v-501.002h-61v96c-14.667 -33.333 -36.834 -58.833 -66.501 -76.5s-65.167 -26.5 -106.5 -26.5c-44.667 0 -83.834 10.5 -117.501 31.5s-59.667 51 -78 90s-27.5 84.5 -27.5 136.5s9.33301 97.833 28 137.5s44.834 70.334 78.501 92.001s72.5 32.5 116.5 32.5
c40.667 0 75.834 -8.66699 105.501 -26s52.167 -42.666 67.5 -75.999v90h61zM404 100.998c28.667 36 43.002 86.668 43.002 152.001c0 66 -14.333 117 -43 153s-69.334 54 -122.001 54s-93.667 -18.5 -123 -55.5s-44 -88.167 -44 -153.5
c0 -64.667 14.667 -114.834 44 -150.501s70.666 -53.5 123.999 -53.5c52 0 92.333 18 121 54zM372.002 769.999h63l-115 -203h-49l-115 203h63l77 -153z" />
    <glyph glyph-name="Gcaron" unicode="&#x1e6;" horiz-adv-x="726" 
d="M642 365l0.00292969 -325.002c-26 -14 -61.667 -25.5 -107 -34.5s-91 -13.5 -137 -13.5c-69.333 0 -129 14.5 -179 43.5s-88.167 70.833 -114.5 125.5s-39.5 120 -39.5 196c0 75.333 13.167 140.333 39.5 195s64.166 96.334 113.499 125.001s107.666 43 174.999 43
c100.667 0 181.334 -31 242.001 -93l-26 -49c-34 30.667 -68.167 52.834 -102.5 66.501s-72.5 20.5 -114.5 20.5c-84 0 -148.833 -26.667 -194.5 -80s-68.5 -129.333 -68.5 -228c0 -100.667 23.167 -177.667 69.5 -231s113.166 -80 200.499 -80
c67.333 0 129.666 11 186.999 33v233h-188v53h244zM467.003 923.998h63l-116 -151h-47l-116 151h63l77 -109z" />
    <glyph glyph-name="gcaron" unicode="&#x1e7;" horiz-adv-x="595" 
d="M512 501l0.000976562 -503.003c0 -72.667 -18 -127.667 -54 -165s-89 -56 -159 -56c-74.667 0 -139.667 18 -195 54l12 53c32.667 -19.333 62.667 -33 90 -41s58.666 -12 93.999 -12c50 0 87.833 13.667 113.5 41s38.5 67.333 38.5 120v129
c-15.333 -34 -38 -60.167 -68 -78.5s-66 -27.5 -108 -27.5c-44 0 -83 10.5 -117 31.5s-60.5 50.333 -79.5 88s-28.5 80.834 -28.5 129.501c0 49.333 9.5 92.833 28.5 130.5s45.5 66.834 79.5 87.501s73 31 117 31c42 0 77.833 -8.66699 107.5 -26
s52.167 -42.666 67.5 -75.999v90h61zM406.501 121.997c29.667 34.667 44.5 82 44.5 142c0 60.667 -14.833 108.5 -44.5 143.5s-70.5 52.5 -122.5 52.5c-52.667 0 -94 -17.5 -124 -52.5s-45 -82.833 -45 -143.5s15 -108.167 45 -142.5s71.333 -51.5 124 -51.5
c52 0 92.833 17.333 122.5 52zM376.001 769.997h63l-115 -203h-49l-115 203h63l77 -153z" />
    <glyph glyph-name="uni01EA" unicode="&#x1ea;" horiz-adv-x="765" 
d="M398 -82c0 -20 5.99512 -35.8359 17.9951 -47.5029s28.667 -17.5 50 -17.5c16.667 0 36.334 6 59.001 18l16 -42c-23.333 -14.667 -50.666 -22 -81.999 -22c-34 0 -61.833 9.66699 -83.5 29s-32.5 44.333 -32.5 75c0 31.333 11.333 58.333 34 81
c-63.333 0.666992 -118.5 15.667 -165.5 45s-83.167 71.333 -108.5 126s-38 119 -38 193c0 74.667 12.833 139.334 38.5 194.001s62.334 96.667 110.001 126s103.834 44 168.501 44c65.333 0 121.833 -14.667 169.5 -44s84.334 -71.166 110.001 -125.499
s38.5 -118.833 38.5 -193.5c0 -93.333 -19.667 -170.666 -59 -231.999s-95 -102 -167 -122c-50.667 -14 -76 -42.333 -76 -85zM195.495 128.497c44.333 -54.333 106.5 -81.5 186.5 -81.5s142.167 27 186.5 81s66.5 130.333 66.5 229s-22 174.667 -66 228
s-106.333 80 -187 80c-80 0 -142.167 -26.833 -186.5 -80.5s-66.5 -129.5 -66.5 -227.5s22.167 -174.167 66.5 -228.5z" />
    <glyph glyph-name="uni01EB" unicode="&#x1eb;" horiz-adv-x="562" 
d="M294.5 -28.5c-13.667 -13.667 -20.5 -32.166 -20.5 -55.499c0 -20.667 6.33301 -37.167 19 -49.5s29.667 -18.5 51 -18.5c18 0 38.333 6.66699 61 20l16 -43c-23.333 -14.667 -51.333 -22 -84 -22c-34 0 -62 9.83301 -84 29.5s-33 45.167 -33 76.5c0 34.667 12 63 36 85
c-62.667 6 -112.5 32.167 -149.5 78.5s-55.5 106.5 -55.5 180.5c0 52 9.5 97.667 28.5 137s46 69.666 81 90.999s75.5 32 121.5 32c45.333 0 85.333 -10.667 120 -32s61.5 -51.666 80.5 -90.999s28.5 -85 28.5 -137c0 -62 -13 -114.667 -39 -158s-61.667 -72.333 -107 -87
c-33.333 -10.667 -56.833 -22.834 -70.5 -36.501zM158 100.001c28.667 -35.333 69.667 -53 123 -53s94.5 17.833 123.5 53.5s43.5 86.5 43.5 152.5c0 65.333 -14.667 116.166 -44 152.499s-70 54.5 -122 54.5c-52.667 0 -93.667 -18.167 -123 -54.5
s-44 -87.166 -44 -152.499c0 -66.667 14.333 -117.667 43 -153z" />
    <glyph glyph-name="Aringacute" unicode="&#x1fa;" horiz-adv-x="727" 
d="M556 190h-383.999l-82 -190h-64l300 689c-18.667 7.33301 -33.667 19 -45 35s-17 34.333 -17 55c0 27.333 9.83301 50.5 29.5 69.5s43.167 28.5 70.5 28.5c19.333 0 37.666 -5.33301 54.999 -16l84 87h79l-135 -114c11.333 -16.667 17 -35 17 -55
c0 -20.667 -5.66699 -39 -17 -55s-26.333 -27.667 -45 -35l299 -689h-64zM328.001 816c-9.33301 -10 -14 -22.333 -14 -37s4.66699 -27 14 -37s21.333 -15 36 -15s26.667 5 36 15s14 22.333 14 37s-4.66699 27 -14 37s-21.333 15 -36 15s-26.667 -5 -36 -15zM195.001 244
h337l-168 393z" />
    <glyph glyph-name="aringacute" unicode="&#x1fb;" horiz-adv-x="591" 
d="M224.5 602c-19.667 19.333 -29.501 43 -29.501 71s9.83301 51.667 29.5 71s43.5 29 71.5 29c20.667 0 39.334 -5.66699 56.001 -17l84 122l74 -2l-129 -148c11.333 -16.667 17 -35 17 -55c0 -28 -10 -51.667 -30 -71s-44 -29 -72 -29s-51.833 9.66699 -71.5 29z
M259.499 710.5c-9.66699 -10.333 -14.5 -22.833 -14.5 -37.5s4.83301 -27.167 14.5 -37.5s21.834 -15.5 36.501 -15.5s27 5.16699 37 15.5s15 22.833 15 37.5s-5 27.167 -15 37.5s-22.333 15.5 -37 15.5s-26.834 -5.16699 -36.501 -15.5zM446.999 501l61 -0.00195312v-501
h-61v96c-14.667 -33.333 -36.834 -58.833 -66.501 -76.5s-65.167 -26.5 -106.5 -26.5c-44.667 0 -83.834 10.5 -117.501 31.5s-59.667 51 -78 90s-27.5 84.5 -27.5 136.5s9.33301 97.833 28 137.5s44.834 70.334 78.501 92.001s72.5 32.5 116.5 32.5
c40.667 0 75.834 -8.66699 105.501 -26s52.167 -42.666 67.5 -75.999v90zM403.999 100.998c28.667 36 43.002 86.668 43.002 152.001c0 66 -14.333 117 -43 153s-69.334 54 -122.001 54s-93.667 -18.5 -123 -55.5s-44 -88.167 -44 -153.5
c0 -64.667 14.667 -114.834 44 -150.501s70.666 -53.5 123.999 -53.5c52 0 92.333 18 121 54z" />
    <glyph glyph-name="AEacute" unicode="&#x1fc;" horiz-adv-x="999" 
d="M945 658h-389l25 -269h344v-55h-339l26 -280h333v-54h-383l-18 190h-358l-113 -190h-67l429 712h510v-54zM539 244l-38 414h-38l-245 -414h321zM525 773h-47l101 151h75z" />
    <glyph glyph-name="aeacute" unicode="&#x1fd;" horiz-adv-x="886" 
d="M466 258l0.000976562 -4.00098c0 -66.667 15.5 -117.834 46.5 -153.501s75.167 -53.5 132.5 -53.5c56 0 109.667 20.667 161 62l23 -48c-22 -20 -49.667 -36.333 -83 -49s-66.666 -19 -99.999 -19c-52 0 -96.167 11.833 -132.5 35.5s-63.166 57.834 -80.499 102.501
c-12 -43.333 -34.333 -77.166 -67 -101.499s-72 -36.5 -118 -36.5c-34 0 -64.833 6.66699 -92.5 20s-49.334 31.833 -65.001 55.5s-23.5 50.834 -23.5 81.501c0 37.333 9.5 67.166 28.5 89.499s50 38.833 93 49.5s101.167 16 174.5 16h41v19c0 48 -9.16699 82.667 -27.5 104
s-48.5 32 -90.5 32c-58 0 -116.333 -18.333 -175 -55l-23 47c24.667 18.667 54.667 33.5 90 44.5s70.333 16.5 105 16.5c88.667 0 144.667 -33.333 168 -100c19.333 32 44.666 56.667 75.999 74s66.666 26 105.999 26c64 0 114.167 -21.5 150.5 -64.5
s54.5 -102.833 54.5 -179.5v-11h-372zM523.501 420.999c-28.333 -28 -46.166 -66.667 -53.499 -116h311c-4.66699 51.333 -19.834 90.5 -45.501 117.5s-60.167 40.5 -103.5 40.5c-44 0 -80.167 -14 -108.5 -42zM361.501 92.999c28.333 31.333 42.5 71.999 42.5 121.999v43
h-39c-59.333 0 -106 -3.5 -140 -10.5s-58.167 -18.167 -72.5 -33.5s-21.5 -35.666 -21.5 -60.999c0 -32 11.333 -57.833 34 -77.5s51.667 -29.5 87 -29.5c44.667 0 81.167 15.667 109.5 47zM459.001 566.998h-47l101 203h78z" />
    <glyph glyph-name="Oslashacute" unicode="&#x1fe;" horiz-adv-x="765" 
d="M670.5 530c19.667 -50 29.502 -107.668 29.502 -173.001c0 -74.667 -12.833 -139.5 -38.5 -194.5s-62.334 -97.167 -110.001 -126.5s-104.167 -44 -169.5 -44c-60.667 0 -113.667 13 -159 39l-42 -72l-45 26l44 75c-36.667 32 -65 73.167 -85 123.5
s-30 107.833 -30 172.5c0 74.667 12.667 139.334 38 194.001s61.833 96.667 109.5 126s104.167 44 169.5 44c61.333 0 114.666 -12.667 159.999 -38l42 71l45 -26l-44 -75c37.333 -31.333 65.833 -72 85.5 -122zM150.002 213.999c14 -41.333 34 -75.333 60 -102l304 520
c-36.667 22 -80.667 33 -132 33c-80 0 -142.167 -26.833 -186.5 -80.5s-66.5 -129.5 -66.5 -227.5c0 -54 7 -101.667 21 -143zM568.502 127.999c44.333 54 66.5 130.333 66.5 229c0 108.667 -26.667 189.667 -80 243l-303 -520c36 -22 79.333 -33 130 -33
c80 0 142.167 27 186.5 81zM405.002 772.999h-47l101 151h75z" />
    <glyph glyph-name="oslashacute" unicode="&#x1ff;" horiz-adv-x="562" 
d="M490 373c14 -35.333 20.999 -75.333 20.999 -120c0 -52 -9.5 -97.667 -28.5 -137s-45.833 -69.666 -80.5 -90.999s-74.667 -32 -120 -32c-39.333 0 -75.666 8.33301 -108.999 25l-35 -60l-42 25l36 63c-26 22.667 -46 51.667 -60 87s-21 75.333 -21 120
c0 52 9.5 97.667 28.5 137s46 69.666 81 90.999s75.5 32 121.5 32c39.333 0 75 -8.33301 107 -25l34 59l44 -23l-37 -64c26 -22.667 46 -51.667 60 -87zM160.999 96l201.002 344.999c-22.667 12.667 -49.334 19 -80.001 19c-52.667 0 -93.834 -18.167 -123.501 -54.5
s-44.5 -87.166 -44.5 -152.499c0 -70 15.667 -122.333 47 -157zM404.501 100.499c29 35.667 43.5 86.501 43.5 152.501c0 67.333 -15.667 119.666 -47 156.999l-201 -345c22.667 -12 49.667 -18 81 -18c53.333 0 94.5 17.833 123.5 53.5zM305.001 567h-47l101 203h78z" />
    <glyph glyph-name="uni0200" unicode="&#x200;" horiz-adv-x="727" 
d="M637 0l-81 190h-384l-82 -190h-64l310 712h56l309 -712h-64zM195 244h337l-168 393zM288 773l-98 151h62l72 -151h-36zM403 773l-98 151h63l71 -151h-36z" />
    <glyph glyph-name="uni0201" unicode="&#x201;" horiz-adv-x="591" 
d="M508 501v-501.002h-61v96c-14.667 -33.333 -36.834 -58.833 -66.501 -76.5s-65.167 -26.5 -106.5 -26.5c-44.667 0 -83.834 10.5 -117.501 31.5s-59.667 51 -78 90s-27.5 84.5 -27.5 136.5s9.33301 97.833 28 137.5s44.834 70.334 78.501 92.001s72.5 32.5 116.5 32.5
c40.667 0 75.834 -8.66699 105.501 -26s52.167 -42.666 67.5 -75.999v90h61zM404 100.998c28.667 36 43.002 86.668 43.002 152.001c0 66 -14.333 117 -43 153s-69.334 54 -122.001 54s-93.667 -18.5 -123 -55.5s-44 -88.167 -44 -153.5
c0 -64.667 14.667 -114.834 44 -150.501s70.666 -53.5 123.999 -53.5c52 0 92.333 18 121 54zM220.002 566.999l-80 203h65l49 -203h-34zM337.002 566.999l-80 203h65l49 -203h-34z" />
    <glyph glyph-name="uni0202" unicode="&#x202;" horiz-adv-x="727" 
d="M637 0l-81 190h-384l-82 -190h-64l310 712h56l309 -712h-64zM195 244h337l-168 393zM459 887.5c28 -17 49.3359 -44.167 64.0029 -81.5l-45 -19c-16.667 29.333 -33.834 49.5 -51.501 60.5s-38.5 16.5 -62.5 16.5c-24.667 0 -45.834 -5.5 -63.501 -16.5
s-34.834 -31.167 -51.501 -60.5l-45 19c15.333 38 36.833 65.333 64.5 82s59.5 25 95.5 25c35.333 0 67 -8.5 95 -25.5z" />
    <glyph glyph-name="uni0203" unicode="&#x203;" horiz-adv-x="591" 
d="M508 501v-501.002h-61v96c-14.667 -33.333 -36.834 -58.833 -66.501 -76.5s-65.167 -26.5 -106.5 -26.5c-44.667 0 -83.834 10.5 -117.501 31.5s-59.667 51 -78 90s-27.5 84.5 -27.5 136.5s9.33301 97.833 28 137.5s44.834 70.334 78.501 92.001s72.5 32.5 116.5 32.5
c40.667 0 75.834 -8.66699 105.501 -26s52.167 -42.666 67.5 -75.999v90h61zM404 100.998c28.667 36 43.002 86.668 43.002 152.001c0 66 -14.333 117 -43 153s-69.334 54 -122.001 54s-93.667 -18.5 -123 -55.5s-44 -88.167 -44 -153.5
c0 -64.667 14.667 -114.834 44 -150.501s70.666 -53.5 123.999 -53.5c52 0 92.333 18 121 54zM391.502 710.499c28.333 -19.667 49.835 -50.501 64.502 -92.501l-46 -20c-14.667 33.333 -31.334 57.166 -50.001 71.499s-40 21.5 -64 21.5s-45.5 -7.16699 -64.5 -21.5
s-35.833 -38.166 -50.5 -71.499l-46 19c14 42.667 35.333 73.834 64 93.501s61 29.5 97 29.5c35.333 0 67.166 -9.83301 95.499 -29.5z" />
    <glyph glyph-name="uni0204" unicode="&#x204;" horiz-adv-x="585" 
d="M92 0v712h439v-53h-378v-270h358v-55h-358v-281h378v-53h-439zM249 773l-98 151h62l72 -151h-36zM364 773l-98 151h63l71 -151h-36z" />
    <glyph glyph-name="uni0205" unicode="&#x205;" horiz-adv-x="543" 
d="M115 258v-3.00098c0 -67.333 15.5 -118.833 46.5 -154.5s76.167 -53.5 135.5 -53.5c60 0 115 20.667 165 62l24 -48c-22 -20.667 -50 -37.167 -84 -49.5s-69 -18.5 -105 -18.5c-76 0 -136 23 -180 69s-66 109.333 -66 190c0 51.333 9.83301 96.833 29.5 136.5
s47.167 70.334 82.5 92.001s76 32.5 122 32.5c66 0 117.5 -21.333 154.5 -64s55.5 -102 55.5 -178v-13h-380zM173 421.499c-28.667 -27.667 -46.667 -66.5 -54 -116.5h318c-4 51.333 -19 90.5 -45 117.5s-61.667 40.5 -107 40.5c-46 0 -83.333 -13.833 -112 -41.5z
M209 566.999l-80 203h65l49 -203h-34zM326 566.999l-80 203h65l49 -203h-34z" />
    <glyph glyph-name="uni0206" unicode="&#x206;" horiz-adv-x="585" 
d="M92 0v712h439v-53h-378v-270h358v-55h-358v-281h378v-53h-439zM420 887.5c28 -17 49.3359 -44.167 64.0029 -81.5l-45 -19c-16.667 29.333 -33.834 49.5 -51.501 60.5s-38.5 16.5 -62.5 16.5c-24.667 0 -45.834 -5.5 -63.501 -16.5s-34.834 -31.167 -51.501 -60.5l-45 19
c15.333 38 36.833 65.333 64.5 82s59.5 25 95.5 25c35.333 0 67 -8.5 95 -25.5z" />
    <glyph glyph-name="uni0207" unicode="&#x207;" horiz-adv-x="543" 
d="M115 258v-3.00098c0 -67.333 15.5 -118.833 46.5 -154.5s76.167 -53.5 135.5 -53.5c60 0 115 20.667 165 62l24 -48c-22 -20.667 -50 -37.167 -84 -49.5s-69 -18.5 -105 -18.5c-76 0 -136 23 -180 69s-66 109.333 -66 190c0 51.333 9.83301 96.833 29.5 136.5
s47.167 70.334 82.5 92.001s76 32.5 122 32.5c66 0 117.5 -21.333 154.5 -64s55.5 -102 55.5 -178v-13h-380zM173 421.499c-28.667 -27.667 -46.667 -66.5 -54 -116.5h318c-4 51.333 -19 90.5 -45 117.5s-61.667 40.5 -107 40.5c-46 0 -83.333 -13.833 -112 -41.5z
M380.5 710.499c28.333 -19.667 49.835 -50.501 64.502 -92.501l-46 -20c-14.667 33.333 -31.334 57.166 -50.001 71.499s-40 21.5 -64 21.5s-45.5 -7.16699 -64.5 -21.5s-35.833 -38.166 -50.5 -71.499l-46 19c14 42.667 35.333 73.834 64 93.501s61 29.5 97 29.5
c35.333 0 67.166 -9.83301 95.499 -29.5z" />
    <glyph glyph-name="uni0208" unicode="&#x208;" horiz-adv-x="246" 
d="M92 0v712h62v-712h-62zM47 773l-98 151h62l72 -151h-36zM162 773l-98 151h63l71 -151h-36z" />
    <glyph glyph-name="uni0209" unicode="&#x209;" horiz-adv-x="228" 
d="M83 0v501h60v-501h-60zM39 567l-80 203h65l49 -203h-34zM156 567l-80 203h65l49 -203h-34z" />
    <glyph glyph-name="uni020A" unicode="&#x20a;" horiz-adv-x="246" 
d="M92 0v712h62v-712h-62zM218 887.5c28 -17 49.3359 -44.167 64.0029 -81.5l-45 -19c-16.667 29.333 -33.834 49.5 -51.501 60.5s-38.5 16.5 -62.5 16.5c-24.667 0 -45.834 -5.5 -63.501 -16.5s-34.834 -31.167 -51.501 -60.5l-45 19c15.333 38 36.833 65.333 64.5 82
s59.5 25 95.5 25c35.333 0 67 -8.5 95 -25.5z" />
    <glyph glyph-name="uni020B" unicode="&#x20b;" horiz-adv-x="228" 
d="M83 0v501h60v-501h-60zM210.5 710.5c28.333 -19.667 49.835 -50.501 64.502 -92.501l-46 -20c-14.667 33.333 -31.334 57.166 -50.001 71.499s-40 21.5 -64 21.5s-45.5 -7.16699 -64.5 -21.5s-35.833 -38.166 -50.5 -71.499l-46 19c14 42.667 35.333 73.834 64 93.501
s61 29.5 97 29.5c35.333 0 67.166 -9.83301 95.499 -29.5z" />
    <glyph glyph-name="uni020C" unicode="&#x20c;" horiz-adv-x="765" 
d="M213.5 36c-47.667 29.333 -84.3311 71.3301 -109.998 125.997s-38.5 119.334 -38.5 194.001s12.667 139.334 38 194.001s61.833 96.667 109.5 126s104.167 44 169.5 44s122 -14.667 170 -44s84.667 -71.166 110 -125.499s38 -118.833 38 -193.5
s-12.833 -139.5 -38.5 -194.5s-62.334 -97.167 -110.001 -126.5s-104.167 -44 -169.5 -44c-64.667 0 -120.834 14.667 -168.501 44zM568.503 127.997c44.333 54 66.5 130.333 66.5 229s-22 174.667 -66 228s-106.333 80 -187 80c-80 0 -142.167 -26.833 -186.5 -80.5
s-66.5 -129.5 -66.5 -227.5s22.167 -174.167 66.5 -228.5s106.5 -81.5 186.5 -81.5s142.167 27 186.5 81zM306.003 772.997l-98 151h62l72 -151h-36zM421.003 772.997l-98 151h63l71 -151h-36z" />
    <glyph glyph-name="uni020D" unicode="&#x20d;" horiz-adv-x="562" 
d="M160.5 25c-35 21.333 -62 51.666 -81 90.999s-28.5 85 -28.5 137s9.5 97.667 28.5 137s46 69.666 81 90.999s75.5 32 121.5 32c45.333 0 85.333 -10.667 120 -32s61.5 -51.666 80.5 -90.999s28.5 -85 28.5 -137s-9.5 -97.667 -28.5 -137s-45.833 -69.666 -80.5 -90.999
s-74.667 -32 -120 -32c-46 0 -86.5 10.667 -121.5 32zM404.5 100.5c29 35.667 43.5 86.5 43.5 152.5c0 65.333 -14.667 116.166 -44 152.499s-70 54.5 -122 54.5c-52.667 0 -93.667 -18.167 -123 -54.5s-44 -87.166 -44 -152.499c0 -66.667 14.333 -117.667 43 -153
s69.667 -53 123 -53s94.5 17.833 123.5 53.5zM206 567l-80 203h65l49 -203h-34zM323 567l-80 203h65l49 -203h-34z" />
    <glyph glyph-name="uni020E" unicode="&#x20e;" horiz-adv-x="765" 
d="M213.5 36c-47.667 29.333 -84.3311 71.3301 -109.998 125.997s-38.5 119.334 -38.5 194.001s12.667 139.334 38 194.001s61.833 96.667 109.5 126s104.167 44 169.5 44s122 -14.667 170 -44s84.667 -71.166 110 -125.499s38 -118.833 38 -193.5
s-12.833 -139.5 -38.5 -194.5s-62.334 -97.167 -110.001 -126.5s-104.167 -44 -169.5 -44c-64.667 0 -120.834 14.667 -168.501 44zM568.503 127.997c44.333 54 66.5 130.333 66.5 229s-22 174.667 -66 228s-106.333 80 -187 80c-80 0 -142.167 -26.833 -186.5 -80.5
s-66.5 -129.5 -66.5 -227.5s22.167 -174.167 66.5 -228.5s106.5 -81.5 186.5 -81.5s142.167 27 186.5 81zM477.003 887.497c28 -17 49.3359 -44.167 64.0029 -81.5l-45 -19c-16.667 29.333 -33.834 49.5 -51.501 60.5s-38.5 16.5 -62.5 16.5
c-24.667 0 -45.834 -5.5 -63.501 -16.5s-34.834 -31.167 -51.501 -60.5l-45 19c15.333 38 36.833 65.333 64.5 82s59.5 25 95.5 25c35.333 0 67 -8.5 95 -25.5z" />
    <glyph glyph-name="uni020F" unicode="&#x20f;" horiz-adv-x="562" 
d="M160.5 25c-35 21.333 -62 51.666 -81 90.999s-28.5 85 -28.5 137s9.5 97.667 28.5 137s46 69.666 81 90.999s75.5 32 121.5 32c45.333 0 85.333 -10.667 120 -32s61.5 -51.666 80.5 -90.999s28.5 -85 28.5 -137s-9.5 -97.667 -28.5 -137s-45.833 -69.666 -80.5 -90.999
s-74.667 -32 -120 -32c-46 0 -86.5 10.667 -121.5 32zM404.5 100.5c29 35.667 43.5 86.5 43.5 152.5c0 65.333 -14.667 116.166 -44 152.499s-70 54.5 -122 54.5c-52.667 0 -93.667 -18.167 -123 -54.5s-44 -87.166 -44 -152.499c0 -66.667 14.333 -117.667 43 -153
s69.667 -53 123 -53s94.5 17.833 123.5 53.5zM377.5 710.5c28.333 -19.667 49.835 -50.501 64.502 -92.501l-46 -20c-14.667 33.333 -31.334 57.166 -50.001 71.499s-40 21.5 -64 21.5s-45.5 -7.16699 -64.5 -21.5s-35.833 -38.166 -50.5 -71.499l-46 19
c14 42.667 35.333 73.834 64 93.501s61 29.5 97 29.5c35.333 0 67.166 -9.83301 95.499 -29.5z" />
    <glyph glyph-name="uni0210" unicode="&#x210;" horiz-adv-x="688" 
d="M640 0l-64.002 0.000976562l-89 237c-11.333 32 -27 53.5 -47 64.5s-49 16.5 -87 16.5h-199v-318h-62v712h275c74 0 131.333 -16.833 172 -50.5s61 -81.834 61 -144.501c0 -46 -12.167 -84.667 -36.5 -116s-59.166 -53.333 -104.499 -66
c20.667 -3.33301 38.334 -12 53.001 -26s27 -34.667 37 -62zM362.998 372.001c116.667 0 175 48.667 175 146c0 94 -58.333 141 -175 141h-210v-287h210zM263.998 773.001l-98 151h62l72 -151h-36zM378.998 773.001l-98 151h63l71 -151h-36z" />
    <glyph glyph-name="uni0211" unicode="&#x211;" horiz-adv-x="349" 
d="M343 509l-3.00098 -55c-12.667 2.66699 -28 4 -46 4c-50.667 0 -88.5 -16.167 -113.5 -48.5s-37.5 -70.833 -37.5 -115.5v-294h-60v362c0 52 -2.66699 98.333 -8 139h58l8 -93c12.667 34 33.167 60 61.5 78s60.5 27 96.5 27c16.667 0 31.334 -1.33301 44.001 -4z
M138.999 567l-80 203h65l49 -203h-34zM255.999 567l-80 203h65l49 -203h-34z" />
    <glyph glyph-name="uni0212" unicode="&#x212;" horiz-adv-x="688" 
d="M640 0l-64.002 0.000976562l-89 237c-11.333 32 -27 53.5 -47 64.5s-49 16.5 -87 16.5h-199v-318h-62v712h275c74 0 131.333 -16.833 172 -50.5s61 -81.834 61 -144.501c0 -46 -12.167 -84.667 -36.5 -116s-59.166 -53.333 -104.499 -66
c20.667 -3.33301 38.334 -12 53.001 -26s27 -34.667 37 -62zM362.998 372.001c116.667 0 175 48.667 175 146c0 94 -58.333 141 -175 141h-210v-287h210zM434.998 887.501c28 -17 49.3359 -44.167 64.0029 -81.5l-45 -19c-16.667 29.333 -33.834 49.5 -51.501 60.5
s-38.5 16.5 -62.5 16.5c-24.667 0 -45.834 -5.5 -63.501 -16.5s-34.834 -31.167 -51.501 -60.5l-45 19c15.333 38 36.833 65.333 64.5 82s59.5 25 95.5 25c35.333 0 67 -8.5 95 -25.5z" />
    <glyph glyph-name="uni0213" unicode="&#x213;" horiz-adv-x="349" 
d="M343 509l-3.00098 -55c-12.667 2.66699 -28 4 -46 4c-50.667 0 -88.5 -16.167 -113.5 -48.5s-37.5 -70.833 -37.5 -115.5v-294h-60v362c0 52 -2.66699 98.333 -8 139h58l8 -93c12.667 34 33.167 60 61.5 78s60.5 27 96.5 27c16.667 0 31.334 -1.33301 44.001 -4z
M310.499 710.5c28.333 -19.667 49.835 -50.501 64.502 -92.501l-46 -20c-14.667 33.333 -31.334 57.166 -50.001 71.499s-40 21.5 -64 21.5s-45.5 -7.16699 -64.5 -21.5s-35.833 -38.166 -50.5 -71.499l-46 19c14 42.667 35.333 73.834 64 93.501s61 29.5 97 29.5
c35.333 0 67.166 -9.83301 95.499 -29.5z" />
    <glyph glyph-name="uni0214" unicode="&#x214;" horiz-adv-x="726" 
d="M157.5 63.5c-47 47.667 -70.5 117.834 -70.5 210.501v438h62v-445c0 -146.667 71.667 -220 215 -220c70 0 123.167 18.5 159.5 55.5s54.5 91.833 54.5 164.5v445h61v-438c0 -92.667 -23.333 -162.834 -70 -210.501s-115 -71.5 -205 -71.5
c-90.667 0 -159.5 23.833 -206.5 71.5zM288 773l-98 151h62l72 -151h-36zM403 773l-98 151h63l71 -151h-36z" />
    <glyph glyph-name="uni0215" unicode="&#x215;" horiz-adv-x="569" 
d="M486 501l0.000976562 -501.001h-59v91c-16 -32 -38.667 -56.333 -68 -73s-63 -25 -101 -25c-58.667 0 -103 16.333 -133 49s-45 81 -45 145v314h60v-310c0 -49.333 10 -85.666 30 -108.999s51 -35 93 -35c49.333 0 88.666 15.5 117.999 46.5s44 72.167 44 123.5v284h61z
M208.001 566.999l-80 203h65l49 -203h-34zM325.001 566.999l-80 203h65l49 -203h-34z" />
    <glyph glyph-name="uni0216" unicode="&#x216;" horiz-adv-x="726" 
d="M157.5 63.5c-47 47.667 -70.5 117.834 -70.5 210.501v438h62v-445c0 -146.667 71.667 -220 215 -220c70 0 123.167 18.5 159.5 55.5s54.5 91.833 54.5 164.5v445h61v-438c0 -92.667 -23.333 -162.834 -70 -210.501s-115 -71.5 -205 -71.5
c-90.667 0 -159.5 23.833 -206.5 71.5zM459 887.5c28 -17 49.3359 -44.167 64.0029 -81.5l-45 -19c-16.667 29.333 -33.834 49.5 -51.501 60.5s-38.5 16.5 -62.5 16.5c-24.667 0 -45.834 -5.5 -63.501 -16.5s-34.834 -31.167 -51.501 -60.5l-45 19
c15.333 38 36.833 65.333 64.5 82s59.5 25 95.5 25c35.333 0 67 -8.5 95 -25.5z" />
    <glyph glyph-name="uni0217" unicode="&#x217;" horiz-adv-x="569" 
d="M486 501l0.000976562 -501.001h-59v91c-16 -32 -38.667 -56.333 -68 -73s-63 -25 -101 -25c-58.667 0 -103 16.333 -133 49s-45 81 -45 145v314h60v-310c0 -49.333 10 -85.666 30 -108.999s51 -35 93 -35c49.333 0 88.666 15.5 117.999 46.5s44 72.167 44 123.5v284h61z
M379.501 710.499c28.333 -19.667 49.835 -50.501 64.502 -92.501l-46 -20c-14.667 33.333 -31.334 57.166 -50.001 71.499s-40 21.5 -64 21.5s-45.5 -7.16699 -64.5 -21.5s-35.833 -38.166 -50.5 -71.499l-46 19c14 42.667 35.333 73.834 64 93.501s61 29.5 97 29.5
c35.333 0 67.166 -9.83301 95.499 -29.5z" />
    <glyph glyph-name="Scommaaccent" unicode="&#x218;" horiz-adv-x="613" 
d="M164.5 14.5c-43 15 -81.166 38.499 -114.499 70.499l26 49c35.333 -31.333 71.166 -53.666 107.499 -66.999s79.5 -20 129.5 -20c60 0 106.667 12.333 140 37s50 59.334 50 104.001c0 26 -8.16699 47.167 -24.5 63.5s-37 29.166 -62 38.499s-58.167 18.666 -99.5 27.999
c-54.667 12 -99.167 24.5 -133.5 37.5s-63.166 32.5 -86.499 58.5s-35 60.667 -35 104c0 40 10.333 75.333 31 106s50.167 54.334 88.5 71.001s82.833 25 133.5 25c48.667 0 93.667 -7.83301 135 -23.5s77 -38.834 107 -69.501l-26 -49c-33.333 30 -67.333 52 -102 66
s-72.667 21 -114 21c-60 0 -106.833 -13 -140.5 -39s-50.5 -61.667 -50.5 -107c0 -39.333 14.667 -68.666 44 -87.999s72.333 -35.666 129 -48.999l29 -7c53.333 -12.667 95.666 -25 126.999 -37s58 -30 80 -54s33 -56 33 -96c0 -38.667 -10.333 -72.834 -31 -102.501
s-50.167 -52.667 -88.5 -69s-82.833 -24.5 -133.5 -24.5c-56 0 -105.5 7.5 -148.5 22.5zM353.001 -75.001v-56.001c0 -25.333 -3.66699 -48.166 -11 -68.499s-20 -39.833 -38 -58.5l-32 25c13.333 14 22.5 27.5 27.5 40.5s7.83301 27.5 8.5 43.5h-40v74h85z" />
    <glyph glyph-name="scommaaccent" unicode="&#x219;" horiz-adv-x="494" 
d="M53 60l22 46.999c26.667 -22 53.5 -37.667 80.5 -47s58.167 -14 93.5 -14c41.333 0 72.833 7.16699 94.5 21.5s32.5 35.166 32.5 62.499c0 22.667 -7.16699 40.5 -21.5 53.5s-37.833 23.5 -70.5 31.5l-85 19c-40 9.33301 -71.5 26 -94.5 50s-34.5 52 -34.5 84
c0 44 16.833 79.167 50.5 105.5s78.5 39.5 134.5 39.5c35.333 0 68.166 -5.66699 98.499 -17s55.5 -27.666 75.5 -48.999l-23 -47c-46 40 -96.333 60 -151 60c-38.667 0 -68.667 -7.66699 -90 -23s-32 -36.666 -32 -63.999c0 -22.667 6.83301 -41 20.5 -55
s34.834 -24.333 63.501 -31l86 -21c90 -20 135 -64.333 135 -133c0 -42 -17.333 -75.833 -52 -101.5s-81.334 -38.5 -140.001 -38.5c-81.333 0 -145.666 22.333 -192.999 67zM287 -75.001v-56.001c0 -25.333 -3.66699 -48.166 -11 -68.499s-20 -39.833 -38 -58.5l-32 25
c13.333 14 22.5 27.5 27.5 40.5s7.83301 27.5 8.5 43.5h-40v74h85z" />
    <glyph glyph-name="uni021A" unicode="&#x21a;" horiz-adv-x="596" 
d="M267 0v658h-255v54h572v-54h-255v-658h-62zM340 -75v-56.001c0 -25.333 -3.66699 -48.166 -11 -68.499s-20 -39.833 -38 -58.5l-32 25c13.333 14 22.5 27.5 27.5 40.5s7.83301 27.5 8.5 43.5h-40v74h85z" />
    <glyph glyph-name="uni021B" unicode="&#x21b;" horiz-adv-x="337" 
d="M168 452v-298c0 -40 7.66699 -67.667 23 -83s38 -23 68 -23c18.667 0 36.667 3 54 9v-55c-21.333 -5.33301 -43 -8 -65 -8c-44 0 -78.5 12.333 -103.5 37s-37.5 61.667 -37.5 111v310h-99v49h99v133l61 23v-156h148v-49h-148zM260 -75v-56.001
c0 -25.333 -3.66699 -48.166 -11 -68.499s-20 -39.833 -38 -58.5l-32 25c13.333 14 22.5 27.5 27.5 40.5s7.83301 27.5 8.5 43.5h-40v74h85z" />
    <glyph glyph-name="uni0227" unicode="&#x227;" horiz-adv-x="591" 
d="M508 501v-501.002h-61v96c-14.667 -33.333 -36.834 -58.833 -66.501 -76.5s-65.167 -26.5 -106.5 -26.5c-44.667 0 -83.834 10.5 -117.501 31.5s-59.667 51 -78 90s-27.5 84.5 -27.5 136.5s9.33301 97.833 28 137.5s44.834 70.334 78.501 92.001s72.5 32.5 116.5 32.5
c40.667 0 75.834 -8.66699 105.501 -26s52.167 -42.666 67.5 -75.999v90h61zM404 100.998c28.667 36 43.002 86.668 43.002 152.001c0 66 -14.333 117 -43 153s-69.334 54 -122.001 54s-93.667 -18.5 -123 -55.5s-44 -88.167 -44 -153.5
c0 -64.667 14.667 -114.834 44 -150.501s70.666 -53.5 123.999 -53.5c52 0 92.333 18 121 54zM255.002 707.999h81v-78h-81v78z" />
    <glyph glyph-name="uni0228" unicode="&#x228;" horiz-adv-x="585" 
d="M153 659v-270h358v-55h-358v-281h378v-53h-190l-5 -44c9.33301 2 18.333 3 27 3c20 0 37.5 -6 52.5 -18s22.5 -29.333 22.5 -52c0 -24 -10 -43.667 -30 -59s-47.333 -23 -82 -23c-14.667 0 -30 1.5 -46 4.5s-29.667 7.83301 -41 14.5l14 39c22 -9.33301 47 -14 75 -14
c19.333 0 33.833 3.33301 43.5 10s14.5 16 14.5 28c0 9.33301 -3 16.5 -9 21.5s-15 7.5 -27 7.5c-12.667 0 -29 -3.33301 -49 -10l-19 15l8 77h-198v712h439v-53h-378z" />
    <glyph glyph-name="uni022A" unicode="&#x22a;" horiz-adv-x="765" 
d="M213.5 36c-47.667 29.333 -84.3311 71.3301 -109.998 125.997s-38.5 119.334 -38.5 194.001s12.667 139.334 38 194.001s61.833 96.667 109.5 126s104.167 44 169.5 44s122 -14.667 170 -44s84.667 -71.166 110 -125.499s38 -118.833 38 -193.5
s-12.833 -139.5 -38.5 -194.5s-62.334 -97.167 -110.001 -126.5s-104.167 -44 -169.5 -44c-64.667 0 -120.834 14.667 -168.501 44zM568.503 127.997c44.333 54 66.5 130.333 66.5 229s-22 174.667 -66 228s-106.333 80 -187 80c-80 0 -142.167 -26.833 -186.5 -80.5
s-66.5 -129.5 -66.5 -227.5s22.167 -174.167 66.5 -228.5s106.5 -81.5 186.5 -81.5s142.167 27 186.5 81zM260.003 885.997h75v-73h-75v73zM428.003 885.997h75v-73h-75v73zM232.003 985.997v52h299v-52h-299z" />
    <glyph glyph-name="uni022B" unicode="&#x22b;" horiz-adv-x="562" 
d="M160.5 25c-35 21.333 -62 51.666 -81 90.999s-28.5 85 -28.5 137s9.5 97.667 28.5 137s46 69.666 81 90.999s75.5 32 121.5 32c45.333 0 85.333 -10.667 120 -32s61.5 -51.666 80.5 -90.999s28.5 -85 28.5 -137s-9.5 -97.667 -28.5 -137s-45.833 -69.666 -80.5 -90.999
s-74.667 -32 -120 -32c-46 0 -86.5 10.667 -121.5 32zM404.5 100.5c29 35.667 43.5 86.5 43.5 152.5c0 65.333 -14.667 116.166 -44 152.499s-70 54.5 -122 54.5c-52.667 0 -93.667 -18.167 -123 -54.5s-44 -87.166 -44 -152.499c0 -66.667 14.333 -117.667 43 -153
s69.667 -53 123 -53s94.5 17.833 123.5 53.5zM160 706h75v-74h-75v74zM328 706h75v-74h-75v74zM132 840v52h299v-52h-299z" />
    <glyph glyph-name="uni022C" unicode="&#x22c;" horiz-adv-x="765" 
d="M213.5 36c-47.667 29.333 -84.3311 71.3301 -109.998 125.997s-38.5 119.334 -38.5 194.001s12.667 139.334 38 194.001s61.833 96.667 109.5 126s104.167 44 169.5 44s122 -14.667 170 -44s84.667 -71.166 110 -125.499s38 -118.833 38 -193.5
s-12.833 -139.5 -38.5 -194.5s-62.334 -97.167 -110.001 -126.5s-104.167 -44 -169.5 -44c-64.667 0 -120.834 14.667 -168.501 44zM568.503 127.997c44.333 54 66.5 130.333 66.5 229s-22 174.667 -66 228s-106.333 80 -187 80c-80 0 -142.167 -26.833 -186.5 -80.5
s-66.5 -129.5 -66.5 -227.5s22.167 -174.167 66.5 -228.5s106.5 -81.5 186.5 -81.5s142.167 27 186.5 81zM245.503 876.497c15 19 35.833 28.5 62.5 28.5c14 0 27.333 -2.83301 40 -8.5s28 -14.167 46 -25.5c14 -8.66699 25.333 -15.167 34 -19.5s17 -6.5 25 -6.5
c15.333 0 27.166 5.66699 35.499 17s12.5 24.666 12.5 39.999h39c0 -33.333 -7.5 -59.333 -22.5 -78s-35.833 -28 -62.5 -28c-14 0 -27.5 2.83301 -40.5 8.5s-28.167 13.834 -45.5 24.501c-15.333 9.33301 -27 15.833 -35 19.5s-16 5.5 -24 5.5
c-15.333 0 -27.166 -5.33301 -35.499 -16s-12.5 -23.667 -12.5 -39h-39c0 32.667 7.5 58.5 22.5 77.5zM232.003 985.997v52h299v-52h-299z" />
    <glyph glyph-name="uni022D" unicode="&#x22d;" horiz-adv-x="562" 
d="M160.5 25c-35 21.333 -62 51.666 -81 90.999s-28.5 85 -28.5 137s9.5 97.667 28.5 137s46 69.666 81 90.999s75.5 32 121.5 32c45.333 0 85.333 -10.667 120 -32s61.5 -51.666 80.5 -90.999s28.5 -85 28.5 -137s-9.5 -97.667 -28.5 -137s-45.833 -69.666 -80.5 -90.999
s-74.667 -32 -120 -32c-46 0 -86.5 10.667 -121.5 32zM404.5 100.5c29 35.667 43.5 86.5 43.5 152.5c0 65.333 -14.667 116.166 -44 152.499s-70 54.5 -122 54.5c-52.667 0 -93.667 -18.167 -123 -54.5s-44 -87.166 -44 -152.499c0 -66.667 14.333 -117.667 43 -153
s69.667 -53 123 -53s94.5 17.833 123.5 53.5zM145.5 696c15 18.667 35.833 28 62.5 28c14 0 27.333 -2.83301 40 -8.5s28 -14.167 46 -25.5c15.333 -9.33301 27 -15.833 35 -19.5s16 -5.5 24 -5.5c15.333 0 27.166 5.5 35.499 16.5s12.5 24.167 12.5 39.5h39
c0 -33.333 -7.5 -59.333 -22.5 -78s-35.833 -28 -62.5 -28c-14 0 -27.333 2.83301 -40 8.5s-28 14.167 -46 25.5c-15.333 9.33301 -27 15.833 -35 19.5s-16 5.5 -24 5.5c-15.333 0 -27.166 -5.5 -35.499 -16.5s-12.5 -24.167 -12.5 -39.5h-39c0 33.333 7.5 59.333 22.5 78z
M132 840v52h299v-52h-299z" />
    <glyph glyph-name="uni0230" unicode="&#x230;" horiz-adv-x="765" 
d="M213.5 36c-47.667 29.333 -84.3311 71.3301 -109.998 125.997s-38.5 119.334 -38.5 194.001s12.667 139.334 38 194.001s61.833 96.667 109.5 126s104.167 44 169.5 44s122 -14.667 170 -44s84.667 -71.166 110 -125.499s38 -118.833 38 -193.5
s-12.833 -139.5 -38.5 -194.5s-62.334 -97.167 -110.001 -126.5s-104.167 -44 -169.5 -44c-64.667 0 -120.834 14.667 -168.501 44zM568.503 127.997c44.333 54 66.5 130.333 66.5 229s-22 174.667 -66 228s-106.333 80 -187 80c-80 0 -142.167 -26.833 -186.5 -80.5
s-66.5 -129.5 -66.5 -227.5s22.167 -174.167 66.5 -228.5s106.5 -81.5 186.5 -81.5s142.167 27 186.5 81zM341.003 888.997h81v-78h-81v78zM232.003 985.997v52h299v-52h-299z" />
    <glyph glyph-name="uni0231" unicode="&#x231;" horiz-adv-x="562" 
d="M160.5 25c-35 21.333 -62 51.666 -81 90.999s-28.5 85 -28.5 137s9.5 97.667 28.5 137s46 69.666 81 90.999s75.5 32 121.5 32c45.333 0 85.333 -10.667 120 -32s61.5 -51.666 80.5 -90.999s28.5 -85 28.5 -137s-9.5 -97.667 -28.5 -137s-45.833 -69.666 -80.5 -90.999
s-74.667 -32 -120 -32c-46 0 -86.5 10.667 -121.5 32zM404.5 100.5c29 35.667 43.5 86.5 43.5 152.5c0 65.333 -14.667 116.166 -44 152.499s-70 54.5 -122 54.5c-52.667 0 -93.667 -18.167 -123 -54.5s-44 -87.166 -44 -152.499c0 -66.667 14.333 -117.667 43 -153
s69.667 -53 123 -53s94.5 17.833 123.5 53.5zM241 708h81v-78h-81v78zM132 840v52h299v-52h-299z" />
    <glyph glyph-name="uni0232" unicode="&#x232;" horiz-adv-x="597" 
d="M604 712l-275 -419v-293h-62v295l-275 417h72l235 -363l235 363h70zM148 824v52h299v-52h-299z" />
    <glyph glyph-name="uni0233" unicode="&#x233;" horiz-adv-x="525" 
d="M508 501l-236 -552.998c-23.333 -54.667 -52.5 -94.834 -87.5 -120.501s-78.833 -43.834 -131.5 -54.501l-12 48c48 11.333 84.167 26 108.5 44s44.833 46.333 61.5 85l21 49l-214 502h65l181 -440l182 440h62zM113 643.002v52h299v-52h-299z" />
    <glyph glyph-name="uni0237" unicode="&#x237;" horiz-adv-x="228" 
d="M-3 -164c27.333 0 48.5 7.66797 63.5 23.001s22.5 42.666 22.5 81.999v560h60v-571c0 -50 -12 -87.333 -36 -112s-57 -37 -99 -37c-18.667 0 -38.667 2.66699 -60 8v55c18 -5.33301 34.333 -8 49 -8z" />
    <glyph glyph-name="uni0259" unicode="&#x259;" horiz-adv-x="542" 
d="M426.5 444c43 -46 64.499 -109.334 64.499 -190.001c0 -52.667 -9.33301 -98.667 -28 -138s-45.167 -69.666 -79.5 -90.999s-74.5 -32 -120.5 -32c-67.333 0 -120 21.5 -158 64.5s-57 103.167 -57 180.5v11h381v3c-0.666992 67.333 -16.5 118.833 -47.5 154.5
s-75.167 53.5 -132.5 53.5c-55.333 0 -111.666 -20.667 -168.999 -62l-24 47c23.333 21.333 52.5 38 87.5 50s70.167 18 105.5 18c75.333 0 134.5 -23 177.5 -69zM372.999 83.999c28 27.333 45.667 66.333 53 117h-318c4 -51.333 19.167 -90.5 45.5 -117.5
s62.5 -40.5 108.5 -40.5s83 13.667 111 41z" />
    <glyph glyph-name="uni02BB" unicode="&#x2bb;" horiz-adv-x="300" 
d="M194 659v-73.999h-85v56c0 25.333 3.66699 48.166 11 68.499s20 39.833 38 58.5l32 -25c-13.333 -14 -22.5 -27.5 -27.5 -40.5s-7.83301 -27.5 -8.5 -43.5h40z" />
    <glyph glyph-name="uni02BC" unicode="&#x2bc;" horiz-adv-x="300" 
d="M191 760v-57c0 -25.333 -3.66699 -48.166 -11 -68.499s-20 -39.5 -38 -57.5l-32 24c13.333 14 22.5 27.667 27.5 41s7.83301 27.666 8.5 42.999h-40v75h85z" />
    <glyph glyph-name="uni02BE" unicode="&#x2be;" horiz-adv-x="300" 
d="M222 727c19.333 -18.667 29 -41.667 29 -69s-9.66699 -50.333 -29 -69s-42.666 -28 -69.999 -28v45c14.667 0 26.667 5 36 15s14 22.333 14 37s-4.66699 27 -14 37s-21.333 15 -36 15v45c27.333 0 50.666 -9.33301 69.999 -28z" />
    <glyph glyph-name="uni02BF" unicode="&#x2bf;" horiz-adv-x="300" 
d="M152 710c-14.667 0 -26.834 -5 -36.501 -15s-14.5 -22.333 -14.5 -37s4.83301 -27 14.5 -37s21.834 -15 36.501 -15v-45c-28 0 -51.667 9.33301 -71 28s-29 41.667 -29 69s9.66699 50.333 29 69s43 28 71 28v-45z" />
    <glyph glyph-name="circumflex" unicode="&#x2c6;" horiz-adv-x="300" 
d="M75 556h-63l115 203h49l115 -203h-63l-76 152z" />
    <glyph glyph-name="caron" unicode="&#x2c7;" horiz-adv-x="300" 
d="M228 759h63l-115 -203h-49l-115 203h63l77 -153z" />
    <glyph glyph-name="uni02C8" unicode="&#x2c8;" horiz-adv-x="300" 
d="M125 556v201h53v-201h-53z" />
    <glyph glyph-name="uni02C9" unicode="&#x2c9;" horiz-adv-x="300" 
d="M2 632v52h299v-52h-299z" />
    <glyph glyph-name="uni02CA" unicode="&#x2ca;" horiz-adv-x="300" 
d="M175 556h-47l101 203h78z" />
    <glyph glyph-name="uni02CB" unicode="&#x2cb;" horiz-adv-x="300" 
d="M128 556l-132 203h78l101 -203h-47z" />
    <glyph glyph-name="uni02CC" unicode="&#x2cc;" horiz-adv-x="300" 
d="M125 -273v201h53v-201h-53z" />
    <glyph glyph-name="breve" unicode="&#x2d8;" horiz-adv-x="300" 
d="M56 618.5c-28.667 19.667 -50.333 50.167 -65 91.5l46 20c14.667 -32.667 31.5 -56.167 50.5 -70.5s40.5 -21.5 64.5 -21.5c23.333 0 44.5 7.16699 63.5 21.5s35.833 37.833 50.5 70.5l46 -19c-14 -42 -35.333 -72.833 -64 -92.5s-60.667 -29.5 -96 -29.5
s-67.333 9.83301 -96 29.5z" />
    <glyph glyph-name="dotaccent" unicode="&#x2d9;" horiz-adv-x="300" 
d="M111 697h81v-78h-81v78z" />
    <glyph glyph-name="ring" unicode="&#x2da;" horiz-adv-x="300" 
d="M81 588c-19.333 18.667 -29 42 -29 70c0 26.667 9.83301 49.334 29.5 68.001s43.167 28 70.5 28s50.666 -9.33301 69.999 -28s29 -41.334 29 -68.001c0 -28 -9.66699 -51.333 -29 -70s-42.666 -28 -69.999 -28c-28 0 -51.667 9.33301 -71 28zM188 620
c9.33301 10 14 22.667 14 38c0 14 -4.83301 26 -14.5 36s-21.5 15 -35.5 15c-14.667 0 -26.834 -5 -36.501 -15s-14.5 -22 -14.5 -36c0 -15.333 4.83301 -28 14.5 -38s21.834 -15 36.501 -15s26.667 5 36 15z" />
    <glyph glyph-name="ogonek" unicode="&#x2db;" horiz-adv-x="300" 
d="M38 -163.5c-21.333 19.667 -31.999 44.501 -31.999 74.501c0 33.333 11.667 61.666 35 84.999s56 38.333 98 45l13 -31c-30.667 -6 -53.5 -17 -68.5 -33s-22.5 -35.667 -22.5 -59c0 -20.667 6 -36.667 18 -48s28.333 -17 49 -17c18.667 0 38.667 6 60 18l16 -42
c-22.667 -14.667 -50.334 -22 -83.001 -22c-34 0 -61.667 9.83301 -83 29.5z" />
    <glyph glyph-name="tilde" unicode="&#x2dc;" horiz-adv-x="300" 
d="M15.5 685c15 18.667 35.833 28 62.5 28c14 0 27.333 -2.83301 40 -8.5s28 -14.167 46 -25.5c15.333 -9.33301 27 -15.833 35 -19.5s16 -5.5 24 -5.5c15.333 0 27.166 5.5 35.499 16.5s12.5 24.167 12.5 39.5h39c0 -33.333 -7.5 -59.333 -22.5 -78s-35.833 -28 -62.5 -28
c-14 0 -27.333 2.83301 -40 8.5s-28 14.167 -46 25.5c-15.333 9.33301 -27 15.833 -35 19.5s-16 5.5 -24 5.5c-15.333 0 -27.166 -5.5 -35.499 -16.5s-12.5 -24.167 -12.5 -39.5h-39c0 33.333 7.5 59.333 22.5 78z" />
    <glyph glyph-name="hungarumlaut" unicode="&#x2dd;" horiz-adv-x="300" 
d="M110 556h-34l49 203h65zM227 556h-34l49 203h65z" />
    <glyph glyph-name="gravecomb" unicode="&#x300;" 
d="M-172 556l-132 203h78l101 -203h-47z" />
    <glyph glyph-name="acutecomb" unicode="&#x301;" 
d="M-125 556h-47l101 203h78z" />
    <glyph glyph-name="uni0302" unicode="&#x302;" 
d="M-225 556h-63l115 203h49l115 -203h-63l-76 152z" />
    <glyph glyph-name="tildecomb" unicode="&#x303;" 
d="M-284.5 685c15 18.667 35.833 28 62.5 28c14 0 27.333 -2.83301 40 -8.5s28 -14.167 46 -25.5c15.333 -9.33301 27 -15.833 35 -19.5s16 -5.5 24 -5.5c15.333 0 27.166 5.5 35.499 16.5s12.5 24.167 12.5 39.5h39c0 -33.333 -7.5 -59.333 -22.5 -78
s-35.833 -28 -62.5 -28c-14 0 -27.333 2.83301 -40 8.5s-28 14.167 -46 25.5c-15.333 9.33301 -27 15.833 -35 19.5s-16 5.5 -24 5.5c-15.333 0 -27.166 -5.5 -35.499 -16.5s-12.5 -24.167 -12.5 -39.5h-39c0 33.333 7.5 59.333 22.5 78z" />
    <glyph glyph-name="uni0304" unicode="&#x304;" 
d="M-298 632v52h299v-52h-299z" />
    <glyph glyph-name="uni0306" unicode="&#x306;" 
d="M-244 618.5c-28.667 19.667 -50.333 50.167 -65 91.5l46 20c14.667 -32.667 31.5 -56.167 50.5 -70.5s40.5 -21.5 64.5 -21.5c23.333 0 44.5 7.16699 63.5 21.5s35.833 37.833 50.5 70.5l46 -19c-14 -42 -35.333 -72.833 -64 -92.5s-60.667 -29.5 -96 -29.5
s-67.333 9.83301 -96 29.5z" />
    <glyph glyph-name="uni0307" unicode="&#x307;" 
d="M-189 697h81v-78h-81v78z" />
    <glyph glyph-name="uni0308" unicode="&#x308;" 
d="M-270 695h75v-74h-75v74zM-102 695h75v-74h-75v74z" />
    <glyph glyph-name="hookabovecomb" unicode="&#x309;" 
d="M-123 556l-46.9971 -0.000976562v29c0 13.333 3.16699 24.5 9.5 33.5s16.166 20.167 29.499 33.5c9.33301 8.66699 16.166 15.834 20.499 21.501s6.5 11.834 6.5 18.501c0 8 -3.83301 14.167 -11.5 18.5s-18.167 6.5 -31.5 6.5c-20 0 -40.667 -4 -62 -12l-14 40
c26 12 52.667 18 80 18c29.333 0 52.666 -6.33301 69.999 -19s26 -28.667 26 -48c0 -15.333 -3.5 -27.833 -10.5 -37.5s-17.167 -19.834 -30.5 -30.501c-12 -10 -20.833 -18.833 -26.5 -26.5s-8.5 -17.5 -8.5 -29.5v-16z" />
    <glyph glyph-name="uni030A" unicode="&#x30a;" 
d="M-219 588c-19.333 18.667 -29 42 -29 70c0 26.667 9.83301 49.334 29.5 68.001s43.167 28 70.5 28s50.666 -9.33301 69.999 -28s29 -41.334 29 -68.001c0 -28 -9.66699 -51.333 -29 -70s-42.666 -28 -69.999 -28c-28 0 -51.667 9.33301 -71 28zM-112 620
c9.33301 10 14 22.667 14 38c0 14 -4.83301 26 -14.5 36s-21.5 15 -35.5 15c-14.667 0 -26.834 -5 -36.501 -15s-14.5 -22 -14.5 -36c0 -15.333 4.83301 -28 14.5 -38s21.834 -15 36.501 -15s26.667 5 36 15z" />
    <glyph glyph-name="uni030B" unicode="&#x30b;" 
d="M-190 556h-34l49 203h65zM-73 556h-34l49 203h65z" />
    <glyph glyph-name="uni030C" unicode="&#x30c;" 
d="M-72 759h63l-115 -203h-49l-115 203h63l77 -153z" />
    <glyph glyph-name="uni030F" unicode="&#x30f;" 
d="M-224 556l-80 203h65l49 -203h-34zM-107 556l-80 203h65l49 -203h-34z" />
    <glyph glyph-name="uni0311" unicode="&#x311;" 
d="M-52.5 699.5c28.333 -19.667 49.835 -50.501 64.502 -92.501l-46 -20c-14.667 33.333 -31.334 57.166 -50.001 71.499s-40 21.5 -64 21.5s-45.5 -7.16699 -64.5 -21.5s-35.833 -38.166 -50.5 -71.499l-46 19c14 42.667 35.333 73.834 64 93.501s61 29.5 97 29.5
c35.333 0 67.166 -9.83301 95.499 -29.5z" />
    <glyph glyph-name="uni0312" unicode="&#x312;" 
d="M-106 659v-73.999h-85v56c0 25.333 3.66699 48.166 11 68.499s20 39.833 38 58.5l32 -25c-13.333 -14 -22.5 -27.5 -27.5 -40.5s-7.83301 -27.5 -8.5 -43.5h40z" />
    <glyph glyph-name="uni031B" unicode="&#x31b;" 
d="M-150 472l0.000976562 23c44 0.666992 74.5 10 91.5 28s25.5 46.667 25.5 86v13h56v-23c0 -44.667 -12.333 -80 -37 -106s-60.334 -40.333 -107.001 -43z" />
    <glyph glyph-name="dotbelowcomb" unicode="&#x323;" 
d="M-188 -102h79v-78h-79v78z" />
    <glyph glyph-name="uni0324" unicode="&#x324;" 
d="M-270 -104h75v-74h-75v74zM-102 -104h75v-74h-75v74z" />
    <glyph glyph-name="uni0326" unicode="&#x326;" 
d="M-106 -75v-56.001c0 -25.333 -3.66699 -48.166 -11 -68.499s-20 -39.833 -38 -58.5l-32 25c13.333 14 22.5 27.5 27.5 40.5s7.83301 27.5 8.5 43.5h-40v74h85z" />
    <glyph glyph-name="uni0327" unicode="&#x327;" 
d="M-53.5 -59c15 -12 22.5 -29.333 22.5 -52c0 -24 -10 -43.667 -30 -59s-47.333 -23 -82 -23c-14.667 0 -30 1.5 -46 4.5s-29.667 7.83301 -41 14.5l14 39c22 -9.33301 47 -14 75 -14c19.333 0 33.833 3.33301 43.5 10s14.5 16 14.5 28c0 9.33301 -3 16.5 -9 21.5
s-15 7.5 -27 7.5c-12.667 0 -29 -3.33301 -49 -10l-19 15l10 97h51l-7 -64c8.66699 2 17.667 3 27 3c20 0 37.5 -6 52.5 -18z" />
    <glyph glyph-name="uni0328" unicode="&#x328;" 
d="M-262 -163.5c-21.333 19.667 -31.999 44.501 -31.999 74.501c0 33.333 11.667 61.666 35 84.999s56 38.333 98 45l13 -31c-30.667 -6 -53.5 -17 -68.5 -33s-22.5 -35.667 -22.5 -59c0 -20.667 6 -36.667 18 -48s28.333 -17 49 -17c18.667 0 38.667 6 60 18l16 -42
c-22.667 -14.667 -50.334 -22 -83.001 -22c-34 0 -61.667 9.83301 -83 29.5z" />
    <glyph glyph-name="uni032E" unicode="&#x32e;" 
d="M-244.5 -179.5c-28.333 19.667 -49.833 50.501 -64.5 92.501l46 20c14.667 -32.667 31.5 -56.167 50.5 -70.5s40.5 -21.5 64.5 -21.5c23.333 0 44.5 7.16699 63.5 21.5s35.833 37.833 50.5 70.5l46 -19c-14 -42.667 -35.333 -73.834 -64 -93.501s-60.667 -29.5 -96 -29.5
c-36 0 -68.167 9.83301 -96.5 29.5z" />
    <glyph glyph-name="uni0331" unicode="&#x331;" 
d="M-298 -167v52h299v-52h-299z" />
    <glyph glyph-name="uni0335" unicode="&#x335;" 
d="M-298 224v48h299v-48h-299z" />
    <glyph glyph-name="uni0394" unicode="&#x394;" horiz-adv-x="720" 
d="M387 712l301 -678v-34h-656v34l301 678h54zM360 632l-255 -578h510z" />
    <glyph glyph-name="Sigma" unicode="&#x3a3;" horiz-adv-x="581" 
d="M539 712v-54h-423l257 -369v-47l-256 -369h422v-55h-499v46l277 402l-277 401v45h499z" />
    <glyph glyph-name="uni03A9" unicode="&#x3a9;" horiz-adv-x="777" 
d="M672 228c-30.667 -58 -78.335 -116.001 -143.002 -174.001h184v-54h-254v51c62.667 57.333 110.834 117.333 144.501 180s50.5 123.334 50.5 182.001c0 79.333 -23.333 141.166 -70 185.499s-111.667 66.5 -195 66.5s-148.5 -22.167 -195.5 -66.5
s-70.5 -106.166 -70.5 -185.499c0 -59.333 16.833 -120 50.5 -182s82.167 -122 145.5 -180v-51h-254v54h183c-65.333 58 -113.166 116 -143.499 174s-45.5 119.667 -45.5 185c0 62.667 13.333 117 40 163s64.834 81.5 114.501 106.5s108.167 37.5 175.5 37.5
s125.666 -12.5 174.999 -37.5s87.333 -60.5 114 -106.5s40 -100.333 40 -163c0 -65.333 -15.333 -127 -46 -185z" />
    <glyph glyph-name="uni03BC" unicode="&#x3bc;" horiz-adv-x="569" 
d="M486 501v-501.001h-59v91c-16 -32 -38.667 -56.333 -68 -73s-63 -25 -101 -25c-51.333 0 -90.666 12.667 -117.999 38v-247h-60v717h60v-310c0 -49.333 10 -85.666 30 -108.999s51 -35 93 -35c49.333 0 88.666 15.5 117.999 46.5s44 72.167 44 123.5v284h61z" />
    <glyph glyph-name="pi" unicode="&#x3c0;" horiz-adv-x="581" 
d="M578 45l-6.00098 -51.0029l-45 3c-114.667 7.33301 -172 68 -172 182v273h-186c-1.33301 -91.333 -7.66602 -174.166 -18.999 -248.499s-28.333 -142.166 -51 -203.499h-66c46.667 126.667 71.667 277.334 75 452.001h-103v49h538v-49h-127v-278c0 -78 39 -120 117 -126z
" />
    <glyph glyph-name="uni1E08" unicode="&#x1e08;" horiz-adv-x="684" 
d="M540 924l-129 -151h-47l101 151h75zM502 67.5c34 13.667 68.001 35.8311 102.001 66.498l26 -49c-28 -29.333 -61.333 -51.833 -100 -67.5s-81.334 -24.167 -128.001 -25.5l-4 -36c9.33301 2 18.333 3 27 3c20 0 37.5 -6 52.5 -18s22.5 -29.333 22.5 -52
c0 -24 -10 -43.667 -30 -59s-47.333 -23 -82 -23c-14.667 0 -30 1.5 -46 4.5s-29.667 7.83301 -41 14.5l14 39c22 -9.33301 47 -14 75 -14c19.333 0 33.833 3.33301 43.5 10s14.5 16 14.5 28c0 9.33301 -3 16.5 -9 21.5s-15 7.5 -27 7.5c-12.667 0 -29 -3.33301 -49 -10
l-19 15l7 71c-89.333 8 -159.333 43.833 -210 107.5s-76 148.834 -76 255.501c0 74.667 13 139.334 39 194.001s63.333 96.5 112 125.5s106 43.5 172 43.5c49.333 0 94.5 -7.83301 135.5 -23.5s76.5 -38.834 106.5 -69.501l-26 -49c-34 30.667 -68 52.834 -102 66.501
s-72 20.5 -114 20.5c-82 0 -145.667 -26.833 -191 -80.5s-68 -129.5 -68 -227.5c0 -98.667 22.5 -175 67.5 -229s108.833 -81 191.5 -81c42 0 80 6.83301 114 20.5z" />
    <glyph glyph-name="uni1E09" unicode="&#x1e09;" horiz-adv-x="490" 
d="M440 770l-132 -203h-47l101 203h78zM389 13c-29.333 -12 -59.668 -18.6689 -91.001 -20.002l-4 -37c9.33301 2 18.333 3 27 3c20 0 37.5 -6 52.5 -18s22.5 -29.333 22.5 -52c0 -24 -10 -43.667 -30 -59s-47.333 -23 -82 -23c-14.667 0 -30 1.5 -46 4.5
s-29.667 7.83301 -41 14.5l14 39c22 -9.33301 47 -14 75 -14c19.333 0 33.833 3.33301 43.5 10s14.5 16 14.5 28c0 9.33301 -3 16.5 -9 21.5s-15 7.5 -27 7.5c-12.667 0 -29 -3.33301 -49 -10l-19 15l7 73c-60.667 8 -108.5 34.833 -143.5 80.5s-52.5 103.834 -52.5 174.501
c0 52 9.66699 97.833 29 137.5s47 70.334 83 92.001s77.667 32.5 125 32.5c34 0 66.5 -5.83301 97.5 -17.5s56.5 -27.834 76.5 -48.501l-24 -48c-26 21.333 -50.833 36.833 -74.5 46.5s-48.167 14.5 -73.5 14.5c-54 0 -96.667 -18.5 -128 -55.5s-47 -88.167 -47 -153.5
c0 -64 15.5 -114 46.5 -150s73.833 -54 128.5 -54c25.333 0 49.833 4.83301 73.5 14.5s48.5 24.834 74.5 45.501l24 -47c-19.333 -19.333 -43.666 -35 -72.999 -47z" />
    <glyph glyph-name="uni1E0C" unicode="&#x1e0c;" horiz-adv-x="739" 
d="M92 712h229.002c113.333 0 200.666 -30.667 261.999 -92s92 -149 92 -263s-30.833 -202 -92.5 -264s-148.834 -93 -261.501 -93h-229v712zM318.002 54c96.667 0 169.333 25.5 218 76.5s73 126.5 73 226.5c0 200.667 -97 301 -291 301h-164v-604h164zM330.001 -102h79v-78
h-79v78z" />
    <glyph glyph-name="uni1E0D" unicode="&#x1e0d;" horiz-adv-x="591" 
d="M508 736v-736.002h-61v96c-14.667 -33.333 -36.834 -58.833 -66.501 -76.5s-65.167 -26.5 -106.5 -26.5c-44 0 -82.833 10.833 -116.5 32.5s-59.834 52.334 -78.501 92.001s-28 85.5 -28 137.5s9.16699 97.5 27.5 136.5s44.333 69 78 90s72.834 31.5 117.501 31.5
c40.667 0 75.834 -8.66699 105.501 -26s52.167 -42.666 67.5 -75.999v325h61zM404 100.998c28.667 36 42.998 86.668 42.998 152.001s-14.333 116.166 -43 152.499s-69 54.5 -121 54.5c-53.333 0 -94.666 -18 -123.999 -54s-44 -86.333 -44 -151
c0 -65.333 14.667 -116.333 44 -153s70.333 -55 123 -55s93.334 18 122.001 54zM256.998 -102.001h79v-78h-79v78z" />
    <glyph glyph-name="uni1E0E" unicode="&#x1e0e;" horiz-adv-x="739" 
d="M92 712h229.002c113.333 0 200.666 -30.667 261.999 -92s92 -149 92 -263s-30.833 -202 -92.5 -264s-148.834 -93 -261.501 -93h-229v712zM318.002 54c96.667 0 169.333 25.5 218 76.5s73 126.5 73 226.5c0 200.667 -97 301 -291 301h-164v-604h164zM220.001 -167v52h299
v-52h-299z" />
    <glyph glyph-name="uni1E0F" unicode="&#x1e0f;" horiz-adv-x="591" 
d="M508 736v-736.002h-61v96c-14.667 -33.333 -36.834 -58.833 -66.501 -76.5s-65.167 -26.5 -106.5 -26.5c-44 0 -82.833 10.833 -116.5 32.5s-59.834 52.334 -78.501 92.001s-28 85.5 -28 137.5s9.16699 97.5 27.5 136.5s44.333 69 78 90s72.834 31.5 117.501 31.5
c40.667 0 75.834 -8.66699 105.501 -26s52.167 -42.666 67.5 -75.999v325h61zM404 100.998c28.667 36 42.998 86.668 42.998 152.001s-14.333 116.166 -43 152.499s-69 54.5 -121 54.5c-53.333 0 -94.666 -18 -123.999 -54s-44 -86.333 -44 -151
c0 -65.333 14.667 -116.333 44 -153s70.333 -55 123 -55s93.334 18 122.001 54zM146.998 -167.001v52h299v-52h-299z" />
    <glyph glyph-name="uni1E14" unicode="&#x1e14;" horiz-adv-x="585" 
d="M92 0v712h439v-53h-378v-270h358v-55h-358v-281h378v-53h-439zM175 824v52h299v-52h-299zM301 935l-129 151h75l101 -151h-47z" />
    <glyph glyph-name="uni1E15" unicode="&#x1e15;" horiz-adv-x="543" 
d="M115 258v-3.00098c0 -67.333 15.5 -118.833 46.5 -154.5s76.167 -53.5 135.5 -53.5c60 0 115 20.667 165 62l24 -48c-22 -20.667 -50 -37.167 -84 -49.5s-69 -18.5 -105 -18.5c-76 0 -136 23 -180 69s-66 109.333 -66 190c0 51.333 9.83301 96.833 29.5 136.5
s47.167 70.334 82.5 92.001s76 32.5 122 32.5c66 0 117.5 -21.333 154.5 -64s55.5 -102 55.5 -178v-13h-380zM173 421.499c-28.667 -27.667 -46.667 -66.5 -54 -116.5h318c-4 51.333 -19 90.5 -45 117.5s-61.667 40.5 -107 40.5c-46 0 -83.333 -13.833 -112 -41.5z
M135 642.999v52h299v-52h-299zM261 763.999l-132 203h78l101 -203h-47z" />
    <glyph glyph-name="uni1E16" unicode="&#x1e16;" horiz-adv-x="585" 
d="M92 0v712h439v-53h-378v-270h358v-55h-358v-281h378v-53h-439zM175 824v52h299v-52h-299zM348 935h-47l101 151h75z" />
    <glyph glyph-name="uni1E17" unicode="&#x1e17;" horiz-adv-x="543" 
d="M115 258v-3.00098c0 -67.333 15.5 -118.833 46.5 -154.5s76.167 -53.5 135.5 -53.5c60 0 115 20.667 165 62l24 -48c-22 -20.667 -50 -37.167 -84 -49.5s-69 -18.5 -105 -18.5c-76 0 -136 23 -180 69s-66 109.333 -66 190c0 51.333 9.83301 96.833 29.5 136.5
s47.167 70.334 82.5 92.001s76 32.5 122 32.5c66 0 117.5 -21.333 154.5 -64s55.5 -102 55.5 -178v-13h-380zM173 421.499c-28.667 -27.667 -46.667 -66.5 -54 -116.5h318c-4 51.333 -19 90.5 -45 117.5s-61.667 40.5 -107 40.5c-46 0 -83.333 -13.833 -112 -41.5z
M135 642.999v52h299v-52h-299zM308 763.999h-47l101 203h78z" />
    <glyph glyph-name="uni1E1C" unicode="&#x1e1c;" horiz-adv-x="585" 
d="M229 811c-28 16.667 -49.3359 43.667 -64.0029 81l45 20c16.667 -29.333 33.834 -49.5 51.501 -60.5s38.834 -16.5 63.501 -16.5c24 0 44.833 5.5 62.5 16.5s34.834 31.167 51.501 60.5l45 -20c-28 -70.667 -81 -106 -159 -106c-36 0 -68 8.33301 -96 25zM152.997 659
v-270h358v-55h-358v-281h378v-53h-190l-5 -44c9.33301 2 18.333 3 27 3c20 0 37.5 -6 52.5 -18s22.5 -29.333 22.5 -52c0 -24 -10 -43.667 -30 -59s-47.333 -23 -82 -23c-14.667 0 -30 1.5 -46 4.5s-29.667 7.83301 -41 14.5l14 39c22 -9.33301 47 -14 75 -14
c19.333 0 33.833 3.33301 43.5 10s14.5 16 14.5 28c0 9.33301 -3 16.5 -9 21.5s-15 7.5 -27 7.5c-12.667 0 -29 -3.33301 -49 -10l-19 15l8 77h-198v712h439v-53h-378z" />
    <glyph glyph-name="uni1E1D" unicode="&#x1e1d;" horiz-adv-x="543" 
d="M189 629.5c-28.667 19.667 -50.333 50.167 -65 91.5l46 20c14.667 -32.667 31.5 -56.167 50.5 -70.5s40.5 -21.5 64.5 -21.5c23.333 0 44.5 7.16699 63.5 21.5s35.833 37.833 50.5 70.5l46 -19c-14 -42 -35.333 -72.833 -64 -92.5s-60.667 -29.5 -96 -29.5
s-67.333 9.83301 -96 29.5zM115.001 258v-3.00098c0 -67.333 15.5 -118.833 46.5 -154.5s76.167 -53.5 135.5 -53.5c60 0 115 20.667 165 62l24 -48c-20.667 -19.333 -46.5 -35 -77.5 -47s-63.167 -19 -96.5 -21l-4 -37c9.33301 2 18.333 3 27 3c20 0 37.5 -6 52.5 -18
s22.5 -29.333 22.5 -52c0 -24 -10 -43.667 -30 -59s-47.333 -23 -82 -23c-14.667 0 -30 1.5 -46 4.5s-29.667 7.83301 -41 14.5l14 39c22 -9.33301 47 -14 75 -14c19.333 0 33.833 3.33301 43.5 10s14.5 16 14.5 28c0 9.33301 -3 16.5 -9 21.5s-15 7.5 -27 7.5
c-12.667 0 -29 -3.33301 -49 -10l-19 15l7 72c-66 7.33301 -117.5 33.5 -154.5 78.5s-55.5 104.5 -55.5 178.5c0 51.333 9.83301 96.833 29.5 136.5s47.167 70.334 82.5 92.001s76 32.5 122 32.5c66 0 117.5 -21.333 154.5 -64s55.5 -102 55.5 -178v-13h-380z
M173.001 421.499c-28.667 -27.667 -46.667 -66.5 -54 -116.5h318c-4 51.333 -19 90.5 -45 117.5s-61.667 40.5 -107 40.5c-46 0 -83.333 -13.833 -112 -41.5z" />
    <glyph glyph-name="uni1E20" unicode="&#x1e20;" horiz-adv-x="726" 
d="M642 365l0.00292969 -325.002c-26 -14 -61.667 -25.5 -107 -34.5s-91 -13.5 -137 -13.5c-69.333 0 -129 14.5 -179 43.5s-88.167 70.833 -114.5 125.5s-39.5 120 -39.5 196c0 75.333 13.167 140.333 39.5 195s64.166 96.334 113.499 125.001s107.666 43 174.999 43
c100.667 0 181.334 -31 242.001 -93l-26 -49c-34 30.667 -68.167 52.834 -102.5 66.501s-72.5 20.5 -114.5 20.5c-84 0 -148.833 -26.667 -194.5 -80s-68.5 -129.333 -68.5 -228c0 -100.667 23.167 -177.667 69.5 -231s113.166 -80 200.499 -80
c67.333 0 129.666 11 186.999 33v233h-188v53h244zM241.003 823.998v52h299v-52h-299z" />
    <glyph glyph-name="uni1E21" unicode="&#x1e21;" horiz-adv-x="595" 
d="M512 501l0.000976562 -503.003c0 -72.667 -18 -127.667 -54 -165s-89 -56 -159 -56c-74.667 0 -139.667 18 -195 54l12 53c32.667 -19.333 62.667 -33 90 -41s58.666 -12 93.999 -12c50 0 87.833 13.667 113.5 41s38.5 67.333 38.5 120v129
c-15.333 -34 -38 -60.167 -68 -78.5s-66 -27.5 -108 -27.5c-44 0 -83 10.5 -117 31.5s-60.5 50.333 -79.5 88s-28.5 80.834 -28.5 129.501c0 49.333 9.5 92.833 28.5 130.5s45.5 66.834 79.5 87.501s73 31 117 31c42 0 77.833 -8.66699 107.5 -26
s52.167 -42.666 67.5 -75.999v90h61zM406.501 121.997c29.667 34.667 44.5 82 44.5 142c0 60.667 -14.833 108.5 -44.5 143.5s-70.5 52.5 -122.5 52.5c-52.667 0 -94 -17.5 -124 -52.5s-45 -82.833 -45 -143.5s15 -108.167 45 -142.5s71.333 -51.5 124 -51.5
c52 0 92.833 17.333 122.5 52zM150.001 642.997v52h299v-52h-299z" />
    <glyph glyph-name="uni1E24" unicode="&#x1e24;" horiz-adv-x="762" 
d="M608 712h62v-712h-62v334h-454v-334h-62v712h62v-323h454v323zM342 -102h79v-78h-79v78z" />
    </font>
</defs>
</svg>
